<mxfile host="app.diagrams.net" modified="2024-06-13T16:19:52.349Z" agent="Mozilla/5.0 (Windows NT 10.0; Win64; x64) AppleWebKit/537.36 (KHTML, like Gecko) Chrome/121.0.0.0 Safari/537.36 Edg/121.0.0.0" etag="PodeJhZE1NydBYYGgAEO" version="24.2.0" type="github" pages="2">
  <diagram name="C4: Lv1" id="kjVTZC8yL4Xrj-s7TF5h">
    <mxGraphModel dx="1709" dy="813" grid="1" gridSize="10" guides="1" tooltips="1" connect="1" arrows="1" fold="1" page="1" pageScale="1" pageWidth="850" pageHeight="1100" math="0" shadow="0">
      <root>
        <mxCell id="s4JdbdMJo-KRI_eK0oYm-0" />
        <mxCell id="s4JdbdMJo-KRI_eK0oYm-1" parent="s4JdbdMJo-KRI_eK0oYm-0" />
        <mxCell id="FLGPEEDjmsuFQvejq8bg-23" value="" style="rounded=0;whiteSpace=wrap;html=1;" parent="s4JdbdMJo-KRI_eK0oYm-1" vertex="1">
          <mxGeometry x="620" y="1070" width="310" height="620" as="geometry" />
        </mxCell>
        <mxCell id="FLGPEEDjmsuFQvejq8bg-1" value="" style="edgeStyle=orthogonalEdgeStyle;rounded=0;orthogonalLoop=1;jettySize=auto;html=1;" parent="s4JdbdMJo-KRI_eK0oYm-1" source="s4JdbdMJo-KRI_eK0oYm-18" target="FLGPEEDjmsuFQvejq8bg-0" edge="1">
          <mxGeometry relative="1" as="geometry" />
        </mxCell>
        <mxCell id="s4JdbdMJo-KRI_eK0oYm-18" value="Users" style="shape=actor;whiteSpace=wrap;html=1;" parent="s4JdbdMJo-KRI_eK0oYm-1" vertex="1">
          <mxGeometry x="131" y="1170" width="50" height="70" as="geometry" />
        </mxCell>
        <mxCell id="s4JdbdMJo-KRI_eK0oYm-23" value="&lt;font style=&quot;font-size: 36px;&quot;&gt;FG Simulator&lt;/font&gt;" style="text;strokeColor=none;fillColor=none;html=1;fontSize=18;fontStyle=1;verticalAlign=middle;align=center;" parent="s4JdbdMJo-KRI_eK0oYm-1" vertex="1">
          <mxGeometry x="740" y="980" width="100" height="40" as="geometry" />
        </mxCell>
        <mxCell id="FLGPEEDjmsuFQvejq8bg-0" value="&lt;span style=&quot;font-size: 14px;&quot;&gt;&lt;b&gt;Parameters&lt;br&gt;&lt;/b&gt;&lt;/span&gt;Targets (FMC, Change Overs), Planning Horizon, SKU Exceptions, Filters, and Constraints" style="rounded=1;whiteSpace=wrap;html=1;fillColor=#97D077;" parent="s4JdbdMJo-KRI_eK0oYm-1" vertex="1">
          <mxGeometry x="260" y="1150" width="190" height="110" as="geometry" />
        </mxCell>
        <mxCell id="FLGPEEDjmsuFQvejq8bg-4" value="" style="edgeStyle=orthogonalEdgeStyle;rounded=0;orthogonalLoop=1;jettySize=auto;html=1;" parent="s4JdbdMJo-KRI_eK0oYm-1" source="FLGPEEDjmsuFQvejq8bg-2" target="FLGPEEDjmsuFQvejq8bg-3" edge="1">
          <mxGeometry relative="1" as="geometry" />
        </mxCell>
        <mxCell id="FLGPEEDjmsuFQvejq8bg-2" value="SAP as Data Source" style="image;sketch=0;aspect=fixed;html=1;points=[];align=center;fontSize=12;image=img/lib/mscae/SAP_HANA_on_Azure.svg;" parent="s4JdbdMJo-KRI_eK0oYm-1" vertex="1">
          <mxGeometry x="131" y="1382.5" width="50" height="25" as="geometry" />
        </mxCell>
        <mxCell id="FLGPEEDjmsuFQvejq8bg-3" value="&lt;span style=&quot;font-size: 14px;&quot;&gt;&lt;b&gt;Data extractions&lt;br&gt;&lt;/b&gt;&lt;/span&gt;Master Data, Demand, Capacity, Routes and Production Orders data" style="rounded=1;whiteSpace=wrap;html=1;fillColor=#66B2FF;" parent="s4JdbdMJo-KRI_eK0oYm-1" vertex="1">
          <mxGeometry x="260" y="1340" width="190" height="110" as="geometry" />
        </mxCell>
        <mxCell id="FLGPEEDjmsuFQvejq8bg-10" value="" style="edgeStyle=orthogonalEdgeStyle;rounded=0;orthogonalLoop=1;jettySize=auto;html=1;" parent="s4JdbdMJo-KRI_eK0oYm-1" source="FLGPEEDjmsuFQvejq8bg-7" target="FLGPEEDjmsuFQvejq8bg-8" edge="1">
          <mxGeometry relative="1" as="geometry" />
        </mxCell>
        <mxCell id="FLGPEEDjmsuFQvejq8bg-7" value="Power Automate Cloud Flow" style="rounded=0;whiteSpace=wrap;html=1;" parent="s4JdbdMJo-KRI_eK0oYm-1" vertex="1">
          <mxGeometry x="181" y="600" width="129" height="85" as="geometry" />
        </mxCell>
        <mxCell id="FLGPEEDjmsuFQvejq8bg-11" value="" style="edgeStyle=orthogonalEdgeStyle;rounded=0;orthogonalLoop=1;jettySize=auto;html=1;" parent="s4JdbdMJo-KRI_eK0oYm-1" source="FLGPEEDjmsuFQvejq8bg-8" target="FLGPEEDjmsuFQvejq8bg-9" edge="1">
          <mxGeometry relative="1" as="geometry" />
        </mxCell>
        <mxCell id="FLGPEEDjmsuFQvejq8bg-8" value="Power Automate desktop flow" style="rounded=0;whiteSpace=wrap;html=1;" parent="s4JdbdMJo-KRI_eK0oYm-1" vertex="1">
          <mxGeometry x="361" y="600" width="129" height="85" as="geometry" />
        </mxCell>
        <mxCell id="FLGPEEDjmsuFQvejq8bg-9" value="Python script" style="rounded=0;whiteSpace=wrap;html=1;" parent="s4JdbdMJo-KRI_eK0oYm-1" vertex="1">
          <mxGeometry x="541" y="600" width="129" height="85" as="geometry" />
        </mxCell>
        <mxCell id="FLGPEEDjmsuFQvejq8bg-26" style="edgeStyle=orthogonalEdgeStyle;rounded=0;orthogonalLoop=1;jettySize=auto;html=1;entryX=0;entryY=0.5;entryDx=0;entryDy=0;exitX=1;exitY=0.5;exitDx=0;exitDy=0;" parent="s4JdbdMJo-KRI_eK0oYm-1" source="FLGPEEDjmsuFQvejq8bg-13" target="FLGPEEDjmsuFQvejq8bg-19" edge="1">
          <mxGeometry relative="1" as="geometry" />
        </mxCell>
        <mxCell id="FLGPEEDjmsuFQvejq8bg-31" value="" style="edgeStyle=orthogonalEdgeStyle;rounded=0;orthogonalLoop=1;jettySize=auto;html=1;" parent="s4JdbdMJo-KRI_eK0oYm-1" source="FLGPEEDjmsuFQvejq8bg-13" target="FLGPEEDjmsuFQvejq8bg-14" edge="1">
          <mxGeometry relative="1" as="geometry" />
        </mxCell>
        <mxCell id="FLGPEEDjmsuFQvejq8bg-13" value="Current Scenario" style="rounded=0;whiteSpace=wrap;html=1;" parent="s4JdbdMJo-KRI_eK0oYm-1" vertex="1">
          <mxGeometry x="670" y="1085" width="230" height="55" as="geometry" />
        </mxCell>
        <mxCell id="FLGPEEDjmsuFQvejq8bg-32" value="" style="edgeStyle=orthogonalEdgeStyle;rounded=0;orthogonalLoop=1;jettySize=auto;html=1;" parent="s4JdbdMJo-KRI_eK0oYm-1" source="FLGPEEDjmsuFQvejq8bg-14" target="FLGPEEDjmsuFQvejq8bg-15" edge="1">
          <mxGeometry relative="1" as="geometry" />
        </mxCell>
        <mxCell id="FLGPEEDjmsuFQvejq8bg-59" style="edgeStyle=orthogonalEdgeStyle;rounded=0;orthogonalLoop=1;jettySize=auto;html=1;entryX=0;entryY=0.5;entryDx=0;entryDy=0;" parent="s4JdbdMJo-KRI_eK0oYm-1" source="FLGPEEDjmsuFQvejq8bg-14" target="FLGPEEDjmsuFQvejq8bg-19" edge="1">
          <mxGeometry relative="1" as="geometry" />
        </mxCell>
        <mxCell id="FLGPEEDjmsuFQvejq8bg-14" value="Unconstrained Scenario" style="rounded=0;whiteSpace=wrap;html=1;" parent="s4JdbdMJo-KRI_eK0oYm-1" vertex="1">
          <mxGeometry x="670" y="1177.5" width="230" height="55" as="geometry" />
        </mxCell>
        <mxCell id="FLGPEEDjmsuFQvejq8bg-33" value="" style="edgeStyle=orthogonalEdgeStyle;rounded=0;orthogonalLoop=1;jettySize=auto;html=1;" parent="s4JdbdMJo-KRI_eK0oYm-1" source="FLGPEEDjmsuFQvejq8bg-15" target="FLGPEEDjmsuFQvejq8bg-16" edge="1">
          <mxGeometry relative="1" as="geometry" />
        </mxCell>
        <mxCell id="FLGPEEDjmsuFQvejq8bg-60" style="edgeStyle=orthogonalEdgeStyle;rounded=0;orthogonalLoop=1;jettySize=auto;html=1;entryX=0;entryY=0.5;entryDx=0;entryDy=0;" parent="s4JdbdMJo-KRI_eK0oYm-1" source="FLGPEEDjmsuFQvejq8bg-15" target="FLGPEEDjmsuFQvejq8bg-19" edge="1">
          <mxGeometry relative="1" as="geometry" />
        </mxCell>
        <mxCell id="FLGPEEDjmsuFQvejq8bg-15" value="FMC Constrained Scenario" style="rounded=0;whiteSpace=wrap;html=1;" parent="s4JdbdMJo-KRI_eK0oYm-1" vertex="1">
          <mxGeometry x="670" y="1270" width="230" height="60" as="geometry" />
        </mxCell>
        <mxCell id="FLGPEEDjmsuFQvejq8bg-35" value="" style="edgeStyle=orthogonalEdgeStyle;rounded=0;orthogonalLoop=1;jettySize=auto;html=1;" parent="s4JdbdMJo-KRI_eK0oYm-1" source="FLGPEEDjmsuFQvejq8bg-16" target="FLGPEEDjmsuFQvejq8bg-17" edge="1">
          <mxGeometry relative="1" as="geometry" />
        </mxCell>
        <mxCell id="FLGPEEDjmsuFQvejq8bg-61" style="edgeStyle=orthogonalEdgeStyle;rounded=0;orthogonalLoop=1;jettySize=auto;html=1;entryX=0;entryY=0.5;entryDx=0;entryDy=0;" parent="s4JdbdMJo-KRI_eK0oYm-1" source="FLGPEEDjmsuFQvejq8bg-16" target="FLGPEEDjmsuFQvejq8bg-19" edge="1">
          <mxGeometry relative="1" as="geometry" />
        </mxCell>
        <mxCell id="FLGPEEDjmsuFQvejq8bg-16" value="Machine capacity Constrained Scenario" style="rounded=0;whiteSpace=wrap;html=1;" parent="s4JdbdMJo-KRI_eK0oYm-1" vertex="1">
          <mxGeometry x="670" y="1370" width="230" height="60" as="geometry" />
        </mxCell>
        <mxCell id="FLGPEEDjmsuFQvejq8bg-36" value="" style="edgeStyle=orthogonalEdgeStyle;rounded=0;orthogonalLoop=1;jettySize=auto;html=1;" parent="s4JdbdMJo-KRI_eK0oYm-1" source="FLGPEEDjmsuFQvejq8bg-17" target="FLGPEEDjmsuFQvejq8bg-18" edge="1">
          <mxGeometry relative="1" as="geometry" />
        </mxCell>
        <mxCell id="FLGPEEDjmsuFQvejq8bg-62" style="edgeStyle=orthogonalEdgeStyle;rounded=0;orthogonalLoop=1;jettySize=auto;html=1;entryX=0;entryY=0.5;entryDx=0;entryDy=0;" parent="s4JdbdMJo-KRI_eK0oYm-1" source="FLGPEEDjmsuFQvejq8bg-17" target="FLGPEEDjmsuFQvejq8bg-19" edge="1">
          <mxGeometry relative="1" as="geometry" />
        </mxCell>
        <mxCell id="FLGPEEDjmsuFQvejq8bg-17" value="Change Over Balance Optimization Scenario" style="rounded=0;whiteSpace=wrap;html=1;" parent="s4JdbdMJo-KRI_eK0oYm-1" vertex="1">
          <mxGeometry x="670" y="1480" width="230" height="60" as="geometry" />
        </mxCell>
        <mxCell id="FLGPEEDjmsuFQvejq8bg-18" value="Labor Balance Optimization Scenario" style="rounded=0;whiteSpace=wrap;html=1;" parent="s4JdbdMJo-KRI_eK0oYm-1" vertex="1">
          <mxGeometry x="670" y="1580" width="230" height="85" as="geometry" />
        </mxCell>
        <mxCell id="FLGPEEDjmsuFQvejq8bg-29" style="edgeStyle=orthogonalEdgeStyle;rounded=0;orthogonalLoop=1;jettySize=auto;html=1;entryX=0;entryY=0.5;entryDx=0;entryDy=0;" parent="s4JdbdMJo-KRI_eK0oYm-1" source="FLGPEEDjmsuFQvejq8bg-19" target="FLGPEEDjmsuFQvejq8bg-28" edge="1">
          <mxGeometry relative="1" as="geometry" />
        </mxCell>
        <mxCell id="FLGPEEDjmsuFQvejq8bg-19" value="" style="shape=image;html=1;verticalAlign=top;verticalLabelPosition=bottom;labelBackgroundColor=#ffffff;imageAspect=0;aspect=fixed;image=https://cdn3.iconfinder.com/data/icons/brands-applications/512/Excel_D-128.png" parent="s4JdbdMJo-KRI_eK0oYm-1" vertex="1">
          <mxGeometry x="1120" y="1310" width="75" height="75" as="geometry" />
        </mxCell>
        <mxCell id="FLGPEEDjmsuFQvejq8bg-24" style="edgeStyle=orthogonalEdgeStyle;rounded=0;orthogonalLoop=1;jettySize=auto;html=1;entryX=0;entryY=0.419;entryDx=0;entryDy=0;entryPerimeter=0;" parent="s4JdbdMJo-KRI_eK0oYm-1" source="FLGPEEDjmsuFQvejq8bg-0" target="FLGPEEDjmsuFQvejq8bg-23" edge="1">
          <mxGeometry relative="1" as="geometry" />
        </mxCell>
        <mxCell id="FLGPEEDjmsuFQvejq8bg-25" style="edgeStyle=orthogonalEdgeStyle;rounded=0;orthogonalLoop=1;jettySize=auto;html=1;entryX=0;entryY=0.479;entryDx=0;entryDy=0;entryPerimeter=0;" parent="s4JdbdMJo-KRI_eK0oYm-1" source="FLGPEEDjmsuFQvejq8bg-3" target="FLGPEEDjmsuFQvejq8bg-23" edge="1">
          <mxGeometry relative="1" as="geometry" />
        </mxCell>
        <mxCell id="FLGPEEDjmsuFQvejq8bg-28" value="" style="shape=image;verticalLabelPosition=bottom;labelBackgroundColor=default;verticalAlign=top;aspect=fixed;imageAspect=0;image=data:image/png,iVBORw0KGgoAAAANSUhEUgAAAWUAAAFdCAYAAADbrHx7AAAAAXNSR0IArs4c6QAAAARnQU1BAACxjwv8YQUAAAAJcEhZcwAAEnQAABJ0Ad5mH3gAAN+RSURBVHhe7P0HvGXZQd6JfjuefG6+lXN1VAdlyQiwnDA24zy2n5l5b+Dnh/17Ho/H40x4zwQbjBO2MQw2Ns6AAYMQJskESSCphdSSutW5q7u6K1fdfE/c8bzvW+vsW7dL3Y3UrW6qbq2vat29z45rp//69toreL1Pzk/g5OTk5HRTyJ8OnZycnJxuAjkoOzk5Od1EclB2cnJyuonkoOzk5OR0E8lB2cnJyekmkoOyk5OT000kB2UnJyenm0gOyk5OTk43kRyUnZycnG4iOSg7OTk53URyUHZycnK6ieSg7OTk5HQTyUHZycnJ6SaSg7KTk5PTTSQHZScnJ6ebSA7KTk5OTjeRHJSdnJycbiI5KDs5OTndRHJQdnJycrqJ5KDs5OTkdBPJQdnJycnpJpKDspOTk9NNJAdlJycnp5tIDspOTk5ON5EclJ2cnJxuInm9T85PpuNON8jb9ddKp+oLT5enZSZabneQJii9gj9LjnMps6pZ2ix/43qT6XBn3Kyb8bfW3y0tc0NM7CSjarqZ9IXRdXJyuonloPwqstD0d/FOcCzhGboqaL5gqxeOwA4ngRnXehO/QBYOuUgG3yznccjtMdih1tGyAbcWMmjI9aYBXspNbXE4tvuaxkTAnngCt5Xhuob6w7hV0zXZr6Lq5OR0S8hlX7yK6HMJ1hzlNEymrtdMN6S7HjwDbM3POcwIbjlcjXNJAZShkvXBhDuXtyFn4DoghLWeCSnX0TTNNxjmmtoHhzuJAv/uArLG7dTp72lwcnK6deSc8quJgC0DwZGwnTpcet3puPGhho/XoVllVQi4QneIzKtzLKBjtcsEE87juLywx3GzAS5pgSqAK8uD49o8//gl151u3e6pGjIYt6wFp8trOP2tMUlO2ezCycnplpCD8qto4mcoghFdMt2qyWoIOTGcjivbwWRwMMjNVg5XLtmeUv3NyxkO61y+JFwZBOUdhyyIF9yMhXkF42qozYR5zFmR2YvdpmZYOBswm+kCtObyD0fsuJnqsi+cnG4xueyLV5UAJ08bGNdbIEI5iRnqJgi2E/5WfnCp5cREUrC0Ztr89ghcAdlmb8gRK1SOuAolCi6r9QoGDc02DGOtm67WqZw450yDna9Z5idlXLyNjJ3g5OR0y8g9ta8q0bHO0DTB0zhhDIIYE7pXuWXzUW93EE3t2pI/KbiVjEH5xjZbYzqHQR/3IoYa4c5hGXDIJabcNePcpl2joq7J5OBQMOb2DI0tpInhHcnDGx8vODs5Od0yctkXryLrkGsM4Q7gLOJsxoFgaEGb80wqKEtCH/dsdoR1x5LWFYQF7OlwGqa5y2ZrkrIutLxYquyNYJKaoZEBsBkxf+0vu22L5Gq7dpqWsHFwl9jJ6VaRg/KrSVkTZYfDiI5UcBNspwA2IBaEK+gJioKhwE0gGqpm8PyhXdZMk7NWvvSuInBmmoWzlQWyFd011zf51drHDpR3XTKzsEK1DcVBQ30elAR0d4mdnG4VVSRwehkJr9EkRFhoOEE9oGf2RiiyVcJ0DbXagNDcgh8M4RPAWZph0M/R7xGjSQeBt4TQ73BenXCPUOQB8txnoAMvCWXCPgxr3IbGgSzLkSYj5MmYRjtHGBDQpY/ROMdwlKMoLHjzvOCyAvVLZfAsdk/HnZycbj05p/wq8ssYSBpo1prIyz56wxVE9Rzt+QaSZAuXrwJz80AURajFc4TvDMHMeaMA45FP8CbIi1WCN+MyMcKohiCg6/YrdwzCts/lck730G7XUW/VaG5TbG2sYXNzEwcPHUOaplym4PpcZ0JwpyMzDAKf+5QjFoLlxKdDMz5Nb1W6wzllJ6dbRg7KryLVutu8uoWD+5aBlo+kdxX9cUpwAgHZOaZZDUJyO2VIanS1M4ijZTTq+wjpecRhTHc7IEBTwpnuNs855HiZEbIZUZlyvW202iFdN3+lW3Taaya3YXbWR7e7jKsXxiiLCD4ZG8U+Al8VV1TsruS+Am5fHxAlonmabXE931qcdlB2crqV5KD8KpKXbcY19DbXkGQZWt2ATjkkjBNkPGseoVtrzhO0DcKxQ/jOIM87GAx8rK+N0dseIwoj5JlgTIL7E9S4fmemie5MHc2mh+VDc+itn6crvkCo9zitROinGA42sL0BHD94F8pcJTMyFHTeRZFwPwn8oKRTFoptiQ7jluWUp3nUBtCeLW7noOzkdOvIQflVpFIPcTTBeDwUgVFrtAlnoDfIEMRddOcPIynqWF3PcOnyABcv93Dl6gCXrmzh0qUh1mh611dAqJKVPMtBBDTbdMFzNtuj3QGWlxq4686DeOD+41herBPgG0hG69xviVZcx3AtReRxRS83MC4nY7pzuWS59AmXH0+hTBHKplKLccucwv8Oyk5Ot5YclF9NfPUfDLfQarcREcJpGqOYdOAFC4RzC1v9AB/5+GN48cIWnnxmDWfPARvbttQwTbTJcmjGAcrCZjMUZYmcM0uecQWBdKYL1LnsvkXgnrtivPX+k7jz9EHMzTRQ85kCDDfQrnncP5OIcsTtDInYBJ7axpikCAlm45bNVaygbLMybAUVQdnJyelWkYPyq4lAa8+2cW1lG2vrdM21g1hcvB/9YRe/+bHn8eHfeBIPP7KClKBNVfkjiOHHDFGI0i9RqjJIXiMiY/Nxz/OET00vCGoCVx8C0z5qYYHQSzDhpJCkPrgM3P+Wo7jrRAfvfWsby/MFup0Gt5EhLwbI84H50DhOepiba02hXGVh6MOfdcq6sIqHu8BOTreO9jSU5USrv6SUhVP1k7IHrr8Cmh1KBm6Uip+N0wJRfRHtmTsxTJfwkd+8gB//qYfw6c+NMEyA2YWDyOiEM1pfuV/4XJsW2VSJpmstCwJarlU/uV2fcA6CAGGgj3ZAMh4goCP36XoVUIwI2JTzCtSDHEsd4K7TwFve0sLJk4dw+NA8lpbaaNaZEkyGGNNJ+wR6QKIru8UGxpw7NEc0bZ3OHJkZNWPX/3KaHb+uaWaI0fUmQvWXc5hQ2XGbly0pQbCy69nEQeNy7HZYyfzk7+ma0+EuadWdUY59wQJOTntbexzKggLJR+20OaFxTTCwmaDQB7QiRaMeYTTsY2lxyeQtPP/cKk7ecRzrVwaYP/AAzl4M8CM//kl84Fe2sJXQ9TYPIslD+LS2qkodEooB4RSoVbeS08sadxQg5zwLIu1XI/p8OBV/eoS4iRHjZ2vuaUjw8bePEdLhNY0iDm1WxwFG746TC3j3O+7Ag/cewWyLDj7oI/YJd/TozJV/ogonCdf3EDZm+TPBKBkzQfBQq9fo5BkvOvUxp9WbDe5N56FEmuljoirI+Ijp+MNaHaOMrl5RZcJhKrOY5kRV+kOlPpSYKL6cr0Pg0Dh1c85908JdwHOhaVWLdqaxJQ5tmyLXf+t/dV6qPHCtoUacdmY4Od0G2vtQFhQEY8LEFg/To658V9WoIzo4O4xKgrmPhJAaDoAo9DHb2Y9k1MDMvvvx4Q89hv/638/gM88Aa0kNAywiDzrwY7VZMeKWxoTyGBHBJgipfLNXNC1S6HhNo0JGwpaFk7QDIfPT/jJA2vldEqJ027mKxSUE7gBF0ldWN7pNYHGGLvoUcP/dB/Ded53G6ePzqEVjpOM1ZMk2E4kC4+0hWo0Gmq0avEDgHZjg+TmCyEOfCZHKO0c8lhohrHLUJSOUpjkSAtljaiBwKtY2wVDtRFuTUcGg1WSd2PjbqOvMc3zCc1FEHAacZI/7OpTtbx27XVOrVWOS3ab2sbOAk9NtoD0OZcJXFUBEMTpJ07QmMQK52LLFZz1AvRWiP1pBf7yNA4fauHq1T8cc4dQ9vx8rLwIf/c0L+OAvfh6/+SmuytXqc0fQSyIUXoROt43xaJ2ukS5UH99EDwEI05bk6AbVHVQFZQsqO2bgJeiY3xZA0hRV9h/XH+nLoJxrxMAExORDE7heOQIngVFQXRPUOO/wQeCtDy4w3IUTxw9hoRNh/2IL6cZFbGxcQl5uE8501nGCLN/AeJxg/+EucqZEo0GBXB2dcO9R0NRflExkEKpxfx2XHK8iMB0ymMRN0TYHoXiq6rmtfm6rdzOCpvEmJYJWVQJkj5aLTscMfHfGNaxC9dfJ6fbQHv/QJ2iQpHrtDrb4sKfGtQnIXjFHlxshLQcowx697hY6cyHySZfrHEE+PomPfXwN3/0PP4qhvsn5LYT1efKlgzTnCzxf9fX6HgZ6jVdD+DkBPEHhB8gI7JyhoBssCGsDLEo8qhqdrwAdchk7Lhhr/nVAF4TxuPQZJy7DmXLwUeDBV1bHJOMwR297Fa2mj9AvMRoBKXe3sADc+5YFvOX0AexrjXDPqUXcdfcRzNBZDwbnudwl1OMRuh0Pq9dWzMdF4bZGhkZenSiN6cqZuJTcR6iuqJTBIbiqgoyyZTg0LdsJzMqa4CST+CjwZJmgcZ4PHoM92uoYdWx2qGCP17ruan61jKDOdw8GbcPJ6fbQnodyKSgTEkGwzkebkCn5Op13GJYIlRjr/SvYd6yFor6GZ8/3sLj/GOr1B/Gf/t2T+NmfO4uzlxoIage4qcBUdw6CELWI0B0P0d/awLwyeokNvZbnvodxQM+sZRkKgtLzBGW97ls0CcQVmDW8HpQ3rWUEKi5IlXrF575SOla1i1HkhflQGKrWCJdUKY75+TkMhttIkhHiWoBWq2byyVdWr2FrLcd7HwBmm8DBQ8Bb7j2A+99yGMcO60MhYVtsoh5miHV+ipzHNEbSH6LMSsI/5nES1JHeAlRGWk2MMpj2oxk4VOt5gqbJH+YBmeJ3CpyqjHB1oZUHyjZSwjWFL8Er1JrhZIrc6bidryOzQU48nzQ5lRFxcrpNtKehbB5/VbwgjANfeaw5wiKGX3Q4aYHzIwTNAhvjy/BnRhiUARqzD+KhT47w97/zs7i6GiNsnkI6afBMEeh+QTCOMMkSRDxrjSBCyHX0IUtZFZmgTMupkIREk58RoNeb3jTAEXzNOIciOWeZ8ekHsqqDVQMlgm2Y9uFHnOcJxARyGCOOGxZYxQTrG5vodLqoN+tIaJP7gx4TohKdmQ7mZz1cOPs4Znm4TR0CWRlzM0cPA+962wIeuOcoTh9bxgyh3W0yDsUIyXAT6aiPgAubonp8k/D1JqAY8b9ulp38YAbTuD+XsMEkKSZoYeWn56F6btE54FzGS0CuIKwl9XHUuOUKxtWQQUtYKNOlOzndJtrbUDbujSN8lVaRsZA/woKv50WDk1qc5yFYbODsC4/B6wRYOnY/Pv+shx/4oU/hw78OLC7fiyurAzrlGhrtAAEhNRrRlQ6HaIUNLLQXkWzKfdveR9RrSBrkSEMFOkRfLlNQU5W+CjWCrgBsu5RS3u31bqZsV1PKgzXLeCnSbAW1OoHpR8hSJgo8BgFaLcaNkxzL+w5gOByZ0hUqydEgfX269RFd73C8ioV9apdjg6Al+Ahl5T3HjCd5qbQKd5+u4fSJBbztgaO456592LcUEfp00RPGuxgiyEbEvzp0peP3RwxDG+h+dw6puoNMAqVOAJTFQSfN858HCZezTrlyw1UWjYWz3YS2YTc1PUf8Z310ZIZOTreL9jaU5WyNS6PHLOhqixrCnFAubaP1+gg3JHyCdgtJ1MJGMocf+dHP4qd+doh64xjW1kO0W3UEtMWjoo/t4QZAB9xutgn4GFkvR9Prmm3L6SrvugiHKAIGOkTP45Dg1JzqJJND0xGNB4hrtLHKo1W2wDRUH9SUV10Ua2g01BpciFRQpjuOooYpJaHxLCfk/MAUd9OmJwSfDliA9qICg3yN8fcRqvnQIkQu3hLGfEcgoAnNZBOh36OTzrC0BJw81cB99x3EvW85gqMHFhDnfLuY8Bz6fZ7EbQJ/g+ObBDPHeWAWoQzaLSPgFUxQTA8tystn4mFm2OwK45aJWJuFYaV1+JdzdjluuW8Rn/9dg0pOt5v2OJQJtXDAB58uN5snkNsI8hofe4LCH/C1OkHUqePqFsHTvQe//tA1/P++5zESq45BRotZNtDiMuPxJsEdImzXsJ2MkOb0xT7dduqjTgAFWYkmLV9IV5ymV42DPHAYOHWyg6PL85gh9IMwQq8/wvpWHytr2zj7Yh8vvEjn2gTdr8nFIOwYv4AhbBJ4BDW3MxhuEsLKtlBpCGKf+xLY1QJdHPNY6PaTEZ3yWGWT+aIfq8U5ZdkQuOYzoz5ACpS1abDdWVmXPsGgt2oaQao3x8jLa3TfKSLydHEZ2DcP/IHf9Q4cXJrFseNz2Lc/Qr2+zXhcQZZdIuTXeR4S42MDxYmkjcA4Kf85J5D1sVBluXlmAiYSSjgMaJV/nal2Ysk3kK5JXPQxs2DCVqptaQUDaFWi6XEdOnUnp9tEexzKY5R0rhxBkB4gPGcR6EOfSkSEa3S0Y4wJg6hzCmfOd/HD//FhfOzhIcG7hDHaqPkxOhM1aj9AUfeR0XFu55le5hEGhA9daq2coFaM0Sh7mGvmOH0ixjvefhhve9sRHDs0h8lgiE6zBY/OdpRkGKUlhkmJlY0hrqz08Csf/i1sbAFX12y7GSldLHlEONPZMiR05EHcMABWEb8iKwg0hRwTUrrgClFIxy0YM6iWYJ6nSNIRQ07odwk3ZYsQ1IKlyVqQExdKiT61Nqdib/4QabGBJFsj2rlNGvYmV8kYt+U54MiRBk4en8eJE12cPjmDE0dbWFoI6LRX+ObRh5ePuOOETjkn+JXjrdiGiPwWJnT4aTImpFMD5jjmm0WNO4hjjDZ50ExwJiofrSwawZhQ9gIet0q2lHTmpgSLk9PtoT0NZRDKE0G55Ot/eoQQneVDThgRQGV8lVBOsN6f4MDR340f/8mL+J5/8nnMLJ3C5Q3CKPTRIjRadI4qeZwEHvp0nUNCT/VRBDO/HKI+6RO8I5zeD/zRrzmGP/q19+HEkZgAuoq0vwZvTBcaNbiCT+DR5RI+Qa2NhC5ye1iaYnYvXFjHo0+8iCeePo8XzuV00sAWYbhNFrWWF9FLYwwHdLIEsbIx6oR0vVY3bnnQ7xPEgQGznO9kQs+tj2iEX0jI5eMJgWwzC+S8bflnjZsxxktlJfQv57jOmbZBLBeZ+aAZEqTqx1u5u8qPVjG6Q/s6OH5oBvsWYvzhP/heNOMR2nW+dajrqsk2g6qOq3U7wniwjbqK8gnCHKLMUI4HGI4GdOXA3CITLL0FhCEyRmysLBklGAHfTJjChPmYUbIfSp2cbgftbSjrtTegi9Nre3aAQGibyaWB8ioyAmiQtOlEH8R3/4OP4b/+ZA/H73wAK9sFylqOBp1xbVSgRtc2nHBZwaEhgGSE7hZhsYbRRor/+etm8P/8U+/Bg3d2+Pp+CcnwRWQpHSRddZjp5T3iqzlfxosCXlRD3OgwXjWMOa/wGpw2g7A2i9JrYWMzw1NPn8PnHnkCTz6f4qEngVFpok3wyg0TYspfpttOkwKNRhtl6Rn3XBSEK92z5/HNQO1r8F9tEjOeyjZQuWFlZcgV6yOdLUesxvdzxm3CbYZMPOKI2+cbQpYT1lmKmWbI4RjpKMG4P6QZThB7albUQ6tWMmHIcPcds3jvu07hbQ8exsGDNSYYpC0TKwG6rq6yJkNMCPlCGdplYspXRwS8OggQf1WRmzFCynhknsdzYqEcTHgMOR23+Vrr5HR7aE9DWUXR1HeeeW0vZvjYq0QA4UWHnIf0vV4NfnwSn/p0gu/9B5/D6nqLwD2CRB/bYsGDTjbz6HSbhHdOBzdBvVMjsDaRjS9gtpXiq9/TwTd+/Vfgne9cxtoLn8Cli2egjkoWFloYDwaEIvdBd56XOQOhTFgGscpOB3SjBA4hSN5hNKbPJaCjeMZ8/PMZt/Gki88+2yec1/DZzz1GWPdNG83kqIw34anNEPim1qK6m2qQZXWCVt1MjZEMUsw1ujK/nC8Q81z4tqKLDXTUhJ8yG8oJh/rQWPJcKfCcmZIS3oiul25brwcKOXdKU62ibKG2kfd5fre5gzETCBDKwP0PLODd77kXd94xj3Zjk85+bFy2SnFMsj4h30PJ9eiLebyEMSPM06tCJ6ZHl9B8I1TbGYzDWEUYXTllp9tHexrK5m28tMXPVNGhIJ2KICVXCmSBXpNnCIV78QM/+Bv4rz/ex/4Dd+H8ZbrbWpscTwhwQowurV5rYTAkkulCm40QSf8S2vEG3nZvHd/z7X+OjvgZwuk5cmQdzRZQb0UEjWrYpaAvJtC4GVMqgi5WuSc+AUyolaWcqn7X6BxbhGqL4w26Xs844WEaoDZ7CMMsMvtf30hw/sIGHn/yPB59bB0vnOd2eYx9GlB1TUXKodaYRcT4FzzmIpsQyDp+XmJFQp8TCVLjmrWmKfqgcigB3bV6SOEShO6EiYjyzNUnIAhlW2JCsCZZCciJOnDlpjiB89RXoMpwq53nbQZCnAytEaz1OvC+9zVw5GATd546ghOHl7Cg3lvknLMNgnkLrSaPoRzwPIy4Fzp5pSByzzpfTLTisslrKEvt5HR7aG9Dme4vzGnfKH3UU8hCBkIx9VrIJvswHB7Ht33bL+DRR+RuT2Bz21Y48SMCIioxKEdotjt8dSd4CNqW2ifuX8Tb7mzhG/7su/CV72pj1H8UzeYmWgdI5DzFCxdWjNvet/8IMoIZdMi2o9OSQcXCckJO1lA15+hQCTj1TpKnRCWBFwV11OKm+Xi3sXWF7jciaLtMQOagauBb/RArm/owGOIXPvQpXF0vcO7SAFdWCwxU5I3x90LSLlA+Lt2vLDX3qg+etow0g/5NPGSqpcj5Sih2iqtx0SDkNLJwOFo3jtqs40eMv2wsZ3gCJY9EWTLGsXPzPKZiopbmUhMmKuvMbap9DpXkOLK/hTuPLeC+O/fjvjv24eiBNjbXXkCzVhDgSjhSjNI+xumQ21H+eYlGqHgqQXFyuj20x6FMiOSEE1UGA1OGOGfI/AAJZpEWR3Hh4hL+9jf/EtbWgSybI4AXMaLtNE1y1n2sjzfQmZ1FOeLrepqhyVfuOFvFH/19h/B3v+XPYO3CrxDmA0L1Gi6v9E3Bhn1HjhDoXVP0rVVvmFIHE/VYTaAr0FYTNGo7w5aeqKuFNpWuIPiypKDDLQmzgMsWHPboPtW8qFpr47H4M3zNn6XnnSGgZ1BvH8S1tRzPvrCKx586jyeeOocXzq1hlcfTVzERHkPuMWHiuTBlh6dF4tRQk0e4+qIp4TdRfHyCMMi5P0GVbwpFhpi2V/CWvEDF1Gz9xIwWX21IR3EdGSeoWJ8pNcGgMtQitZr49D2em6LH4+yjTHI0eX72E9AnDsY4sNjE7/3Kt+PAUhOHCOx6LUOSrCJJ100P4I3aBEGpPGlaeLp66+4Z1yrwH3eivww2bjxBZlwzbALEtwAtwOV1vs2bgnlj0FEI9tXtr3W1MZtgaTsaVzaOmc717fI2DnbcSkvb5afrTdc12zZvJdU+nJx+e+3xPGW6PdQJRZVG4KMaZQTyJkZ0d0W4BL92P/7bB67iR3/iCZy/TJjEizSAnmnCMkv04HtISkKYbjPI9NGMcBhdwuHFDP/6B/88wskTaDcuIfTXuC+BQ4/7tE0IQkmQsK60ksCg06051dAMjAwMzINt19AytqlMSdsLDCRU7bhqfyKqdZiYCDc2T1k1/a5eXcUTTz6Np89u41cfAjYHBHSfICWkVU074nEGocBew/pWD2Gd64rVYYp0QoBiCI/nqk6YB1t1RAI5z9+Ec1QhR+PKYhCk1bynykHbmnc2L9q0kaEsEcbd9/pQK3pqj9n8VlB+NJkW8g0iKFIcJJzvPb2EB+5dwj13tglooNUcoEagN2TbC9p/BpW6LrmtjAljNhmbD4PNbszEAUxgGXLuoQyYoDYQ11poBG2kW2rrWpFVCqUskj6PPeH8wuRnq1bkzjUwQRBXAsbUY1JnYqoOcfVmoOvLbagyktkWg4EzBwIwl7HrMcEzQ50DzvdHvKTVNXRy+u21p6HMw6NhIyRzeSd6z4iv197GDpQRP4gf+FdP4ud+6QI2Bh1EjXk+7COCi1BN5VQjusCEEPEI5QDtQBi7hq98zzy+9e98DRn7GF/9X2DY5tYpPpgWmASocWLVA2vmvg5ZSNshg9megofxSNkEjB/daY2utU5nrtIXSZKinzSwlR3Csy+O8OijzxHUF3DhQgFyGMOEyQhhu3jgGLaGY/TGdLIBY98m1AirrOAbxZDoTxYQT1T5heeSltPk+yqLgm5fRed8niubxCjBIPyYIKlctOKopELvJALaS9ytgE1o6QNomdBNFzzn5Rba9TEO7QPuvsPHffcu4PjBNu4/eRyx3jBCQp2JBlRbEgO+JaiA4shksaj4nvJPanW67UaXiRSwvr6F7fUBju87wb3xXDEOgmk5oXPnesSxmfYSKf4CMONvq77z3in1pqX1CdYKzAxq5N84biM5ci5fWhibwITJuGkVy9xZzsnpt9eehzItn8mzFZR9FWXzNlUGgI55EUXwFvx/v+PD+Ogn6PbCedTbS+iPN+yqOSFHx1xM+CqfEhyEWJewakcb+Evf9H583dcuE/afJ5DPMfQMuA2U+SCbBnu+LFDefWmmQK7CFMztdkdZ1sj5NiAQ57kcqXoOqfFNoEv8zNDtNzjPQ69X4NKVAZ49cxVPPXMFFy738FsPT9Boq2ahT3TEdL5ECQHXbLU5fR6r2xndp/K9idOS+OVxhmqpzgQPBe238o0FYG3Bvg1Mf5cqzqZSHMSXr494ShRL8xZhXDVDQXerfPWICUKRbSAbr5jrVdeHQoYH3gIcPTSDe+45gTtOH8DyUh2NmvbJhLDso7d5Gd1WiFYtQD4eYdhjisNEd25mBuFsF2vnnwOjahKtKKwR7jGBGkBtiCjLRX0n6nwak6yI7pIpNkhnfB2+u6+HxqsV9I5zfdxuyP42f/fwE+b05deeh7KtzSYnw8cmoFPyt0xZ2NRbQDK5C3/zmz+MTz7Mh7axgHpHUF43a06y0IDNCwgTWa9xiVaQGSj/o+/+Rpw4usq316fQaqwQyn3j+uSwDJS1XwJIet1QNhmiU+087Ap2uyqb7Csvl35Q44Ky5svtB3TOG0MCTJVN6CLjul7FYwzGnikPvd33cO5CD59//CI+85lLuHzZbtrna/+gl+Naf4z5O44R7ERsxhmm2jRdriAtk0lQN9VRLCmqluQU5EZtXjJ/c7lAzaQysVIbJAXPXy4wM+q5pywegVm9nai2IkGdJ8iSLcK/z/inCOMMW/0CTB+wOAfsXwxw7PAM7jq5hHtPLePYgTbuPLGM0foFDDcuI5qM0W3GPAA6+u1NbPauYv5oi+dpTODzmsjJcn+q1VgUEXJGJIz4W8enPGtBWImpSVCnLjfY5m8e7I6LlhOWi9a4rquuBX9qebOeHLVdX6A2JUfMG4ST0xen2wDKelUWlJWlwFfWsEc4BBhP5jHITuPbvv2jeOjTXDTma3prHsN00wBNUFbv0xM/QRzwwVPNPAzRifv4oe///6DTeIbu7jm0G+uE8nD68FX5vVzPvOrKWb4OKBsg82F/iRgXsz3BwGZTCGhygmrrWeOap0ok+hc1lAWTIc0S/mJ8fC5Lx+irdIbXpgvuEOQz2NyI8NyzW3j0kct45ulrWLuWgJ4Tj6z0kZBDKh3XiJuo840iDmYI5rqBdJHSmatonHmlTxiUf6whoaxGoDLSVOclSAhjlQ9n8OmK5bKZiOVlzP0T2rmukRpJCumQIwZlo5RYT9aQqcjcuI8iSVDjYe+bBU4eDHBoIcbJAx3cf8cBvP2eo1he4DGNNkxNSjXTGjQSHvF5YpLr6w2AUPb9Js+TLXpoK8koW4XzlLXiC8rKapmCWcUBDZR5Isyl4DHzrWOy0xKeIK97TIknYSxXrdb0eOwmu4ST1YKgg7LTl6I9D2X1JB2o+BZfV0sQGFHfVOkdlXPYGh3H3/ueh/CJT6tCyRKCehfjfJuusmbylE11Y7q2TquOnK6xFYyxf36M7/vev4DZzvOE01mE3hVif8yHTw4qnmZfcNQ8mISVcVivF8q7L5EIoR1Y+LZoI9UAvpr1VLlnScWS1TNKThL5gUpIqJqzYCxMZ0iyMcbJBOQ5Op1lpAlhNllEu3kccXiIQC7wxGPn8fgLL+C3Xvw8rvZLXKWL3togh7mOaktH4QICny5YPZAwIbAgyxktCyTBTUAyVdsFZbVDIjAbOPPtg8emHOeS8/QxNiIoa0GD69BvjxL0e9u8PtvoHpzldfFRY6oQlHzTGW8jG6xzSKRzlwfnwbcXDheA++5s4m33ncKdJw9htqtt9njMl3gOBownnbgpF85zoLcmJrhq4lRAtXEXnBl/k3fM35xuEhfG24jxgtrVLum8d8C8G8qkvjl2Lm+GDCpeaFz1a7z+Trel9jyUlXeoNiD0UBUlnQ+drsfX+gHd4Xr/CL7zuz+OT3+Oi9YO0Jl1MEg3DJRp6fhMqdhXHzOdBvpr6+jGKe4+WcO3/e0/icP7r/FV/hl6vRWiRa/qKm6mkheCsh50OabXC2UB+RWgrEC4KLtCsBGI9YEviuhOmeioqJvCaMB4GGxwSKcKQjGMBWqPwIrQH6gh/i5300YyqnF5ZSV0mRDtQ2tmHle2r+H8lWt46unzeObZq6ZlO/7EyjqwPSAQZ+m2PSZanrq/UrVxnnMerqBroFU2eQ4E7ZSngbA2wFLWjs4No8Qz6BcEJFfS5IA8jPyQCR7PG0E85MSUnnrC45wQqHzvoZsO6NrVZ+EEG9cuEtgEtPbJ9VV9+/Ah4P77juPuU0t45z2LmO9O0J1RZZiCbwwbGI5WTa1MlaNut7kfuVqT7aAsB51rxZ1xUvwY7DWU42UCZIoUyiUzMO5VE6MmQTLbsImSORgD9xvfdJycXl23AZT5oAZ8mPjgF6WcMl1TzUJ5rXcY3/btH8Mjj3OZ9hHOa6M3XrWtmOkDFR+2AiN02zWsXDiPWRqldz7Qwl/+i78Xp4/3MO4/hlZNXfurBIHKAtNh60EVlNUgvAHP63BKO1CuHuwpjI3suEDsM2io30UhSNP1GZiEdPJ0n/qYJSjSxRWTIbem0gf2susYTSB0Ap8uEE2eKzWoFJiPcFpXVbeDsINs0sTqRoGnn1/DI09cxHPnt/Hwo2OkXF8ho2tW1XV1Klsoz5jnQh/0uHUG7Y/HYRIqZfBY4CWDEZpRDQ0mEKqcU44ZT7r8SNkscYixPgAyggK779N5Kx+a47atjxxNvsUoH1dvQXmhmoEDA0emS6hzJ8ucffdJH29725246+6DpvnRdjtFszlCvTZGv3+ZCYMa8uc15NU2cdO54z99J7C9k3NjXKIqXWKzIwRqOW0dCaWVGAu9j9njVMLMa6GEyExzcvridFtAOdCHMD5Y5YSvo4RyGcYY5nPYHB7Dt/7dj+CJZ/k4BgcJlJhhaNojzkYF1KhPSZhFtG9RmSHrb+EdD3j49m/90+g2n0fknUfsb/HBLfjgNvksVlCmqwsEZT3k1UP8GvSqUJZ2/+bQXMld882+BS0BW6/ocm8KlTOcOjkBRRQ3qrZpS06oUwBPbwCEbM63AJ2jjKDPvBYdbAdPPncNz53bxGceu8DzOMS1NYKWmzbMIszr3TZStZdM82jyjbktj9uR+zQdAxDEBnmMg0+r6+U5V6UjZhS8gDib9qZdFOr+yqfT9XkddY7pXBmnsMZzzvOkrqfkxFU1XkMdZ1SmSNY20GK60OTl6ahm4T7g3rubeOfbjuLOU/Omy6yYCWhMB++XCROExJQoKenMVc+nE7eMS1cCINirvLvHGSoeSNts3kwk0yZ0xqA8dr6hqJp6EKsTXZWtrq7fF0rV7Z2cdmuPQ5kPC58HlTdWk52letCI6BQNlOenUP51wiQklA9MoTzYBWU5PT7cgjKBnvU38Y4HgW//lj9JKJ8llC/wYd4mvAiUQl/5BWU6Kr3KBkPtnfDhQ/u6obz7Eu2C7s74DdN2FpeTI8AMlK2ur6GFtG3BmvGkU9yBtpnG88ZzFmYdRkPg49IMtuQEAUnHmqOOWnMJvVGI9S0fV1cKnL84xJkzK3jm2Uu4eC3FUy8SiDPATIex8TtIRzUkiRq+b9LN1k05ayV+6qk74LblNCcqR24gmCHN1cuJQFgjAFumASc/qPO6quU9z7QxYvKnCWU1NmWySHT+OS7n263XGH9eu6xn+h/ME9PQHxa6wBzj9MC9MKU53vqW4zh6YB41Xmu1iqc+CutMLfob11ALCV+mAWHMbfp82yiHjB8dOaE85mU2rpzzTQt+PhNBvmGkJs8+Q9hWgvbKj5iDstONug2hPEKppjgLQfk4ofxreOIZPuDhFMrooVavoBxxnQmhrJfwIaG8bqH8rX986pQvIvb6hBe5UdCGGSgr/1RQ7vPsEnav6+s7L415oF/tElWYfTnJQQpQHDWuWW8Mio/cnUql2HXNK7fJB1VQXrgqWhBuykct5jjk8gZ0KQ9U2SAaF9CJvSIkwNqIowWCdZEus43N9QIr1/pY3Rzh8bPn8NSZy/j854GVFQuwRnMehdfFOAvRaM9ilBUY0p2OlT/OOCmvO6ypxTwd/xavodqS5rjir+yL0idkS1PVuykLbM7TNEFR4FVUHNW4kcpfqOZhqGweulnkdLu07dEkR81kO43p2wlpJhx3nezirfefxD13HcG+pS4atTEOH+D1LDcI/22MRqt06nwV8HqIY0K7xmNpM+Ee5RgNeKp4+pSwhHTwSoxzxlO9kStT45WkD45OTrt1m0GZsJFT5qvlsFjA5kBOmVB+llCWU/YrKPO1c0TPS3iXfLAslAfIBitTKP/RKZQv8YEeIiBIDJSNoxSUCa5A3RhVUNYL+mvRrkvz2z67L3MZDZhUzZfzCAnlG9tiXfpQZbMQBFazrgGaoKyibYQvz4SOOkeXQ8FQ01XcjYGoE7RVBYQL0Nmq/HLM89Cm05wjnEk4tdNBJ73FxG2Y1XDtWoYnn7qGhz9zEU89u4aVzRIJE7FewoQjYpwIYb/Gcxiq9+oaUm5TtSnjGl//mZiqQomsusnrJfTUsL/y0gsCVomKp7cSBQNl6/7Vyug24Vuq4ohHV+8T9Mpjz7gVQZ5OtkwGaOnDpzekk75mqqLvW9KHwoO49+4FHNyfYt++AIeOLGBxsU63PkRebDCRWCese6Z5Vn1kVKiFHmK6f3281DcM8t90c6WE+pXkoOx0o4Jv+abGt0/H96T0Qct8CDMfZfjwqsEdP0RWNujU5vBrH34BK+uECl+tTREtwifkE1aS5sQx14noBAPO4QOc9fmQAu//6jtRizY5nS6ZVDLNYwp2Znk+ZASCKekgKBsgv/JD+erSA6t1Nawe3mr8xiDdMI1uVvA00FLCoXhyewZt/G0+8Jkl7ecqEzhdLlruXseeM0EzpcF0TMYda1mbIaIzGtEaRlwlJPgjAtGfjDHJtgi7VSTjFbQPdE357gZf/e88fRBf/VXvwHvfew8OHaqj1eH0Vh/1Vmo+0A1HG0iSa0wIRwiZENZqPsE2Rhipt5WauS6ic6lyeUpgGeiZzTUw5ZLNkFfRBHs8cS3i9VeiyV+qAKOijnToecKl0xAHD5wkmwP0BrzeURfd+VmUBOvTZ6/gVz96FU89t4YnzqzgxUtXcGUtx2afeyw7iOv76ZIPww9mmJ4scj+zKCYNDMcTDOicc+X18NzZM/vKclB2ulG3AZT5bBCq16GsfEdBufmFUOZyJV/fDZTVXob50k8HSKgHhFuZbU+hfNcXQtmUW9UHKD5kcmuByrcKhoLya82+0AO7G8qvFCq9dLr+Gngyfiovq1p/Og8yzvpQZWBtYCuHKafJ31OMGFiYkZzjFnyaL1QbtJvtBBgPeV4EfF+14+hgSWg/4jYiLs9X/CuXnufhZ2h2Qk5P6H43OZ7gvgf34Q/+obfi5Ok67ryricWlMVqNDOp81S957rJNgr1nOoX1SkG2MOD11Z1Urn4T6VjTkSm/bI+DcVV0dcTmDWB63lU1nK44yD3TMFGNoBTgW406ms06nn/hjPkgN7s4R5Nex3YyxtaYCXOzi8WDHfSGPVP878lnCvzWw5v47KNX8NzzV3D12gQrqypqd5LHvsC3qyXeNwQ6kyCVvZ74qqATcf86r7oLX14Oyk43au9nX0z4QBKutvSFsi9UiYHezXzom+Ypm+yL/fbjlbdtsy/GhABfwcuiSTfo0TNuIRu+iHe8dXf2xWXEGCOglfTzLmFgSwKow9ZJuKm9Wwdt8nBfi/TACjI3PLjm5+7LpvEvvIxqj0PBrl0to3cHDnflVV93c9P9maECExdTeUJ5BxZ29sOhoGfxHMUqm63SESmBqwZ/9KGNkOQiqj3YancxGud0zQSrPtbFPKe8Jr3+Ft3pNvYf4nkvify8ht52jEsXCzz95AYee/Qynn9xgmtbIQZJhCRNuT0P9UaD16dB+Cu/30N/qAZ/9EFW8bLBJI6Mm+kdhXEKGH91MlAQ7GpIyXQ4oMNkOHD4ENY3NrC2sc7453TADdSbaoObqM+YmDCB9kxXVnzDokP35cgnKchxk4CcPlnDqRPzePtbj+Keu5axtBQg5j2mquLeZAtBscbd8K3pFeQ+9DndqNsAysSHPrzsQFkf+mqE8sK09MXuPGXloU7zlKdQLghVQTmeqCbZObxLecrf9ifRaT5HKF/ka/uIDynBV3ToimxtPvOxTHnKghpB/drzlHdDcreqS7b70n3hZTQOmcdtsaysBwY6YpMVYcY1bafE8jQIvnafKjan7qCUV2tbgbPZOQoWgj5SZdpzNRVfUzVl09tetQ9OTwnTKIpNBR5VclE5arn0umrp8Tz3eltmn77fQi1c5DlfRp7QoW4F2Oq18BufuoZnzq7jiSefwqXLqmHJpXk6FXMVvavR8RYqGw19ZGUwH1ttPr7KQZf9Hup00yEdvGdqNCZcNmH8GE/GeTQeIYwjxLUmjyHm9faQqmgbQ5n7aMczvInodRlvvWvxXYrDjNNG3PgAcahWBXM6b2BxEThxooZ77yWg7zmGYwdaaObXEE0GPBdyzIywybe3Qb9VzO56IskTZm8gE2wlJDvfXkNdG41VQ02TON/AXctV21KQdC2t7JRqejU23dd0+NKgqfYeeTntTNWiO7+q+2k6WX/NMTl9sdrjUK7KKVcf+lROuSoSp3LKcspVkbhpOWX0CQuVvuDDx4eUWDKOqFbylbl/Ce++P6JT/lNot84QNOe5zLa9ccsW96GG6gVBPsDe0AyrF/7Xrle7oV/90pnH9iUPBJffeWCrdauHqFru+tA+kAK4ltB0HYfQZMer9cxwul2zNcHETLVL2G3ZoZWmTx92sx6nK8tBDlcfI01Qkbcu0sl+jLMmtvtjXLi0iqefOYfHn7yIZ54Drq4yFnwJIer43DNuQZsTFBq81rymAmxKZxuqyB2Phte/KNRtVWJqNMa8sDTfprKNsqtUKUUf6fReNOG6ZRExwbUNKim+5iOiASpdu2l8SdkxfSYw3HVI1KcZIQ9TKmPffg/H5lv4n952B44v1HHk2CKW99Hh19UhwiqP6RrjRycdpkzMCGjGQxV1TJaZ0F8Q/Yxv2GYyRzOhlgB5kzJ+agCK8WIclRXFg+I8gptvBLTyXF/3nhIAvR0oXnL9um48PnNdVJ2cP80UgV/XkUHnnlvlGnao7Clz9+pYtfPq2mk9Bl2y6S/zIXlnqO3bOdV3DJvIO32xug2g7FmnzIfeQDlWu8EqEkcoDwTl3ZVHVCOtKqdsoZzRTcZ0VHXe9MX2Fbzn/rqBcodQ9oMXGTa5GzrDScNkVagmoBpxVzvC5sHg06acWqcvXRM63yCmc+a5LQiNnJAcjX1sbOdYXc+w2ffwMx/8GDZotq+tw7QTnZP16gw2UpnhsIlByusfNejW6Zx5GdQeSJaOzbAk6RokqqDMi0TpXhGYeM04TZVdaqGypThNbxUGykoCBGY7HoREGyFUlDnGyRhJYrMqarUaZsjyWm+Eg3PAkSMNHD8xh5MnO3TTXRw93sLCYohUTZVOVKJjTLgqv5xQ4z2rCigeYZ1jw+xHH6sF7FB51TQPJvEg7Pr9PkIV+ePBqWKLElHdcaZTB0JeDf9XUL4OTqvriWs1rACqYBNlZdfYZLdKfKdb2hmav2Yo4O+8fXG+gTLNkEk8nL5oOSg7KN+84rkb0+mquylVHonrXdSbJJzfwSgNMRgFnLaIs+fW8LlHn8fnnziLF88lWCPH1NOKegmfXYgwIMhHwxx5RkB4TV7fWYYZhHSRg6Faz6MEMTXkH8jp5bxveL15zX3CZooj3kP6a3/vBE5TO9MKKuWhrAVdbbVJoiJ9k4gOVh+Pg4KAB+bI+IN00ccPdbBvMcIf+gPvRTPOGApEqomoj5zct5pDjf2Eb2iqMaoeU/iPiYjevQwAtWPuTx7Wj+ic+fanyjQZXw3zgvFSiSMFdXtOmdI2ihkBWY3b6u4KvNcNzG2owG7n6i1B7tnew+YUaDPTccFXY7vhbOdIgrL256D8pWiPl77gTaXUWjencQK82QK9LgZ8NVSRuFn82odfxMo6lzOlL0KGjA8rAc7XWTWArtpYpkIAH5JJ0sfhfSHe/9X3ohavc/4WAx8icyPqddLCX/epvcl1k9rb3ulLl7ILagSWesr21F5HOTShyHum3eUy36ZDHGNuNsRb7j2Mr37fffjKrziFu0/XMNtZQbM2wYUXCSm1KMer0GkUmG03OJ2v9HTBCafruukl3db/owfmdU7KDKN8zDBEUCcGVWFGlXD8Coj2CquEh0rnKe9ZH5PjQNtuE74NhHSzRRABSwsYN9sYcv5GUuDKVoHzV4Ez5xOagRF+8UPP4vGnnmMCo0RnmYnOPoRMNErfZodFTHzCosl7mIFvDrqP9V95+AqquaSOAxRvm0Ot0uMhp8WmjLSYqjjLHFjAaoI+PCsoq8YCU3NNVpXyunm8pqy63gYMkO0y5j4397qCftuB+T0dN+BXUAJFGOvJ27Wg0xch55SdU75ppTzbRp3uESrHTGTQdakNDH1ohKozqw2OIkSSqbp1QKerxvy7UP986sBVXTl99pGLOPP8Oj772Wfx1NMTrK7aLA7w2k4CuuX6HFJljfAaqbJJyWut6tqFccsjXt+qDRO9hnMfur6lPiIy8NVcHFNOb2ggxEdpQnAXvB/oaodhia024R/xHuQy6t4woItVWymxnLDKWBd944RVK1Tt86vI5YP3z+Hd73wL7j9xGItMILoR76Amtx3p4+Iahsk1jLJVZEygml3eq2ovW7kpPOYoaiOMmjyaGo9fx6BvHtwx42sqEKntEUFZBsLcl7o7VezR5pGbpkfNUKaCp7mwpYcsJKb3MQfWRWtof+uPXUZ/7bi2b3JUrJ12+iLlnLJzyjetfCaIyZiv7gSOSrEVvCbKc9VXL+Wh8jJh0NvgeIl2M8RMK0QjJhTpoJPBKobbKzh94hBOHd+Hd77tNL7ivUfxwH1zmF+gG062sbE55LVbI9RWkApyamdDNTRDOXTlCxNndMy6grast8BsgewRzuYDIBMK1S5UUJ6qsjxMKR9S1q9x89yG7p8a762Yy0eTGoKJEm+69UIlc+iAfYYgoLNNsbE9wbNnx/j4b53DL3/oMSQjD+cvj7E9ZsLBezanG/dqTYQNOvIWARw3jHlQo1uh8pz5z1SU0f1bJNyfbQFPxQNtME+FCQKyKSnD81eawMRIzpvxNQmUnhuBXNkPlUtm0D8rbsfc+2aU47rPbdDztpNl4vQlyTll55RvWulFPOC5FYRVnM488PoARljolVrllGu1Bq8xTA8iKmmh9jA0P1QxPDrG0Zh4UHaCqnGHvL50t5uDjAnxCBu9Aj/z3z+HzT6wug6sbwF9mtFMiQD3JkMd1Vu8tlNnaYaCVDVU86YF7wG6G30L1Ou+HCfh5hNyAQE3HjLhZjyVdeB7dS6j0hCitdwnj4PH5vEe00c9QI0dDXisIwN3Gdx0G1heAI4encGpk/MMXZw80cGJo01O95EOr5g86QZduccEJBsPUapMNw8gDHLEdNeKl8UwnwGGwlSSUpaNhrz3dY+SuwVX4uNisjsU1NBWg3APzbmXNJyOa7nqvjbHxw2Y39XQzlOvNE5fmpxTdk75JhavGeGXpYSPSnxx3Kf99LyYvwm8cQq1q6xrG4d6dVeTmdaZxhGnmdp+ei2n2y7VsBGvmbeJRmOEBXqRA/tD/OGvfYAu+gBOHathaTZBh4BTO0g0y6qIiBphGRKcUVnyHiCgpm5TCa+ubGDaGJVHVjsjcp3K280xLgjYZIw5wq9F59rgfVGj41Q2hfJi8jRBmiSMoxouKunWJxxqW6oJqNbwuqbj22hmDiO/gYtrQzx2ZgUPP3YVjz5xDk89ew5PPHURrcY+TIoWatEcE7AW8oTnLAtQjzmt2TUpjHG6Skh0L+peNY1U8QBNXjkP0vxmxMxtqueEKYzONeNM1nPKLmmZ3bczny9NsI5YS2pfu6c5falyTtk55ZtYgoM6OuXQJG26VafBJITXgz3DGhdcNJzO4bh53dY1Eng43yaU8uER4rhL6Cv/tU2YzxGWTVy+vI0nHjuLZ59fw0Of7WFrAKiTbOXbyhVHNRVMbvHqxnTbI4R1OnEVVg49ZCq1wX35TCC4RbQ2x2gQyuKtHGnG+OQ+9x+obHyAVJ0SCIRT918BTaHwJ0hCzpfzpuMMJkwgeA9HdNTxZGQTD7rp4weBB+5u4YF7j+CO4wtYnKujYaKToEi3EHEh05P7ZMD9bSHnUOW79R1SZ4TRMueqKPgcFDQXKooYNLhehGTQo5vPTeITx6qAxQQlS5g4eqjzmJUo2vhWQN41NNdB8zV0+mLlnLJzyjexCE5eE/OaL3DoeddQoCVgTSCwmBpyXENlH+wa0gFqXK/vSiCVR60EUx+f5HblAgcbmyiGfMWnFa/poxpJt3+mhjuOzJk2lr/qfW/B/ffsx76FDPWwp12hoPvMsxGKvI8jR5YYP1UaIfAIq0BdcYUxxkmGAYHc9NRHYdM0cqTSGBlhlvBeGhWJKeHh0c1fd6ka2LxrBSUmpXpgN/HXP91f6nRA/QR2CMsGIephfTPFU2cyPPSpVXziM+fxzLmL2Exi2oIZzCzfRYR3MZowEdFHwFYHUbNp8q8Vx4V5Jnp5TlfPtwuem5laG+2wCX9cYLjZx9zcAu9x7lfPkBIOnjdlJQnK6nZM5blt3PiPF0nxlzM3Qx2Pjs3pS5Jzys4p37RSgqY8UA2t27oeNMcQ0ng9nWENOc8kkNUyGshtW0hU+cKqcm8SUA7rdTW5yiXp+PJMNedyCxy1ak9AjYoaxiVD4mG7X+DClR6ePnMVTzxzGecu53j4UUCbiFuqos+EPldCUkOjNYNOcxEbV0g77qfgvaeuoZQvol66A4UQSAhzJRL6kKg2VNSxgMr2qmSH+jPM4i27nml2tcbQZLxVc1QmgEdNFxszIVHj+0m6juF4i+dLbVbbnlZOHOngLfcexzvefgeOH20hDtXT9zV0myPMt3O8+MzT2D/nYbbTtaZ2a4x8kPP4uXK7i43BEEPlezOSEROQSNXVed4VQtWSLCyUtdPqHO84ZV4DU5TQXBunL1YOyg7KN63kiMVLQUYP+O6g94+XQlnTOb57WcF4CmIDZFNigkDT0FwnU1DNlORQk6ATfSjLB1yXb0u85l5cwzbNNqIWIgLaDzt0mHVsD32sbubY7Pk4d3GAR5+8iE9/9jwur3D3fK0K4y76wxwbWwUW99/DtzJBOePdoHxndVfFYZna/XDXplQEDzScBo0L0CqaVoaCMsFm2lBp0B23GdSoEx0u3870PhbV1DrfhHEjQJMNJHmP521MaNp7F8XYVP0+djig+1/Gg/cu4/jBGmYbYzx43zEk115Ef+Uy04sMM3XSnPe9vnhu8w2ifnA/nTbPBe9xfbzUR8yStjpVK315imaD9z2PRAmEhbESQb0tCsoq0eGg/KXKQdlB+eYVz32VTcEn3U4zmkJXYTrPnuFq+lSCg2lHQ9ffBjUadf23nJ6yNZRFpSDw0C3L1ZYZIcfrGkVI+bquctKlR5irJAeh66v6dTCDwYjzizbW10s8c+YaPvu55/DU0xdwbaUEDSdWhkSvWU+9qdS5rvKj9drP7am1LDpNOWVlpZhW7bgv0x40h2oyVWA25wAx7zEFtetR5z1V593F+5Tr5VyPd5o2QBfOgZpP5aF6BOL62kXeqxEadNOj/iqSPjBHE3z/XcC9p+ax2AHuObkPD9x1FMuzDRSjLaTDbdSUh9yMscnfFqzKQqHLDwpGn3E2CYsaVbLn3kDZJIKCsX070bVxUP7S5aDsoHzTyuZHKrwUtmbMZFNIN96+u38TyqayhD4UShYcO+NcVt1J5Vlq2sIw3xyUX00YF4Wqd+d0uHxNJ5ijWkzQEaZcKiEJxwlD6qHVXkaSch/ootXcz2XnsbY2xmOPEc7PXcSjz53Dta0JrtJFq8hdQrjrA1tU6xKaahpWCYfykcVU5XfnjDUTB8bBfJMQ4Og6OYfx0jjvY9jGg1SsbaLibTpk9f7N+MmpK979wQCj8TYOHZrDeLRtOoOthz5avLfVwt3W2ga214HDB4BZgvnEEVVaOYIHHzhJR71AZ02UZluYa2W8/3nvlwmP0xbXC0MmEYS8XHNBt6xLYe5wA2UbXx2TEhMH5S9dDsoOyjetdNYEqx3+Sjyfu39WHtkufV1aRq/Qah3QSK5TWQdynr6qEPOacZVExYG5MC8ZIUNYRm1E+tAV8FoSfuk4JYh4HSeqFKIe/1KTFxwQcOpYN0lyhIGqQDeRpgGXDxH6Hcx0lxB353Du+edw6eoGnn72Kp5+foCzF4HLq8AaAb09DEzHs6UcMLegA1UHtrarLWVZqCnROc6r8QAEafvRkt6YQ2UAF4gj9aCiRpZ4bKotSKtcj5uEZs042v7gssn7VYmKjIlIMuZpUJ53s20a+R/QCU+8IUbZCoY6Fu7q+Engne8+gbfftYj3HA1xoFug3aoxLsq37hkwK6hXmHqNz5augs6fjoHPmR1Oocz42jcdpy9WDspfDJRJhoag3LuCdxPK3/EttunOgFD21Ji9HpDyC6Gs6Q7Kr13ytKZBG/tTj/50zA7tjfvSadL1G5owMs6YU1QmV+05+GMDZfO2zaDXfK2qEgbqBDbL1OC+xuVgVUtO/QFqvqDI9XhdBWaV6lBWtGTcIZcV7NR+9iTnNjLee3lOJ00XHdS4/ixGaRdX1wI8/ox6MLmG517s001vELHKilA70HK/ipeOQL6dIJ3Mc4zrGyhbMAvY1dD0vhIGiEM158l7zXywVOkQOdQM7TbvxES9efM4gi4hqtIiTQzUbdU4YaLAOKtQdjxE7m8hnaxxq/b8tMjSO+rAu+4C3vGOBZw6fQTLy13MdmNCn+tMRhiNNhgP2y2X4qd4W0jzGHT/6yPl9AkwpTKqbA7G1oCba5o1eMzWWduSNBXIr19//WbYAbzdjt4c7LBazp47u7zV9fvm1pCD8m8D5Xw3lOmUBeWXOOVXgbJuLgfl1y6dNXPmdu5Q/tp1Kl96477CORYEtKR5mKuHWg+91tb06XamD7ZxrOZB13rTB10LVOubbWjC7quqjdjlq+3YbREygbJFNJ1uuGzS/bboMrsMs8gnM/jc5y8Szlt49PFLdNIrWKGDVgaGH7UwiXg/hjQGKuecc58qmeHFpjq1mhhV7FRjjne2cdee3LyaAKWj1YdEwTFkYhNH3G9ZI0CJ8owOOuoyynVk3GYQh4xyzk2r84chjW6fv4eM/hg13vPeesm3RKDRAObngf37Qtxxej/e+fbTeMs9BxmfbW6fz0w0ZJyUvaFyzQMGPmtMBOMaE5eM8VJ6yGcx5n7DCUnPZ2XCRFCVZUyBv1rAU1RifXgNG6NN1GeAg/v2Y7Q6VlY5l7v+hmNk4K4SKXzuzEdQPeOcxvlKsMybEY+/gv6tJAflLxbKOW+sqVMWlHc7ZeMQboCyz5tID39BO+WgfHvK9MSiLBPdAXqtN0E1NgQRtRHdQrt7BFvDCFfXJ7i4muC581t46sxlPP7sOZy/UuLSKh1rB+i2m7ynGkiGnmkPQyCKggYG/RGiUEX7BF9ON840RU4omqY+sxJRxPuS97ZqRAZBk6Bsc9w35ZRzNZ7Ee1w1+0wv7L7MhD4wqr0MD/P1eRTjFGnSN+Wyi3xkSozMzwL7FoG33DuDO07N48H7DuHgwSYTgT5dOZ8J3v9xyEQp64PvHXyG+BySNH5ecnv04kPFzUN3Zpn7DNBPxxiVdP0zEdqLTQzzbaytrGKhPmfy2pXtpLcdQdcAS4nfbijzudNTVgFZiZSQbKGsRPLWkYOyg7LTGyXlpwokvA+MX+OTZu8E/tX9aEpPRCjDFp3iDBnTwaiIsLY9xqWVDaytA0890ceZZ9fx+OMJIaXq44R0SxkVHWRpjE5nGSnhlqQlh8r7hqnUEdIBqxRGxjc2VYgyjftnuifpjvkikKYJxuMRZmZJV05TnHbiJhHIet8znQlzo+rNJGQiY9p7LoaI1NYzmZhzkxG3tzAH3HESeOuDx3DvPcextDyLJvff5bMUcPmy2EKRrhLSG1x3hFbd4/ohhr0hnzcV8fMxGmembehGu4W0yLC1tYl2Qy3e6Q1FsL2erWHfZhTotjU07w3yxIyjcdNcnnJQvunkoOz0Oydz5Q0geC+Z0hT6LVhYsOhte8jbJOUTmBnjR5A22gwt+Co6Vy7g8tkY2XgGq2t9PPPMBTzyyFk8e6bE5iaxw02bWs5+hzDrEsJteHTPJe91ATqdZEgJT7l1fahUHrNPQJN7poU9FQU0fSYyIpWLV/ltCzr6W99Hv6Tj5LIqyx2FvgGwehSfFGMuO8ag1ydgNZ/HoZZFeXj79gEPPrCEe+88hcOL8zhI53v4SAPzc8qHv0bXfZGAvsbHQ9kePvJRSjcdo0EHr2yOwWDM7UXoznYwzoZTEOsZstitxq2EL4ZplpKChbjcNZch7G+17AtXzfqLqWbNaxrxVXCS9nFoWs06jtfhT6tZ61axrYZZ+JtbxjyM9sa41W4Kpy+PTOUUNVBfNAiyGn8zwVa+MEGhrAEl3s1GSDBNCDyBrTSwS5MeRv0NjLdWcPfhw2h6Y8w0Utxzagnvf9/9eO+7DmP/vpLmocf7jAaAbnw47mGrt4bRaIUAHiGqTRA2fYz1QbIRoNaKEXNftr0LPge6r3mfC8pynbYKt+5hFSFUBZuY9z7j2ZKT55MzUY8mdON8LvLCs+488XHs2J3I8pgg5V1OE9Pudji/hsefWMcv//IFPPfcRTx15irOXd3ClY0e1kcDZIGPGpfrLC7Ar9UZ9xQJXXJEEDeiOmKeH5XX9goSPlDpDY5XcTO1GRWUXWHdsclH5nNrq9cTyAK0itJwO1YOyjeRHJSdfudkQGfeoGxZab6zGVDbcQGDjjYhdPQ2RyCFJGbEoI9zxCfqiLBx6RLqXorZNlCPaSPLLXTbJd76tuP4uq97H06d6uKuu+exuKyPcQNTDG5CKOfFJsbpGjJvaFyyz20EBNaEoEtHCZJhSgc+QRzQlQt0fMurYGwBqI9w3B2Br/LiSkDUO0Dsx2jWWmg3uhx28OLzlxjnFuZnD/L3HMYjjwlDgFZzEQcP7Me586u4fG2bb6Mr+PQjl/DIk1dw7spVDNTKX6bex1uYnT2M+fmDdM4BcgI6pu0Ouc9xsgW/rmdIzxfjY9qXmQKZwDVPloGxzUM22RZc1mRXmOWVrXHryUHZQdnpDROhIHdHxJpbwDg33YsB70tlE9TokNVbdgtF3kSe1vla3yT8Oggn86j5bSx2CHW+5ifjTS6vnrMzxLURhsOLuLbyJO64cxbHjzfxwAP78O73HOWwSxiOCTb13G3vQ0F4vDXCJBkgZgLQ8AjVeAGdeAlI5OQZh5JD40IFM8XT47o5IZyjzp+RCnOrmTxC008LFMMEaW+Ek4ePoWTCsn51Bf3NbbrdEDPNNmEfmUo5rXYdzU4dYY3OukxxdQ14+gzw0G8N8T9+dQ1pmjFh6jDBWeTxRVCntkU55HM6gheNOUkfIPnc8pzp2TLPmTmHArIcsj7+MegDp4G34q5jiBkEZU4z4daRg7KDstMbJV17Xnpb7pZwIeBIQI6rLK5ZwJSAKHjPqB0LT3WkTfaBShVEBo3JYIMumvdkNKGrHPNVf4Nc3EQUjdDtehgMLhFsK1x2E51WhsMHGrjvnn34Xe/ah9/71cexPF/DfIvekbCjgUZACPqpAM14JCUi9YxNkPmMkL1vlR8r2Nly0EUyQoOArQcxIsYz5jPSDGtMMGy56FGvT1erBo06mO12GC+ulekj4pDxGvL5U7lupQ7qC7HG41cRPD6P3I70mc8M8Njjl7GysoGZ7jyW9y8YgOeMrBfrm4zOl6CqsyEoW/drgUwQGyevbAs9b3ritN2I+xWUtR+bv3wryUHZQdnpjRLvAVP+NxyQJSoDzHHeLyp2piY5VQzNI2y9kOAIBGoO/Sro/skQhLy3fN1H/EkehTTYasBObVDwhkSk3kXUU7bu23LM1QZ0tQM0uI+Zmo+33XUn3nP/nXjf247jHfcu4ehyHXWkGG31sL3WR6tGaJpyxSPezwmhqrYtBNEUatui7qtcMSFX+HwmiOu0pKMv+UwEaNTrTChKrscEg2AsVE5aFU+Y+AQxkxm1XqeP61ymLPn8qRGlSZcHMs/1FujkOSwZmyzEk0+u4WOfOI/+6ALuuu9uLB3aj7XtNTS7AV48l2H//jZqdOCjQR+1Woi8GJmsGhX/q7IteFb4rOkNhME4Zev2HZRvKjkoO/3OyZRTNvebisZZ6Noh76VqaMYVtIwcnxy1dYC2RxBuxzhu3Uu8z8ytpDvK3lXk4U7LchpGhF9khrpnOY+utU3IHlyo4fTROdx/9yE8+JZDePuDh/Hedx/B5ubziEK52gFde8+WMfb7hLO6kvKRDFVTL+Lv2DRqH8U1PkN8LgjaJM8Q1QjA0DMN+6u0x7ikSy7GGBVqTyQl1G1zpIKkWroroeJvLQ7bHDaZuLSR5joSQT3B+UslnnjmBbpk4K3veAc2Nq9haTliPAfY2tzis8lnmedLJUhylQDZccI228I65SoL5vpzeCvJQdlB2ekNlEow8A7imEChbArBwt4PBrKCM+Frm/TUvZlwmhqoGHG+oKx7UkH3kda18DEfu8qYwFMxzCaCosXQRpi3OWwiNIH7THvw1CFsvsb7eAON2hbm5sc4eHCCE6di/J7fdzfuu38e+w7kaLcHphy02kjWh8B+f2CKpeV8hvrjAbaHfYwIedOqaBzAr0cY0T4nfK5SwpGGFyWnox7Db9T4jNBlJ0os5FrVJ6GFpm1IyT4XjWYDo4RvDzwlIZ392vrY5DmvbGwiyVIcOrgP+/btx7kLVxDXawT0HJe5SpesKuzq+USJhs6v3LHdhzlHJgG7XjzuVpKDsoOy0xsl3ncGFiafWNDQ/WHhbEDCe8No5/YQPAQTGzTZtKNsoGPuKk7QvWy3Y4uvEYBVMTEzVB6xgvKkS0QdlWQYosi36IZX6UpXUJarfA42GL11gm6AxcUAD9x/DF/1lQ/ifV9xN+48pQb66ZaDBBcu9wnHLe66j3qDPrfF7UWEcDGcNmZU8KnK6HPpdM39zqdsMkFWliiSAnXGKSj5XOn507NgDoHLTY8zo5u2XU2ptiED7b3HhGllVfnNmzh2qGnymtudOePKla9elkPjlDPCXC6+OscGyuacaht661DDTTqnmnbryEHZQdnpDVJVJM43btbC0ja0byF9PVjIqlW6nXtI8OU8Fe3SJzhzT/FeNv/MfAUCXssYaFsXLuiVDDarJOM+1Y5Falp/qxGocYM/Y0K07PP1v49Gg0hNtzAarGKSb2OGy9xxbAlf8a678DW/79148K2HcOrULCJ/A/3tEXpbQ2SZgD1Eo56h1QgQhfSnqlwS+HxWVOzPYyJQokxKkyetuJXKd+ZbgWnKk8+YSksov7ff20SrWUONUM5UnTtVTyp1bjM0bWacP7vBgwnw1re+k4nDGJevnMX+A3N89gpcuZyhTUeuBMkmXkrw6IwFZNN+B/cxLfFyK8lB2UHZ6Q2SIOrTJdq7j2igg9SdoHxgW9pBgBV8tQSXm8LWF6DNvWSBbJe3aLHrmK2b/9XHQZPVQQiZPv14T5aBDUkxQlJmGBFoaUE/O1FVbMaDz4S6vVLbGR5dbZNQnGnGaNFwesU20sEVDPuXcPddy8Y5v+ttR/CV7zmAB+9rY3kuQTZKsL1G0KZjZMMR8tGAz8dYyQpqBHPdj1Cj82XEzDNkSlEoj90Ak8+h3CyfjEathjLLTet2OgsBnzlGkfHjNqI61q6O8OzTGzh8ZMH0hxiEAy41xHDQw/wMt19YKKuDXXOG9Nwp+yfgcuYjnxIuwfrWkYOyg7LTGyR11KrWAkNvzHHeJ17Ku7BqdlNgEkZ0Zwq8/DsFsu1DUNkP+m3873RZc0czEMQGPsqLVkmOEQrCqgz7HG6hiLaRxz0UBFOtPcNlYqSlj0zZCHLtfpev//OoMcQcD1EnXAuM+z2Me2sc30TMdTuNEe/5i4TsNcw3Bziw4OP04Q7uPXUA77jvML7qXccx3rzAeT7oVRHRHftJjoDbwihFkSSY1HjEgT542iKBSkTsMdhjrtO6lxkdNB1yLSTIlSc9yenehxiPcsy2juH8uXVsbl/A6Tv248TJGWxunDftXO8/sMTEg9syFV8EZZ4l84GUCQ33Z04Yj9m+Tdw6clB2UHZ6g6QrbyAsxyZHawLvFRPM/11BDrj6VXli3jnT5TVVMkNN0z3H7dkSG7zXjFNW4CwGbUphOMiQZ8oHjlGvNRnanB0hSQo64cRkM/i8R2Pe87UoQKwq34SoehaJwozw26Ab3SYne9ztkLDOCWsPy/NNHNk/i//5j38N3v3WO3Hy8CwWuwFaUYKo6MMjkHO6c48wLwhI21BQdRx6HvmTfzY3N9BqNtGotzAaDdHvb5sGk1rNiHHVtBhLS8s498JVhITtXacPodumi45H2FhdN21nmPx5A2UCmPtQ7UXlS5t9ySU7KN9M4m3toOz0O6gJ7z2VwDClMKpSBztB9wcDna8d11CB95oJgq6mazsKWme6YYm/bT7zNMtD+dbKLilCBAplDZHHoGJp5h6lsy7oJCcJ793CVEhRmWR9FFMffPSremS4D8aX2zWNeYU1mF5YlBWh/ass8oQOutzmvjdQq6lBoi0cPxLiPe/Yh9/zlcfwzge7OHpgE/MLOTbpZIdqqnOgRof0LNWR0RmrI1mVtmBEyWh1L9UwCYcOT0Xx4ijHYNijy1fnsHx+Cw9nn76G/XNzeMcD9yBNzmNmhm8JPBbTdnLZZlCtROXdM95ezzzxpl9DwfoWkoOyg7LTGyZ77W0GhEL1W0F3xzQYEOpeuTFUy9h1rsvcYdPAe3ua9WGDzfq4/gFR0L4eE1tE7MZQxeT6vq7HWR8RrXM3y/C+Vk069cLieWOsXD2LweAqsnSNTpaAbqTYvxzj7juX8PZ3HMPv/dr7cNedc6j5Kcb9PiZFYbuQYkKgfOFOdwZbm0OuH6FZn+Xz6tPFj7gv2ytKUtKxRw0kvRILXHa4uYYH7juKTqdHsK9Mo8ZnrVR19YZJnOTKfa/PGUpsbj0o65CcnJycXpOW9y1haWkB3W6b8FOHrVsM6o0nw9xMjnbwFL7mKyN897d9Lf7Rd/wp/KGv3o8g2US+PcD+2SaiIqDhaXPxNrJxE0VOx+t36YJaNE5MUMISWTFCrdFEQkP8yOdX8OEPf46ueomOu6lkwgbzZkEXz/3acSYsejsxicmtJQdlJyenL12GdRPjanNliRgHrZIdCdLM9qQ9Hl5BN7qKcvPTGF77Tdx1qI9v/b++Dv/q+74ef/Cru3j+iR6SbS5Tr2GmNYtkVGI4LNFozSNuzGBz0KfnzZDmQ8zMzWJ1fUBIR/j5X3oWK2vKWlnm/uSE6eaVb28q3uhNmPHYcfkOyk5OTreFlJUxIUQHDH0k6RB+oMolEdqdGPWGjzhIkayPsLwU4tA+AnztM+hf/U3cdyrFN/65t+Ov/MVFNMMCwWQNk7wPNbrv+wHy0kNaAqXv0SUPUFe70FmKwqujNXMczzynVubOI6odRkmXrfYubINPIxPklm3fmDYP/1aTg7KTk9MXKQFuN+QmWFicQ7vdQBgSghOCs0xMY0HjhE6ZTndpqQFcHaL3wouI1RZ0fYMQfg6njif4X//c2/CutwNxuI1e7wyajZRAD9Hrb2Kr30O7q3YxErQ6NVxbX8PC8hEkeQtBDfjVD5/FYNRGMenANINKp6w8bnWwqqwT83HV5CXfeohzUHZycvoiNIWxvj7uArOKsSXpCFk+Ng0EFQyCYlzz6JY7wGAe61dqyEdNzC0fQnMuIICfIlA/h6V9K/jjf/IY7rkXqNW3SaNLCKNtwlWlO9QwPz1wrCaclY0xIYxb6I1D+PE+45afObPFhIBQplM2H9YFZV/taKgkiYWyy1N2cnLaw6rArD/XYRdFIRqNGur1GAHNqRxzlg8ZSvSHMeZPvxdzJ+7H2tU1nH/+BYT1EbqzY6yufw5f9dXH8M53NbBvGUiTC8jTNXRbAVq1CMPeNt2zj/WNdczMzWCzP0TptzBMa1D9lGfObJjsC9vuRUkwZyZBUP62+cjnuTxlJyenPaed8g3TMNUOmD2CcYI8z+mSc0zUQaxPnxpMoIosXquDQW+Efn+MeHYe3X0d9fqElOu0Oh7Wt17An/gT78fBA8BMq8T61fNoRBPUAg+xT7eblVhcmMMoTbhOaTqVzbwGwRzgc4++iDCcRbezjEydBeQZ6jVu3KerpsUuGAHnlJ2cnPaQXgHIUxibrIyd7IwqSHZ5tXORRgMkcR9pmCALSuQCra3KQvlo1euoRR7e+bYTqNFlz7RDJIOeyQ1WhRG1+YFS5abVmBHhT2KVtONZGWEwBEZDJgq5ejTUP4qJwqRUKRBb1vp6nG4dOSg7OTm9snaz1qiaIHRMg6nbXS10fQW1yZHXLiJtvIistoI8HFkgT1oEbgN+3oV6+wZd7/ve8xV0yAHajQayccL5hKxXQzhR2xgErHov0Qc8tW0Rq0Q0sL45RG+bDpnrR16dICeWC+I7L0xiYapf34JyUHZycnoVGat6nblGFXhvBLMCp2vc5F1kQDCGpxbb/D7n5vDpcAMCWQ3xB0UdaX+MbDTE0YPLmOnUzAe+Wq2GjNSNfC5DKCMXXJUdkiHzRpxRmJ5O1jeBfi9BSSiHE9ttlWhd5iW3w9170/jcYlKsnZycnL5Q3hTIFZjNcArkCrxVkCudTMMU1GrhTtkQEVeLiwJx7jHEiLM6ojyCuq1CNuQyA9TiIfbtb2CcJGh3WkhSglXVpglwcFmfi3qEcj7pmV6u1VZyvw8kwxyTLEQEtVlNKBdqD0TNKshdK763nnT2nJycnF5BAts0VKbzJfnIFZAtiE2YgllNc8YFUKd7rWc11AjjelpHjZCNiwmhPEYzHqHVHBD5V7HvQEToctVwgkSOt1SnAHWCNkQY2PYy0nIbai86iAnkhMtw++plxXQewOU8NaJk2rqpInvryUHZycnpt1HlOCtAS7uhrPBSl6xxvyCICc7GOER9PMfxGURZky6ZsC4TRN4monAFQXSJi59Hc7ZvOkzdGqya6tQTr46JafUtIpQJ2kDtYAy4+TF8WnBy3cBXPbaoISK5ZBS29xPTWH4pd3/ryUHZaQ9LX+BNg5EcnUDtGqutXZO3yal6nAUTzdebtL7uV62zabppaN505dSgA1MPF2qXV9vSppVpSTtnapLZro3UcH04KekA5QL12l4QEEPuk0EtFGp/gofZBhfgK7hplF15r9ok56ulNzlMxU/lFHQEv7MyB2tHK31BtkY1fmNceQ7ldgu6XZUlNseubXF5c+5K5ByoQXuo/Ywyh/re29reQlTjeYh4Bri4gh/yN4dqZU7ZE6GvssmU8pfDFBm3pbbrVL1aecm6qj6vhXcLZmE4KDvtWQm2BZqmzQTT44XpAUSQ5FBdIpUE9qTO+bEpqpWbIlf6yq/8SMGkjf4aX4mTOdT9ZQSTLgq+IhekdkGoZBO1szDi7wEf/hEadHLqUr9Gx1ZLOeQ+6iFftdW86yTl+sobbXHbNb6mq6vRIcpgQJeoWnCMsGkP2fbnx01ZqHwB6N5EmdTJJlxmaH5PQWygWlXWqAKn7YK0/ukbXarsiCjDOE4YRgwZEvI585TIxSiTWdRwAFmP8Kaznut2uYURRvkGUnVpxW2PxjxHuYd22EVAt50P2qbn7bG3hay5hVGcYsT9TDhRXV5lyYBO/GZI1L50OSg77VnJC6sIli0Xy4dzCg21t2vaGdbrttwbh+KNwG0crHmQBSBgYYEPf1zQ0Q2Q5gRFMuLr9RBjgjdozGJMBz0qGkgnbRPyoolxymmjEMM+t0KHpyYnt7ZT9PqqYBEgjGp88kqMM1UNnkLDxENuUu0gK09Ura5xxd9RqOikCMbTMD0nNk4KFYCrUE230jmVyy2miV0eMCEzgeezajBIbyCmc9mmcdQ6HfaUqBeVjOvm3Ia2rb0rn1rZIkowG2ZX6pOwYMKn7SpRLRVVs6ytaL07PreKHJSd9qyEED2cCoLt9cdTt70Ndhl6arpSX7XRCAMbCMygj0H2FCa151FEF2jirqI9X8fRu+9Be+EEzq94CNt3A417MA7vQM8/ia3gGIaNE0hnT8NbuBer/SUE9SOY2/cWxO1l9MYjrG5eY4xyAr9JZjAeBBP0Qcs0Q6lXdrp1wkZlck1C4XRbyUHZaQ9LGBbU1JwN/5HAJvC2n9BxyZGaroMmNv9RmR0271cOVu0nZBhmhHmUoLnQQGOmi5XNFM+e2cRmfw77jrwfF1YX8eylLh55LsInn8rx8PMFHrsS4IV+G9eyZWTxWzCenKaj3s839SW05/ZhZn7BJBUr14ZMK1TCQL0xK4/UNqCjrvgLusTSZzxM/J1uJzkoO+1h6eOeAGtfY212hj6hKY9UWReCMsdKOWUC2bjlqbPW8gT4/geO4+o68MSTG2Tmfuw//LtwbW0eP/aTT+Ef/pNfx7d8+y/hm7/j1/C3vvNj+Ft/75P463//IfyN7/kN/PXv/SX8jX/wQfzkL7yIT32+wEp/Hpm/hAwtjPMAOYP5BmW6x7cfwdQVkj40yimrS369+uu30+0lB2WnPSyLYet87S/jkqdBxan0dV4f/eSWlYXBxSgL73zSwvOfW8Xc0v24696vxbkLXfzwv/0k/vn3fxo//l+v4mc+uIJnno/wwsUIV8nstQFwrQecvQZ8/nngU08A3/9vzuCH/9Mn8BMf/Bw++slzOHdZbf3Oo9U5jJmZgwSxsi1UKoHw9XJCWA5dHxttyQPF2en2koOy056VEGw+mAnKHLcfnvT5xxSYMksYpywg0y37pKCyNFSMrvBqyCZLmJ3/Wly9+gB+9Meu4pu/5RP4/u9fxZNPesjygxgnB7iJuxBGd6LRugfdmbvQmTmEerMJPzI1fjGk6f7Ib2X45z/0FH7w33wSn/jUFQzGCyiKfVhfY1wmDcaLMfUTTAL1nJEwjnTLdM+lXLRx9U63kxyUnfa05ISrYlHWN8uBcgqDZMBt3DIfBn10MzBsoKBLTstlrG4ewX/4sTP4l//qszh73sPs4kFu4xjG6TyWlu9FmraQpQ1kSR3pqIYiaQLZDCE/i9BbgB8vY/nIEczvb+GZs8C//pEX8C9/4Jfw+c/3sbz/rdxXh0lGYD7qlb7aCyacCWVVMZ5MmgwOyrebHJSd9rSEXmXLCssGz8YpW0wrlzlLEwSNOq5eGaDIPTT3HcfFywO0Zk5gvdfGd3zvT+FDH72C9cEsMv8QUsxhEnVNT8sbm2sIghIxuWm678yI/JGPOGugns7AJ7DDuIO1XoZx0cbc4jLSDPjwh4Gf+m+fx8c+dhHd2RNY2diCF2fwohHSoo9Gg0DOm6gFC4y7yvLevqrar/B9H54pP863iFLtYjAh3aP0clB22rMSkOWATZlk3urKsjAdahqnrBl6uAugKHDw4BzyIsDV51dw4vS78NRz2/ixn/lNPHF2AxfWxujlARI/QOoXKIIEUSNDu8stej0EXh8hxghVI61Uozs1RIRqmDcwHuUgq5EVdeTlDMMCNreBRx7N8YEPPoInnlnH0ZP3YRIEDMr7LpAkKR13iFFPQHJO+XaTg7LTnpVgbKosm2yJKZSJZ1UwKEzNvRJRHGKwuQl05hDXZrGxTai2juNDH3kWH/ilK1gb9ZFEfQQzGfzWgFC+imFxjs73HHLvIrxwhY5tnehUw+wCc4mw8AnlGEERIWQCEIchgrDG/TcRRAfgh/txeSXEx3+rxM988NPYHtUxSCZ0yXTatH+TYoJOY5ZOuWmOwen2koOy056WRwL7pcoky3FWTtkWO1M54KgeYXOrh8nWAHFjAQvLd+K3PnsBv/zrV7E1AsJmHfVOgFrbQ1DPTcPthTdCNhkizQlzjnt+wk2n3P71D4pVnnUcBqgT/Gq3IVHHcn4T7dmjaLRPI0cNH/7YGB/61ccxzlooVMXaryEbp2jW6ohMa2dOt5sclJ32rEymhXHKBLLcMn8LmAbKU6esno9bnQZ6wwRZHqHZPYKf/rmH8ORzwMziIp11iLJMkWUJ0jQxTrbeqKHVatBZN6fu2yeo1XYGTJdHqkasar8qa1ykY1MGGmVCKPcx4u8CMbx4EYgOoTcGPvDfL9IlL9FNLxPeDQz7Q+SjHsaDDSYmrvLI7SYHZae9K+Ulm5p7DLzVq3IYtiU4lQcuMEqGmD2wH7VGBxtbCZ557hoe+lQPKRf0ldWALt12nXCNkCUxyrRByM8Qsl3kWRPlpE3INpB7MTLlOQcTpGGBJEqRh2q3bIIaXXMj9hDHTAyQYZSnGCQ+QxNesB8PfwZ4/nk6bswjDNqI1SV0MeJQ1b0dlG83OSg77WHZcscK152yzbpQBQ1TSUNOdEJwNlrIywAf+ejDppuhWnM/hqMW/HIRNexH3TuEMN8PpPtQjpeRjhYxHs6hKJeQT+aI2jZSPyaUPSRhjnFEZx0miKOQXlu9xeWICOsgpoP2MiSEfuG10Rs0TfOVH/71JzHoEfp5jE67zQdzjGabDl81Ep1uKzko/3YyH1p25+zpIZF7UZDvqmQfehPM4pzPh/6ly9xa0mGobQhThpfHMX1R53S1YKbh9Rpw9viVb1sF/VYertoqVlC7Dqq5Zl2rLQ9hljDBOkKdK3lLVe6I+FNNWMYI1a9bqYbMta7doyk5oeBbxyt42TjZ9iuqdixsLTkbz52KIipOZSqK0L3WY6yurSIjtKPmIh55bN1c8iBqIstLjIYZJjnB6jUQhy0EfoOhSdiq9bgOeR4x6NimTpzrWieu45FCpAkd+XCANO2jLAeM05jbB6J6HeMswNKBeXz6sxm2+hFGKREe1Jgg9LihhOtX27k1pStqwvSyVZdv5zLagVlI4y+ZXa18m8lB+VXFh8w+ZRzlI8ez5RECVduxtk9daTeQdDsJyJyncAvfVVXphaBUIHYmasg9gxqK9zjccXEmzzbmYau1MwXbBGVJsOq1vke2DBKeF8Ks5PyhmrBMSjTr/J2pcXNui9suygIpT1lWhIRVTJBxuKHuhLpoRPN0rA1kIwJuNEKSJ8Zxlmq4JyA4fXu+1YB9wG2peJqPFEUwNkXYBOuQx1Arcm6PMeM+1KfbKOO+awRrs4XnLm7i/CUd0BwCUzxNja2rCcmEbrhvQokeiskW47pJl73FczFA4I0QEqAR9xsVE8RqTzkPEBY8/jzinmvwg5hO2SfYGbdAWRXcTtnHJPQw4vI9noZHnrqMuX2n+ZuJV8w4MRXZgdktKt39trr49eGN0iGawJkvCdPpt5sclH9b3XBryAEZF6RQ3WKcX8F7Rzcuc2vq+sNhc2StO7bHZI/Wel7bBrB1wPafXSfgHdbptFCLYwwGQ3NKlhaX0Gg0cfXKZSZyqsJhnW5Atsf1CI12C93ZOcwvLmBuYQZ5MURv/Qrd4xZmZptYOrwfnZku0owueZoYTNT0JYceXav5uGfiKhctp2wTR+OU1fgQ4xBMS2SoR4uCBzkuSvSTCQYjJgqZKmyUjM+0V5AqgTXjCprOhKkKSqi4L9PSnJy42T7PhsreGddfJdaMk0k41FOJtsFx7Z9Thky4ekxwhoyDXPtOWepbWIp99UjsfjS+4Kg4obrPduvG37eLHJSdXll8UuyruPJh9WAJdWrdTM7YBlsxQw+QYK3sA3WPVIEqwXDrChr+GPMzMToNete0h15/g0vn6Mx1+XbPNQO+cxBQaTnGYLyJtY2LuHL1eVy48jSu9p4B2pvoHPFRn8uw2ruEi+fPYmN9iw61Q67NMiyagHyBLO0yfnUh1ULBHMgrS6UppIyOeTgc0oUDhbocIhQV3mhF6v+IUscag8EASZIw/oI3z8st2sec0+uTg7LTK8pAjW8F9sOYfK+grPxTgUR5vsoj5i1kyCeAvNRN+l6CAwdmMO5dxcqF50i7MV1zh0uG6I1VDqGOYV7HKG+g8GdRax2gQz6K+fkTWFw8hX0HTiGemcV2meHy+jqubA1RMC1ozzTRbHW5Z9sWsXqu8Iomh3XjnLV9xVVu06QYr6IKvgKhYFxxsJr2RqtKFLhr5DldvZw2Xxk03UH59pSDstMrymQsqDwv3/uFB7lPAzy1x2BCSKesLItptgbdrnXJiRnKKSPdRJ3rd5uhKYmQJiX6I/npWUStE2gv3I+geTdd8nG+vh/E5tY+bGwsYdA7gCQ9DL95J+K5u9BcOI3G3D74tS79eA15wTgRWnbf9iOfspWsO7blhtUinOa+mmwbCr4JArGyUORe9VuQfjOk/YrNdugjDMM3df9ON5cclJ1eWSbroiTg5JanTtm448olX88rNR/9TL7rrkBYDjZKQg50wV2CNMIkmMXs0j0IW3fi0loXH/90Dx/68Ar+68+cwQ//yGfxL/7lx/BP/slH8H3/9CP45//iY/iR//QYPvrQCFvDE4gbb0MQ30FYz2KchCjlZH2+9/t9hi1M/B7D2NTUMyU+mIAwIgyvrgqGGvL/m+pUtQ/tS4lBFYdq6HR7ykHZ6RUl12mrIwvKGtftQtAJyCYIypKWFIRVIsU20i6XrSyP1nKb7jjAhXObWNkg9GrHMCoO4zd+awPf939/FN/9fZ/BP/r+5/BDP7KBH/2pMT7w30v8/C8Cv/jLKf7Hr0zwn350gO/+3jP4O9/yq/jhH34azz47g2brbZidO40gihmFHqN0FZP4EhBfYbQ2LZiVgDDxUELyarIgtlkVyj4Qh6tpb4auO3ULaBsHvXVYODvdfnJX3emVVX3oM4AVeuWWCWIDY2VbTMFFCJusA+OWtTSXk1Od1LF2mU42PITDd/1uLB58J37zU5fxzd/5H/Fd//jj+KWPDnF1u4atrIWyvozWwj3oLj2IWvdeFMHd6KcnETXuw9rWIn7zYyV++N+epYv+MH7sxx7Fc8+XqLcOm2wKFXlTsTh1NjoJ1CaxEgd9kIwVORvHV1AFPmUVCIj8b0D5ZoK52o/ioA+Oiockx+50++m2gLJubt34lQuJ49hMS1MVabIOpV6vo91um+X1W/l6ClpO5WI15GoYDu1DWy2711UB2cBtwttFQbeNmThBo9XAcLCNre0emgvzyMnn/jBDa+kIVre4RHwKWXgXrq7O4L/89Gfx9/7J5/DrD3HVZgfRzH70iiWk0UGM/CWsjmtYS2Ik8SyKxgLGwQy2xi0kxQG0ug+g0bwbTz3Vwr/792fw7/7Dp/HRj11G2DiMYeZhzPRAYbM3QXd2FptbQzSbs9P4vrJ0D1TZBQo1dfZBqRTEmwFlmxDoAx/TLt5vVX627jGXp3x76raAsqSbvFI1bm9+PZgw4NUDWrmk6sFQEKTlYPSMyFhVgNe020EGTYQwz4r9sGfGeZ4mfN0eD9DpNrG0PIvt1TXTiHuzvYSNa0O63CNIcBxro0P4jz/5MH7wR85jY8T5c21c2fDQS2pI/SZDhJSm0LYZkZkqyuN4xPExCk4jreh+W8hBUOcHsbLWwCd+K8GP/cRZ/NpHLqIz9wDCehdeCCwsdfDii5fQas9gZWW1ir2T0y2j2wLKFYQr57MbyoKsfgqyVV6egsar31rO/jZ8MLLuxm5nL8sCmUOBmEPdMPaTn84NX7fzEcpJjqBRw3CcwI86CKI5XL2mcsj3oojvxr/6z5/Ef/jJ81jnW0aKGrbHdQQ1utgohOlKP+ijiDaQx9eQ1S4hq59H2ngRGUPiPY8iuIw82Ebul4iaS9zXKaxuqmoy8B/+8yoe/qzPeNyD0fgQE4RTKPIaalENcaTX/71/jZz2lm4bKO8GqF4L9dsWPbLuV+PK1hCAq/xFDfW7mq5NiOsCtOap2549LR0vB6b9i+mw6v35ekWRHL3+AP3tTTRaM4jrM0iyOqLafrraOXzglx/FBz70JC5vAAeOn0Bz5iiSNILn18hkDk3ttjF/Dxh6mARbKMNNA2kNwd9e2OeetpCUfZSxj9b8ATTmTgPcx2c+D/zbf/cZnLsww2tyAqN+C/v2Hcd2bx1zc7w+yud2crqFdNtAWaqcsqAq2XxluV47b3fes6CrcQ01XZqutvMxZq9DeQfIgrOArCwLEyyQVUmknKSmcZ0RXXJcb9Mty0N3sbTvXnzsk8/hn//QryPqHMTs8iIuXOkjirrotOfRWyds0wzRpGDgsMxMmxVqTU3tV9h9cJ7ai+D2/TBBMlnHoFzFANsY+x5G6KA+s4CPfwr4lV+5zOt1B7a21O5Gjdenx7BhtuHkdCtpz0NZYK2c8m4o67dgK5dM7poPO4JtBewK0pqmZQVnqVazBfsF5dtByrKwDRMJ0BoXlHWOBM4cKc/DzFwTcaNOIGfY7hOu8RzGaR0/88GPImd6tjlSjx11Tm9hc3OAbJyjS4AHPIVRTujmkek+KSq4TN6EX7RpcLsMMyjHLUyyBgLPR1grUUY9jDzCGT0koUfgH0Du1fDBn/88Ll4seR3rdO5DHDwww2u3zgjfHtfJae/otnHKFZSrcUnQPXhwGc2mzSMWgLXM7i/g+q0gWKv0xcLCAmZnZ820vQ9mJWJyyMq22A1k1aTj0LONCKlschCGGI5SuuUuMgL24594DI89CRw5sR9X168hKRIsLy8hGY8x7g0x25gxII7zBuK0jSidQ5QsIkwOIEgOMRyFPz4Gb3wceX8ROSHvBx7CRkIjvIGysYmwm2M7GSBqzeL8ZeDnf/Fj6A8LJpwxwjhDGNrEw8npVtLed8p0ebbkgMWLaVbSNNsYICRMTh6bw+IcEAfbXHYbEc9IGNS4So2Q9lAPYtRIpMgbGXgvLgWYW/QR1TMUpZpglIO+DisF24CPqvmqURzrzl+LbFaBrQahC2VLPqgRIFtGWPONE/TVdCVh5aemjK5qtBWqGm2qGav2nTrADxkvxonTTTdFAeMfqGlLvh2Y9XkcjLdia5vr5FtEqQoiWp/71HQeq8220PaJO24vakTY2EyQqggZz/PS4kGoMbhf/Y1HTEPuzz53BceOnkSj3sL58+fRajYwM9PFxsYG8oxu2xwPE0FeF7Vd4SsUDQY73qgxAUSd2+dly3h2mRAW2QhlMWI8UuSTFF4YY355Br/woTNYXc8wM38EFy5uIuP+7TnQMTHhYFDuuMow2waWeG6Z0Ji2lc2x2umqWm4/bOq4X/v1c3J6LdrTUNYDGBBKkcdXYz/iOIfoMHQREsxB1sfve98xvOvBCDVCKfauotMMsb01wjAJsLR0HJ2giWDcx4TQuf8+H7/na44jnZwhuVeIpy065sw88AKWT0BOGNQHXO6FnG9B+NplSzmoSUg1A+lPlJgQXoSsgKH5BcbcVx95MEAeqRRDgiIuOWSMwhqStEag1THm8YzyCYZFirE3RhKNkNXGyKIhsnBsSkFYSPmmHeCoqCEgHCdlkzGoGXgFavmNICx5jCkt8piJV58Jl7IuinFO99tGOkhxZaWPz5/N0SPnWypvvEXwk9CNWgMZHXM2GSNu89wwnnmQm1AwlExUJr46ItVHv22+ymxiVF5hijky64aTFh11B41yBnXGkQdHmGYYjgdcNzbllH/joTPYHLTRnj+N7VHAc1M3oA0J73DCBIXwLU3XTRa+fpkjYlrq07WX3OaYy6ZqUImJknqjVgLo5PRmao/fcROCpmpT17Zfa0BHwIT6uIQeTh0J8Xu+4iDecR/njCforZ7DfHuETn2ISy9+GlfPfw699VW89z11fP3XfxWOHA3pxp4h5LZQi6cN8hCW5uGVJTMuuTSOVM3patJrl9aWg5UbV5aBJAc3LS8sZKu2htoI5r70USwKPY7L8XKdskCrLrepImJMnjgvjplQyRRyXpKoWJ9uAU2wTtEeg/Znm9+0bV7IMXKbxmnqXBKmyr7hm4A+zamAcOSrd44AKeF89eomNvqMuUdwMhGR47bxlXRNeH64j6rz0irYGoFy4qrUo8obcv9j8wag41aj9H6pxIJB0OSh6zhCtUnM7SvWV1YG2OK+1Uh+3JjnNMVPRyCnrHM4dcq6NtynSWxIbSV4TAXMdLWvzJ1yms6Hc8pOb670RO5Z6SEv1fNEOGSgmwr4tDJ4QQ++v0mIrNHZPY+v+d2n8bf/z/fif/kTIU7tp7ubbGIuvIjlzia+6n01/Kk/PY//1zd8Be67fw69rfMETYLlhWUkA+6kaNGttTitzh0SQpKBC9+3lRAQpq9ZAjwdvM2SkJNVwqIKK4QjuaEsmE5tHq1gFjXGw6cznAwI0t4Ak/4mysEK0t5lHuMlOtkV+Nk26nSWLUK4zb9tvjHE2QxChiDv8DiUbUNABjxf8Tqd9wbZxOMwuONxcB4PchqsfF+OnVAjlAO+jSTjDOfPX0Svp3kC3RsLteobgPL89dH24sV17rtnKgI16k0tYRd0crpFtLehzH8FgZYr71SVFEzeKaFGYPp8hQ+9AWJfRbMu4MS+At/wZ96F7/7Wd+I7/9Z9+Dv/+93423/5Tvyf/8f78E3f9B689cEmH/SzhM4VtGoB14tRJMp35YNfMEwqKAsCgrL2o/DaoSy/azMwOCScFXcDSQXj+ulnhwWhS9c6pBtNGqiVbczE85jvLGNhYT9m2i3MdFqYbTfR0gfMnNsZMV58KwgzlXqoI2SQC5WbVX54QWeqLIUypFOtjsG4Z8JYqYGCkUqohHSrRLZmm9spwOrKBtTLU6Cycq8LirsTgGr4UuljreIgKOuj4+amiiyqSCPPGoHt5HSraY87ZeLRBM+8httXcfug2q57MjTDHFn/EvL+WSy3t/C2O0P87ne08D+9fwlf/ydO4u47tjE7+yI2Nz5JNp3H6RNzXDfFpXOX0a7PkVVqXJ1Qpss02QDavoGYoGmzS167eHkm3K75UKf454SyXudHZqh9qHPPCfftF3S75QITmDkeSwvpWojxtQJb6xmG/RLZ2Ec2mhDgXGeQIiBrm0xYVEAhZBRthRBlLSj7RWC2584mKpVTnoJ5lwRF9WOYZXT0XCGOmhgR+qr56Cv74nVBudLLnUMTOe4nmhZXtEUYVaJR8fGVlaI6305Ot5j2NJTtg0snh4gPquDG13MNBVCCTq//o/4AM8065jox4XwF185/DhtXHsF46wkMNh/F5trDiIKLNIcrXHadnO0jIqg85eNyuzY/WUH5j4Io9ymGMFhsvA5pmyauCoSfgCnHb5w/3SA3HtTaiOpLaHSOI+7ejaj7FkSNuxGEpxiFo/BihtoRTjuGuH4UcbwfYcDEBOrXTh48YxjTVSoou0WR5znT/uj8TSJmEhnBuQrTA9Rf/lQWBpHI5dVAe4w8m6CmOhw6H1r/dcnu5+VlnbrgG9KVM10xees5E4goUukZ+zbh5HQraW9DmVDwVFqhaHCobIY2Q4dcYeBwwmGjtoA08dDbHPChnmDfkQM4eO9JzC000N+6hEY0QYOv8QsdAoAAunZ5m9sqsDA3i2Q84k4EKesk5TQFCgFKoLYNwb92KJmPY4SyiorZomm2eJc+RGWBh4RA6hch1kcxLq1FuHhJoYlLK/O41juMjeQENnOFo9jKjyEL70DQugcBAZ2UDWz21Sj8kCTbhMegxuJN0T7OM/3dFfN2v7thvANnySMQ1TtzTNjXeT55Bkqf5yU3cNTvL5+0bx39F0pxqNebvI4mD8V00BpFTBXMuf9yxsHJ6Y3XnoayHkdVE1YX+XLF1tEKbsoOqBEtNeQqGRA20J6dR3Omi0FvE1fOPInV9cuYWejg4P5FXH5xjNE2feeRGXTJq/5WijxN+Kpsuz2ypQX0qqzSCZQBsnpWll18fafYZLgYFtGJQv3PNZCji3Qyj2SyDK95B1YG8/jE57fwH376M/h7//xn8de/88fxl7/1x/CXvvW/4q9+x0/j7/zDn8H3/bsP4+c+cgnPXmwj8e9A3LkLjZnjyHy+/gf6mFh9mOT+VMqBiZanmnVy6wLiTnip5EaVhRDHPF6VgyavExVQpjT+ZYGiTsDLbkaJANOPXM6Ybzq8BNrncDiC76nmpRJFJ6dbS3scyhPTngJfcG27CirSpaeYkq9VA+mpFxBSPh1njq0sRRqFiOdn4XWaGNJ4ba3lWO7OohF0MFzja7JXR7et2mVEZI2wkNP0BwwjA2bxw3w0ozs3jpMwfc3yChRFj8ArMBoNEUYz3Ph+pMVhRI234vEzdXzzd34If+Vb/ge++R98Gv/x5y7g40+n+Pxl4PEV4Kk14Jkt4NcfB37kZzfwXd//MP7md30Q3/sDH8PHH2Fcm/eiNnMKa/3CVPSotWoY0/2XWYlmSPD3da50i1jIXtd1Qqr9j35/aFxxUUzMsN3mudMpUVuays55Xar2/fJxUKIw051Br6d2NfiWwsmNRotvPZ7JxtgdVyenW0F7HMqq1DEmFocExBCeqZigD2V0ub5qs6mUQYYsyBkKG8ICaVAyqAKI8nRbZGPXtMeAnQ961j2qZIL54Mbtmr7iKqdJd6naaMp6eH1OmfGabMOLM+PkR0kdYXwa5y508R3f9fP4zu9+GGfORbi6HWDkBxjHHfTUMHxQxyBmYtMKcY3uUVFv7p9B0VzCM3TKP/erV/DD//kRfP+/+TieeTHA4qF3IW4dxNagxMLiPiYCMVZXrqDVlNvfDUMCbgeyGlZBquZVwy+nbgRypen+qn3qXGtRc84VvtzxcHJ647WnoSyo+aZ2GIEcbPNot6CmIW3zkFsowm2CuWfKMOfhkGFMSCc7sLaVCAhXA2SVRW7yma8xqKYeN2/KIxPEhPzElEvWRzN6cELBZAFMi5m9VqkY3Pz+JsF5DY2ZZcSN4/jAzz6NH/mRR/Ervwa8QCBfuHIAW6NjKOKTQOsQstosRgEdL8GaNWLSGFDO98Y4QC+fxdg7htX+IXzicyV+9Kcv4Yf+3SP4/FMRkuI4tvotbPZyxPUInS6dZr7JY6rccgU4c+B29HdaO6y+EcIcNxdo9zQnp1tDumv3sOxTa4qrmmeUEBVAp8XKbE/IcriVyxVUlS8sh13unBxbWEx5uiphEHKOSnQEJgvEGDSOWUBrXfvBz7Y9/PqAoP2mdN2NmQjX1ib4H79+Bv/5x9TbhnpvPo5DR9/PGO8HokWEjVn4Nb62h3TnYZ1HUCdUY9TCNiZ5hOFwgrHKJTcW0Zo7Cb9xEv1sCR/68Ajf9y9/Ew893ENn7q0YjJvYUFdK7YjHVn3IFOR0NirIVcPdx1cRksNX+CD3+lVtt9r3jaG6YtPx13n+nZx+J1TdxXtUwqPFioZV0BRPxdrkpBmU1xxOSsTlBHFBL5x7qDNEpgICAR4MySS5YVUxtoAuVcwOsYG0fmtf1d4qsFtAv3bpQ+SFqzmOv+OP4Rd/9Tn8w+97DoOkgfbMKTraOi5dGyCI6cijAsVE7Qdv051njBX/qYbfkM5+M0YXc9jXXkQzDDEabWJrsIHci1DvHkVn/gR+5cPAj/+kPm4uYWHxQe6DicDGKppdZdVQFZDNR78Kdi8Dvd1F5zTL/LZn/PXr5bZjdmJHq3FzkTWuOO+e7+R0a0h37p6VgeekzkB3O4lMsD0cqwRGQGYo79dHyKFt1zcgkAkrOsp6KrDpw9EQZdAzVY9NGWGCpjSOmdsTlBlMpRGBizCwYCaQTVaGyskKUq9NinujfQ8++4lVfOC/b2J9m4iJjhGq3G/A41J8/C0C+Sqy7DLy5Bq8bIxaEaFRzKM2WkArXUZzPIOQpjcqEtRjhmbK4xlhezSkE+9gbmkWD30qx//9rz6Ei1d8HDxyP7y4hSS3iZC9TaaQM4DWcAq7argDX0NFO7ozfL16uW1P97s7LjvaNc/J6RbTnoayytiWky7KcgFFOcfhLFQ2eaKiXnKSZQNhwZDXCeQ6almDMFZoopG0CGiC2+9jEq4TguqqaMTnvyAWhF4BvmbAqaHymS0ErANXpQzbTsVrB1M5aWGUHMY/+xcfxjNnQFgex7W1klAeY265icX9XMZ/kW75AuJoizHa4nEQulkNjdE8WqODWMiPo9GfgbeVwR9vo13vYX5+hHq7h9TbwKXVa5hdPI68jPELv7iBn/v5z2CczmBh6aRpsF5vAtfBtztI1XC3doPz9YrbeU1Oe3ccnZxuLe1xKNMJF034eZvDBiE8dbXKguDDrurE18NObrBZz5bP5TQ64yJgoCtVmxBlkJgadWrlzOJCrlnlkVVbUM6Zv8mDiU+X7AnO2soUEtyPbb9CQfNVUiOEaZLTLKHsEuVNC0d1gnIBH/7Ni3juXMB9R3j+/JZpfvPU3SfpYrdxbeUcAm6nHnlo1cFhyL3rI6M2zW1NJshGORp0vd3ZLlRsd3NrFWtrVxi1MRa6Tcx0GtzOGhrdA5jZ18VDn72Mj37ieaRZG0HQYUSmbwHTGL5UFTT1NlANd0vT7Fl6bVLLcLoWvr0OPoO5ToyL3nI4Xc2m6jyb+YyegppLtVdTWUivZ/9OTm++9KTtWQV8aGvKishCvtJ7CE3TkyoOpzaEB0ijAfp8/e/7PfSDIQZRglGUYRil6PkjbPF1f1hGGBPmmc/HPCoYuC42kBTrGCYb9pEXjOm6JxPb9rCyN9SQvFp4qxpL16m2gLet1qmyhhpMUm29ejCDMuWakY8wKk2v0CUWMcr24QO/+Bh6+TzobRG06IBnfTrly3T+Y4R+jdDiG8B4GdlwCXm6gJzOPWXCkdZWkDavYFhbZ2w3sDbZ5nERco1FxMESgjEd/maKxiSF742w0t9G2VrERx5OcfYScOVqhm77gDk2k5DpVtnJJuBRG/ITiASfGdfQnI0vHwQF46CITaKVBwWSUO04E7WebcJTbWKrjWSf11SlZZJwgoSnWo3v+7xKgRrAn5ZLd3K6VbSnoSznpjZ51SKcbeNB7sk+7LassY+8UEPxcsoFh+rJYszxBGFtgmabwKw1EfmEbl4iHacMaui9RKMeYXamy21pP/JjKp2hatDci+n1Q+0DWyAIzCbLw7g4wloue+qIfeVvlyG3PyFUVQKEcG60kOZ1nL84wMUrY2wPuc2gBi9Se7907IyjKq/Uaqo+rkoqKrLXZcLQ4tpqxJ3HwkSnCFXcb8QEKLVlsJmwFObjJAFP2IVqPDhLQIMNL4ywOSxAzuOhh88gTWswtchNfrmJuI5EEygdtI6tgrAAzaE9GV826Q2jalPEOmXb44l6E7Flwa1TVo/aOp8qwiinrPmKk21h+csbJyenN1p7GsoqMVFEa8jjVcKpbx5s0+VQMYMwnUfEMBfvx1w0h45fp5vmQzymix32UYw2MRltIUgGiLMUTUK349XQYlBzl5Mx/VmfLlMs4sOv6tZqjN0EAwlCWf8MnCsw7AYbh4I1Z8nMqelJ09IaAVSvd5CkEzzz7Fmsr6szUIIzihCGtonKqoNX9SP424o7eOVXeMKes/yAbxONtmmzotFs4zMPb2Bzi1AX03bi6+Tk9GZob0OZcLQVQwgYvtIb5yqHVejVt0G40mUO6W5VUzoB6nSR3XoTc+0OOq0FtJoEd15DLW+iQSdaxwya/hyawQxqQRM1ukvT5oXKOavcs4rPqZYfIWwqmJhgYmL+WsAZ/0enp3xPvmSnKqHhIQjlYOnn+dMP6hiPJzhz5rxZRTBWUPvAaqZSIc/5Km+c9WuVha1p1Y1vAa1mB0EQ0zU3TB97Z89eYkLQNHFycnJ687THoTyBurhXUO8dgrIQo4odId+Dq6DKeMVognLMBbMmsnETw80QW1eAIFsGRgtINlsYrdUwWJNDpvfke7K6XTJtX5iSGQoD7oP74WmdTJTHXOfetMfpq75hM0+5sk+mr+VqTEduWQ3qyLGmdMh5EWKc+rh8eUzXrHkq6cHpKqLGoQCttoNtO8KvTYqKPLSa3RwNE+47Rhg1kGYTLCwATz5xlvttcak9fYs4Od102ttQ5uEJh2pB0pSqML9UIkKtuqkPugJxSCccd9Go70etcRRh7SSC2mn4tTs5vBtleYLu8S602w+gO/cAZubuQVw/hIxuu68PcoR9aWoIyonTuSqrYkJXWyq/dwplOXQTB/2xQJZLllv2Pd/A1SMcBeWi5O8yRJaF2NjS6oI6Y00gK1TdH6l9CoH5S5HdkqQxG9KMrptsT9OSwA9NC2+tdgPnLzCaKnnhoOzk9KZqbz9xgkrRZVDRLtVOIzB3nG3fFG8bZhmSSQvjyTI2x/txYW0Bz12ex/mNA7g2OImHHinx8Oc9PP5shBcvtbCyPYtBQStZX0bYWUDqe8aJ6wOUzR4hbKetxFVQrvKXLQhttoWBM8dqtRqhbIFLMnN2zOVjU/55NCKM6Vzljqv8Y42/lm6OXn4NtW9REMJdjJIcCfflBXX0+ykTBh6TPgS+wppOTk5vjOyTvldlHGuTgFTrbipiIBbmBCghyCPPvBr85kEk/iGcX+viVx9ax7/49x/HX/vOn8M3/rWfwP/2V/89/sEP/iq+/Z/+PP723/9pfMv3/AT+2b/5H/iFj5zF81cCJN4BJFhCNumiUEUSCMLcJ0+ruptSaQ+584kZSiYCDHK49tTXarGBcpbJaXMJul8vIKgRQ9nNJo+ZQK4+9AnK+tBXOeffTkKq+c6osCM7Qf+KssTs7ByHyjZhfOotrG0UaKr9JcbTuHsnJ6c3TXsayoJj5DUw7ueIozriWh0bvRGdsY/WglpWO4RPPzHED//ow/hb3/mL+Pv/8jP4mY9s4bPngTPbwAs01eeSGOfGEc6PIjx+Bfhvv7aN7/mBZ/B3/9FD+Kc/+HGcvThHDr8FWXGE2z9MeHaQJANCrUSSrvIM2ywNCzcBWUXMVCFCH/uAZDzkegGCyEdeZlyO7phwpHE1i9frhD3BWQFYgBaYJYH6t5fBsh01mgJZO+fkWqOGrd6W6VZJCUKubq4YxTGjXSqVeMm6Tk5Ob7T2OJQnaDbrSJMR3WUOP2wiiGdR75zCuSsxfug/fAz/7F8/ip/8+RU8ehZYz+h4W4fgzx9Cbd8BNA8dRS9so0/QDmvzSBuHkNVnsD4GHj8D/PrHgH/5g4/i+3/gIZ7Jt6A/WMAL5zbQnZ3BZv8iGh19XLSgNXAzWRbT7Isd2MlFk8LTsra2pqE8dmDzwl9DVsV1mQ3wr7Zx43asU66GVbE9M8WuxvEb13FycnqjtaehrI9621vncfDwLEZJwtfyHMsH3oVnz9bwAz/8SfzirwFPn/OwOlpE2bgLQfcOpNE8NukSr/UHuNLfwigs0fcLDHy6SAI57B5H0LoDvfEhXLyygI99gnD+9Qn+8T/+KF4818Dx0+9FX0XVaiMgVh94049/RrYonOBsnLLBnq38YNrJ4FBlqatq39Var09Twr5E1ZZVhvrGIEBPoawwXdLJyenN0Z6GspznYNynQy5Rb87z9fwAnnnOw3/8L5/DT/zMBFvjGYwnR5CH+zGhgy7DBmEY8vW9hnqtg2Zd7UXUydAQSVFimKonkAhhfQH19nFu8x74/r18zb8HP/bjG/iJn3oEW/0OUnSRBSEyQk2AtWATGKdOWVA2/zjH1OyzUJ7ILat6toGy1hUUtd5rk9KC6y5513bMz6k7JohNqACtIX/ZoL9OTk5vpva2UyZ0uvMxXrx8Bc3OEWTlEfzgv/oNfPAXEjS7ixikBwjOLlJCalxs2TzgvI8GqdWaNFHPmmiWLf5uglxHNupj0F/BYLiOLE9sp6vBEja3Ojhx6h584Oc28F3/4KfpohcJewU1Nq9iZRXcuCOThaGhfuuPgGizOXbAPM3GeP1INPS9Hqb7tP8sjA2EjUPWuBIIjU8TBDP++mPh5OT0xWtvO2UGYgZziwdx+VqBn/25z+HjD40I5y5q7btRBnN0yAGCeoKosY0w2kCMESI6Ym/TQ3KZPnW7jjgRlmM0ghKR10cYbMHzt1GUfTTbbaysjzFKumi0u/jlXwE++ItPcPv3oj/qEnlq1lNxMZTjmA36uxND45Q1m78NkNVmM8GpaWaZ1yFuxH5UrPYtaT/Xwaw42LY4BGGNc1IVHycnpzdVexzKAQajCWbmT+ATD72I//JjZwnSRSwsP4i1LUKIQF4fvIhh9hwBdAmRfxVNb4D5oI794SEcju9Era/G4jtoZCGakxyd+hCd1hbqjWvw46sEeo+uO8KZcxcxt3QnOrPAz/zsOj7zOVW5PgHV7LsuwbgCpCQ4TsFYgdA4VwHZQtlMf93atREzKhBXQNb+7LgF8vW4mPg5OTm9qboFoSxQvFyoJJrosBgmdLeNgzhzZhuPPbGJa6vA1jBC4dUJ0xC9wQY6nQZmOi20aoQlOT3ub6O/tYERh+PhAK1GA3EYocwnyJIceVqgyHJk6chkY1y8fAazSw2cvucknn3xRYzKJtb7wA/9yMfQmn0r8sk8Yxebj3lqYjIw7RwzavxT+vqoJ08MBGpaNFcvKCECtRJksjF0PJKOZYeUu1Qdu0Kl6XJVNomBuwW92bFZdvcyNo9b268SjGoxLSVp1zthOu0LpOWn61TBycnpS5eeyptcFhwvecwrwDCUE7q7CcHDUMr40R176hWEcEuTGFF0GFeuxvjABwdYPrAP9U4X28kqNvpn0ZkRBBuYDOdQ9PbBTxcQ1boI2h6KzjbSzgp64QWMok0UdNWTcJb7WMak2I/Q20/HzDDTQn98DZm/juZCgDz2sZ4AZy4Bv/Ths/BrJ+nW1fj8GHW/D48wV/WSnA41JSzzQNkIEcJ0FvVknqGJuFB7wCq1YY6WwKsqm3CCyGgkPFZB0lDztJyWtxU/1Iyn7cbKluywa3AZVayZqFusmMcTmqCaiKHHc8bNmJzwwm7brKNdT4c78ZqqmmQCF6pm37CYk5PTFyE9wbeAqkf++qCSqXJczVI1ZVLDtGymEg50xL1tHw8/fA4qpTbOahgkKbyoQHtGjf5sESJqNa5JY9rlm3yb64aEWEFYjpCHfdPCXK6G6eVqTRdQLQJf7Rc3uY8IQcB9EXpp0UemtpgD31S5Xu8Bjz5xBcO0xijVGcWpUxba6JYVRdVitqD06I7rdMrqnkpOmW7V5PHa47IjVXg5WXgaTY+9cso2G0T7U4o1zRIx0ohcMgFuKrPYcVsyhHOnBK5AbPYwXXfX3nZkYKywa9zJyelLl57cPaOqTYiqxpuaotzeTvHwp1fomIEstW5a1ZXr9RijUZ8r2Q9cliJavwLa9arQFkMijQWbHbdD7Uv7VRsSZtuBitPVuS/g8ceeRL83ROCr5p0SC/7lsqqhZ+OqbVTaPe7k5HS76paHsuBWQfjloLy5meLqVaDTaWKcFGiqUQd63sFwG34gyBLKDMYTmtW0DblHnRq7veqD2PWgBW3Ic7Xc5hsg+76a1IzQqLcJ5hgrKxn3v22qME/ofhUtNZVZlhbkNp5VuEE7lrYaOjk53Q7aE1CuVI3LiUphWMeVy31kGRDHMxiPS7Q7ajwox+b2GsfrXEdNeXJ5AlIfuqpX/53unSogVy75JYCW81YPIIK4B9+LkHNfReGhFqsnD2BjXVBWtocg7BlAF3TVu+Nt9QpwdnJyuq10y0NZ2u2UFSooyymvrAwxIhwHQ0JXHdCpn7oyMzBu1JVFIadsG7/nFhgskO2p0e9dIN4N5mn2hRoI2u2U1aVSv8cdTjQOOuUeQsZDQC4LgV/L7nbKN+hGVjs5Od1W2jNOWYDbPS75BsIt9AdAb5CjO7vA8QGhmGNuTv3gDbkB5SlP4agsA/PhS2BWqAhpAbzbIVtIC/zKjlC/ebmBr+eFxi1r3yU33e+NOK7SINoWEw1C/HqesiZV275R1b6dnJxuJ+05pyxdh3KIdmcJ4wSmI9K5+UUMRkOyt8D8wgwG/S2ij8uaxXUq5JAtPL8AihU8dyBqg/aZ52oPOUcU1UwToWGoYUOmHGlSmGwNbd+UCqGrruI32en+vtpeNXiZ/Ts5Od0WuuWhLMBVvXKo8Xf9VldJKmGREpRbykrgbLnk1fV1xDW6VhTY2trgMnLFwh//TYuDGXiSh9eLkU01ZaYdqX7YctICc7vdQZ+WXJ2QtltdDAcJ4yInXeN85SMDEWGdpzmXbZu42u6cqu1VYReQ9dPJyem20i0P5VeTsh8myu8l42wDO6ScYGvykS3xlMdbldW97pS1rM1rNr93SmLYeVYVRKtQqVqO65hZ1bYt8F+6nem6uze7o2riy850cnLao9rTUBbPbPvERB8ha1tgU+M/yg8WEDVDPYFUQfDUsppvG+mxuH05oFayS9hhNW/3clxvWqLj5beh9RhMfHZr9zJOTk63i0SJPStVYDZQ5lGq12kLZDngqVMmKG22RcQgKFenQ1BWU5pajnCs3K6BawXVG8G6e7hLOzCermvWr/RK6+3a/sts0snJae+qotDelLIqCGJBeaL2HxgsmEk6/rd5yWrzQe1AqEUKOWXC0DhlQZnLmlOk6QpTuFbANBI1XylIWrZar1pXYbrM7g+Hu93yrlEnJ6fbR6LEHha9shwyj9L0lUfI7s4rtq2jCba7si8MDC3MraOmKpf8BUDerVeiKJd/JYdtRm9cr/q9azknJ6fbRqLMnpWyLyyIxcQq62JXfrLc707WBMPO6RC0bZ6y1RTIBsxa70ZgViDVcHeQquVvXMfJycnpC3WLQHk35HZDb3eQdg3JQJVBFn9NIGjNb4G4VB6yqj7z8A20U/KWQSDmKdmpYm22JLDLOWtYbV/aDVmN26XtfhQIdE7WuqafPmWJ7CxzfTtmCpczJUQ0gUMbTxt3Jyen20u3AJQtyKzDvQ42i7Ddv28MAqMHX01hko8+F/VLn5uowZ+0CLymqVwy8YdAuEmjrJ6nE67JaZw3mdS5DY4bIO/qO8/8E4Ql7sGzDQxNGAJf7V9onMuXKdQkRh7kJqg5UK1vgD2x8FY8BeOCIeeVKPzp1jlfjeHz586enJycbg/dOk7Z0KkC7svoOiep68vZdoI1rILyjtW4u21OU20hC8YQkA10lZXBZSq3LMgaMFuIXi88oZHdofprgWuhy19cTz2M2DLSmqd4Xcf6jkuehmr7ArO9OFreycnpdtEtAmUnJyen20MOyk5OTk43kRyUnZycnG4iOSg7OTk53URyUHZycnK6ieSg7OTk5HQTyUHZycnJ6SaSg7KTk5PTTSQHZScnJ6ebSA7KTk5OTjeRHJSdnJycbiI5KDs5OTndRHJQdnJycrqJdBtAWU2vcVC1DGeaYSs5edqziJlXNc2m6bv65lOLcTvtuTk5OTm98drzUPY8tarM4aRF+DY5psbrc4YRyslYcxjUXKeGaniZ07yEv3lqTDOfDspOTk5vnm6f7AvjktVOMiFrHHHVPZTmTU+DaTO5ms7lTBdRDspOTk5vnm4fKNt8Cjvq5OTkdJPqNoByBeIbgSwHXIVKN/52EHdycnpztcehLKgqq6Iar8JuVSDeDePd405OTk5vnm4fpzztY8/IDHbDeBrMRz2FSjcC3MnJyemN1d53yuqw9AvGKwjz8M1HPoUbgezk5OT05us2cMpV9kXllCswSzfC2YHZycnpd1a3PJSLokBZlphMJrZMMoOkaUWRYzjsI455oIGHNE12lpuQ0WEYcckKxhpOx7/EssnaXhAEO/uWfN83+w1DFcMD2u02tra2GI/AxC3LMkSR9u/k5OR0Xbc8lH871eoRPB5lWeYMhQGngCmVpVxzBWQNq/ClS6CVtH0DfcI/z22ikWuEErglzds9dHJycqq0x6E8oVsllMnZosgIwdKMW2hOoSxXXH3gEyO/RE5WAL7RrVs3bGEtVyxVrrlazkHZycnpRu15p6wsDJlYueUg9A0Mi6I0QJ5WwLYLvmT8S9NuuGr7kgW1dceVUxaUJ5woUMutOyg7OTndqD3vlMuJ2rnggfoeoWjzfZWloOD7VTVqhsotvwZpm7thrKDfyq1otVo70wTiylEL1hp3cnJy2q29DWVystNpmw9ulpkWlmYWrbOC1W4Ya3z371dXBWABV8Pd0K3Xgfn5+R0Aa7oSA8lB2cnJ6eW057MvDh8+TDDbbAzl7YrJKvUgl0xGUl8ahG9U5YAFWUG5Kg2irIpGIzRQ1rimKVRQ1jrVuJOTk1OlWwfKLwHoy4Sd7FmOmEoiyjNOcfhAAzMt/iw3UWR9gjMgJNuEYoNA5XpeymlDhoQno+SqtNVlk6EFjyEomgw1+CWha5x2yrM2xsSEhGsI9MojViwKrs/tTIaIggGacY7ZpoeaL1AXKLi/lGuUvrbDOHJaUNJlmzLSE0w8Ludn3C63qX86FB2SObgqvJzsUkZmJWWiT4OaI9V6phlStZSnLBu7Pxu07vQ2UOt4ak96R66VPKfXqZ1sQd2X1b2pe7J6S6zuP95r5jmQdt9z9svPzv3K+5dPjHnm7GS7nnk2tU3uz/4zM83fW03VWbiJtevEmgusKF8Pvh8iDCLjVFW6YjJRXjEBR1hmySr2L/TxwN285HS0nRbh6dWQjGOMk5iQ5AX2e/CDNQTeFpdJEeRN+PkCkC8B2TLCdBFRNoOwiAlPFakb8j7YQhEyBH00uwFWN64gjjwMeqtoRAn2LUzQ39jEux+Yxf5WAm+0xjgx7rU6/FYDfiNGmg3RiiNEBeNfCH4Tbi/ldgcE89jcv4HuXxWo3rmJOVEzjHQuqiBpqHlaTssrqBlSJiKaPmmYhAaTGn/z3JmbmoHnwPf05sCfXLacDHheOJmzfK9ul3Vyek3SPWluLAbdm7of1YmEhjIAugc5z4C1Mg2cZNbRCN9CBVmOelxHz4JfhlyNQWZIa5e8d8uY45yvaaYimLal9bV9s8FbSrfQE2cuAc9xFXTyFabTTZDsxVSQ+83Hl/F1f/AOdGh+h/01hHStRV5g//JBjAZDrianPCKc5ZbVwD2dqgJdMBis+6WD1kXnjWHmGUhqHx5WVjZxx6l7uK0UEeE2zx1dOtfH0izwNb/n7YgJuZCw1/Klx60oi4OJhm4YnzdOUDJhoQvXtia8+0ruo2QcdXPt8Fc3l/mxM2GqG49dmi5XOZLq5jc3fuWUpWqbWre6DTTNlhQxMsvu3raT05eq6v7UPan7jfeYMQwaUjtGS/faS3Ek91tJLtj+tk7Z3qvapF3PuGQTBHHrlK17vvX00rOwx6SL4hNKd5w6hJPHpwebb6JINjDYWkW33TQXUJd6IhgGdKnRCibxBZS1Myjrz6GML3HaGsqwR1gm9jJP6CDLLu+tObrpWURYxOqlEZohSZz7yEfAe9+5H0cPH+CWdaOYPTDslr1t7CvbNFTjO0MOXreqm5XhC8C+e3wan0pmluK3a5qTk9MbLj39e1glioxO1RviT//Jd+DQPmBj5TnMdyfob15Bp9Egp2KCp04GxcbJlj5f4YMeTeUa34IE4y3+Htq8XsMnm+fsFR34eQftaAlrl3voNmawMNPF6pVrOHkM+CN/+Cu47S26a72uVTBk2HGnChV85WKV4t84lF4PFKv9CcgVmKfDKj7SdGD39Xr25+Tk9Hq1p6GsrIdhbwUz7RJf+/sfxFf+rlnUyLp2rYe5dojBZg9+0aTjnUFZzKIsO+RTjfD1GQoa1gyFn5vshpKgnAje+gA4BXJQtDiMMEkyHFyaRTK8gkYN+IN/4DDuf0sHs90hnTpt840QlET43S65gjOUH6aaf18OKEvc506isBvIGu5WBeTd+3u9+3ZycvpStcehXKLdDJEMrqK3+Sz+9J94D/7IH5rFYGMNYbkOZISmPhoQriY7opzFhIAGoSvwQtP1gUzZFeZDWZ1GUyHmej6CskQjKlAPh9hYfRwrV9bwNb+/iz/7Z96BIn+aQL5IpzxkTKb5ugaOkmBXgVjDyhlrOJ1mAie9LjDuArHZv8Y5TfHYAbXCVGaU+6smuawLJ6c3XSLCnpVyi2daDWxvXMLm2tO461SM//XPvhu/6130oyXnNQsE5osu7W1BKOcL8LJleOlB+MkRBOkh/l6El88y0B2b4nEx15WfTRB6W6gpvzk/g1ZzhK/+auCP/7E7cezoAGn6CNLsWXh+fwrDKRAVduCn0z8F8O7hTvhySDu7Yf82AtMhw05i4eTk9DutL9eTf3OKTm88TNBp1nH61BJWr3wO99wR4m/9X1+HY4eA2B8j8tYQ+Nt0tUNiMoUKRgR0z1HeQJgTwpUr1vRJThgPCeNNRP41RMFFZMkZlEWC9//uGH/zb3wN7jgd4cL5h9CojTBH023KNb8EiJXkQgXmaqhLMR03+jKB8iWO+MZQafq7WraKgpOT05uuvQ1lHl6jPoNJ4WF75RxmWyP0Nz6H+c5l/P3veB/+4v/7HjQbyvM9S3jS7bauod3aJHjXEZUDdGMPHZrocDJAhB5m2wlmOz1C+RxBfAVRuI2TJ4G/8Bf24xu/4StwYN+YjvsyOg1laxBv+bQYz07WhYJUwddDluWI45qp7RfHMYNq/xH+oY8kgWkDulJVK3B3le7Xpwn3n5qW9DTU7yQZY4aJyXCoX693+05Or66qmYI8z824mibQMOHNr5qwmifpXq+WvX7/8wnicHfQvGq+wq2oPQ/lwaBE6NfpakF3S9A2eljobuHIgSHe8dYG/uH3fg3+yB/dh7ixiaurT2M0fhT1+AyC4gy2rn0Ww83HUCTPoUzOYXPlBVw+fw3jAXD6BPA1vx/4pj9/F4fHcfQInXe4SRD3MckKFORzwuWsA94N5C+U7h1TuYQQVBOjZUnHTmteU92NV1nvi1LlxL8gWAm8qoKuhEMJQRCoqjgTIiYq+u2yNpzeaFXwVLMDauV2d1MEt6P29lFPAl7gGprNBUI5Qj4ewct6yIfnCN1zOLR/C/feO8b/9g134B/+k/vwzd82j/f/HtDx5jhyMMc7HwQOcfzgMnDqGPC+9wD/y58F/upf7uD/+Eun8ee/4T34ivcs4thhfaJbRzJcB3lKpz1Dd82V8lnGgXTbgfIXBnM/Mniqeu3TCU8y5CXdsUcHrcp3ZrnXKm1cl3j6AfEGIFcyUOZ+wshn8JDwGNQpihKG17d/J6dX1273q/GqY4hq2u2oPX3UvNwEXQS/1tTVRy7WKSUeZki21xBjA2t0w2HwHO67L8ef+3+cwrf87bfju779LvzNv3Ia3/j1d+Pv/LW34a/95Xvwl//CXfjfv+md+Ivf+NX403/sQbz9vhk67j5B/yIG22fR2zyHbLyNwPNRCzt05TM8uW3uV6UqpnB7ieu009TG88T0iqLyzAVBqHcyNTeamtczu9zrES/xSz4kEsqVe9Z/htJUH1fDSjZhGPM8yaUXhc3ScHJ6oyQAC77KqlBTCeJwlf0gSN+O0lO6d0XgpARLkSUmz4pGkLDx0YgjdOMGOlET+2aapnjc1tpThKvym6/h7fc28P53H2DYj9/7FfvxB99/BO//XQdx94kIrWAVef8FpNsvohxdpSPumY9/cZCjpld+8/pfIE1L7rO6qSyAd8LOBzU18Ukoo0BeKO84J6SVjUBIqlGiKUNfu7iyAbGcshKHyjFXl9069f9/e28eJNlxnwd+9c66u6qP6e6ZwcxgBoNzAJAgCRAAzyUpCaJ42Tos8aZEr6yVJdlhW6H1oQ17wwp7N8L2H/Ju2CEf4fChWGkdlinJWq8OgxRokBRJAcIxxDGDuXv6qrveWbXfl68LA2oJmhqaQvd0foNE1/EqX773Mr/8fr/M/KVJJOOcMn8qpU610mi6O2VSWS0svjOQr3imipXIyyaKoz5Tm92PmLXOGxLyl5ZIcKO4T8LJEXhknyxkqsHXYpGBT9UMLDRaOLraQNVLcfX8BZx95qvoXXkJlekIw83n0d94lul5EvFFlEnALRJ7nWa+Q+ld8Uj0JFKfpOyU2AHkA5r/XWSTAUr8rJgOR3xDchUpivQmfCV1nJoEJ0el6qE9Xxx1/dBJ+YgNIevvjJD1eVGgoiFoUESDior9MTFuk6UD8yTowq1hYfGdguqfICEzI+FXhsHdjyjuyI0KuQOCDHHeM/5R36tg0iPNdAJgNI+kU8dg3UfnyoSkS9LOKzi8MI/jy8fQ9haRbqeosdKUSZghTfxKyUUjqKLq11BKSxhuD5DHCdJojEkmQovYCQxR8rsoBdtwA81RJsl+E6jj0AYoIkaRs2ZjyJUx16rh6LFDxUHfDl4m4q8n4xkUWU9qXZ1Dyk5GbaReB1ZXl+EHInMLi+8czBZp02K2xXA4NDOOBJHytz+7aG/ixiZlo/JSKsARzXP2vkEZETvjTGZ8rYawTBJePYSl1hJCVBB1U/TW+xh0SbY03V2q7OFgG+WghNZclTcrw/raJaxfuWR8x4cOHyGPkuQUE1nkXQ5Qq5YRhprKk9H8J1GzDNShKKK+8Ti9N76ygiAnipEpUpZvhUhZKZ08Q6uW4ujBMjweqoUuLpOiyhWhPKmsmSYvJ4Uq1eQ7ZjQNeEzI/qjCRHadNJhYdhMPWqZiQp5OFTcJaclTd8PPqjyPDyfJUWZ+zap2TAkQlOVrVohETe1TA1HSmYRXEjzPzUYkV7WuTNHu9PrbB3NTlDtzXt2fWSehe6BVkvqOn88sAcGcl5/P3DYvl3HvQUaUw7ql8VbF+lZEw6nisHhMLl/r0qZaYarnG7KOuGYxlEcB4fJLl/dA8+5V50y9K7I1Gav+TBXn21FUQiW9pkQQGVJ80F7iLyheoDCZqju6l3888R7PnrvJj9aeYsS4McsXmXgxmVNCyraRyz22cy5TP5jvlPXU8ZrIeQ2jeIpBlCJK+PRY181zU/l1Taq7JpKirkJlVOJrHaa6PvFNm3K0zkDCiLW6CN+pkfKderGHsPdK/CeAKqFIrVGtm9jJ45SqcI5quZEjwkVE3mUMkwtI4k04/K7q1lAJa3Dl4aDSTYNNBOS0dBqz0igwUYRay2dihXUzDMd9lNwAHpWzgxqyOEASeZikIbwSSd8jKZpbTDKeeKaCOVpByCqvkINTppJfYkVkp+GR8rMpmjyhR7Wc9Z/CB7/7JJaZRTsMkY+GqIc+FXmMra2rqPE6RukQmUuzj40pN5V0J1hSNsfr0erEJV7ICtN80WB51XD6/M2Q1z7F2C0D5WX0+z4GazFOLh3BaG2KQwvA299xCv3Reba5MUsvYlY8W5K0IUi1BkF3WOctmrxpI6bB8ZXalDn224HyKQZAX463+/Jnskxe0fhMvBBCRdLnIg1zvD7Ym1AnHuQukwiW10RCzoKI9ZLJH5iOtVo5iN5GQEmxwONIzOzVyx6f0iBFxWuwTvvIxhHrZoJqWDb+2sFogP6YJmPAe1meICGJDuWqm8RIVI98VrqgzTrZpnIloaasq3nAvz7iqITRSMqWNYJ1SjFhjC5RSFwnQcYOI6O1mPkjJEzOXJP1zEfE9qLmUArZbmK5+BxUq4f4+wPojqoYpAH+6Lk+Gqx7UcqyVxuY0hqNuzFWW6sos22mMdtoo46Ebag/TnD4yAIOrt6BeMR7xMcdUkRl8RYCj4JqWkWeaIB/p17sIdzQpGzar0mFihRxpbzilBUkc8fISU5TpyAdE0xbvbEhGPbqJOCcx5j4xkaNUkl8XZIfWKcQKanXJwEYUlTiayUpuEJGMEkpK0nt8pfmPOzbswxJnlIdkMD0PX9HzWriaVT8Du6/7wCS4WXkURfb61ewemAFtxy/DS++8BJarfaOQlH857FRUdoRpYgRzUbMchaBlfie3zulIf/qmJgNesLE87FT8ZnuPHEcLz71R1huAh//4QexufE8f98v8qLyLNTyjtrShb+Ma6RX3A8mQ8zEta+uE8plRynz3pj7KfCaCuL9BkrZ4JXHf9uFeM1QWFiFlVVAFtLOpekvn323M8KBhVVzK0aDHgJadRpxJp1j0JuQ7OoIWydQbp3EIF8g6S6jvXwPWkt3ktxa6A4cxFlAq7BKC6+CwGf9lX83GiMeD0j6nhlj8PyJGSSv1UI06rQGyxQZplizp16gKK/+KnnYWOuz5ZVpbbos3wYF0BbmmvyE+W5udTBkdV1cvgWPffEZrG2Bahmo1OfZHtSmXJ6vyrq4jjRhp8LXw1GX6jqDzw5FeQTa2k3PmNaliqPp/nLF6fpNe3z53u0d7L0S7yMo6P773/8GNogMtQpwaGUeVy+uo3N1jHZtBcOuloWzAmo3FG+TCucy6+FFTMILRRxovQ7Omc+m3jo5iupI5h0JjfqHjSVFv3uZpDyE73XBeo9Td5Zw791H2CCvYqFdYeX+dtWuxfVCVFd4x/QUfGMJGbLjI5FbQq6KeNyB26CVNenQ6iKjBROkETvfCk28+iFsuTfjhcEhfPFsFZ97uoTHnwnw9EstXNq6Cb3hcbjuHQh5TJlk7eesZFTVDgVAhfk1fNWXdSSTK7QyLyNOL9HiXCdhbpJc10mya6xDCcsh95oDj0rd1yB62kSQNBHGbTSiJubSCupZiXmmPA+LSMHjOB3m24FPco/Zofzmb33VTMV03CaFQwudToaA11BplbE1WkM8GVMlB1ToHSrhiKq4j5sOltkuYtbfmEqeQkl9NRmt5IQ7963oxPYaLCm/xtBAh9JsFFrQAEdGBZ3nfdz7ujYeeaRtQoKGUu+suZ2rPRw/dDviAbU2G4NRslTCZu9AxYJmMkH59ZpkKzI2O6mwactt4lCNqxEpyl2jMmUj6eHpJ7+Mhx9w8MH3PYhkdAHNGs3RpGfytnhtYHaiMa4pEXThg5WR4DC5SiTDss8X8SayaRf1hQrGWYQrVM9u4wAi9wCeuejiX/3HZ/C3/vfH8HN/9wn83P/6Jfytv/vb+Bf/+il86as5Ot3DGI0OIU1XMMmoUEmgE5mTJH4NAOdTuSUKwTnVHHqe3KVqLlcc1GvFNkzqHLTXpEdL08t9eFnZxI0JmddSZQn+gFZNb4g6DZeQ+VDQY8T+oz43j5LXxO8++gSeehYk3Saq9YMszwSdXg/lOsmVgqRkvBCsuzx3wPfOtActNj11xwKq4RCuRAkZ2Rig6rxKPu+Z7h0/e4WK3yvgpVnsVpRKQ1a05/Gjn3oQd9wGnDvTwc2HDuDwgYNYv7iNg4tHSbBlQ7LFtjiqlDNl5bByOnytaqkWxQY0qbNRz8HNGqbhsG1hoeEB6RUEPOQD3/c6vOvtJ0n+W6gFY1y5cM6S8msIPbmMxKJ43jlJuRjUq5CQPZJgwERTn511TCUJWjso5+jR2nFqTQwnTXzmt5/Cz/78b+Ff/NtzOH2W9SlsoBQs4/SLPkn5HH72r38Wf+GnfhV//x/8Fv7z713Cla0mnMpxBM0TzGsVEfOI8ybr0BxVeJPEXEdEwh4nE7OPo+drEFBuLVldImYpZpGzVLNL1cxKNY7hxrToNEOJusFMfSf8oEKVfBhPPt3BL//KFwzpT7CEJAuZm0PSd9nRDNCJt1BZqBrX8GBABa/hg3RgBqPvONmgSt7k0X1+qHKw4yqFSCmPs5IGHOXC403aY7Ck/BpDiljpldN/pJqlngOqoOHga1hc6OHH//wDuO8eGBXrTno4f+kZVNxi01Wz27aZbaFGW2fNr7OONpj4WpulmsD8bHAZCZmmpUcT0zSaSYILLz5H9ZLiEx9ZxYNvOsgKfwn1MMIk6mCuJq/m3qvUNwoKpaxNFjSGobELdawV86wVQtZYO+o0pzG8YIrhcGBUba19FE+c7uD//GfPmVgSjWoVPhXp1TUXa2s+gvAWzC/dirB+AJc2gN/5/AT/2y8+jx//K5/DT/+NR/FPfvlLeOIlD2n5LuTeHVTGd5FA74Ib3EKiO4Qkb2EUhxhGGrLWLA1RclFeI7GZTL0pZZgOt0nwtMzYUSi2lr5tyQfuncTzZz38+888jS9+lWVsnUCnP0W3N0IYulheqaE7uIJeTMINpH49jIYj6mCqX+Zz6lZgdXHKU/ACaFHq1I5G6EsByZztqhRThWu3oL1Xfy0p72JoABKTDrqbT+OhN9+E//HHHsTJ4y5C7woWNYq9fcFMl/NIxl7ahpccgJOswKEpWkqXmQ6YGRiOEr9z0wUe19pRyWpOAyw0gfe8cwkf/qE3Y2Guj97m19jYB5RfCRYWmMdedMrdKCChaFpZroFcQ3iaGibLSKSsKXDaoEHz710SkitRSpN/GVc2Hfzaf3oKZ86Qryig/cSjiK4g0NQ5/p1kFeRUwVlpHlmwijRsYkRTaY3V7fEXgV/6j8DP/MKT+MEf/w387mMuHv9iiKdPt7G2eZQq9E54lbsR1G6HVz2CBA0kVKeZQ2VLNtFsoNxlmWfT4irMVLM8XIqD8gpf34HN3gk89qUS/s2vnMGjn1cB20gmTLQAtJ4gzbZN6NuptlPjtfWGGUpOmVfva4UTKqySj/wPd6DmDzFJNzHVRep2yZdMtazB8wyU5Z7CBOw9S8+S8muMb+pTzlLjQ5xv+jj3wuO473Xz+Es//QjefH8Dt95CI296FkFJYUYjyLUof57PJPPWoxlpBmDUHkTcNO+8ScpqPSYZdxGWNhA4Q3zsw7fiEx99GCtLbATpRbQbJVQDj+q5img7etktYvGnD7kvzN6QO6RcuKFIxBMN+Ek1e3CdAA5VpD53vTIqtVU8/ewGfu+zIxw8XKO1c4BWDxVtUkJ7bhH1ehO9wRidwYikOkeibJGYFxG5yxhM59DJAmxELi72ApzbCPFzP/8o/s4v/C7+8T/9A3zmty7jiWdJ3tuLVLAr6CdLiLCEGPNMc4hLdaYqYhJoTIKMXJZxro3tUYYrPR9JcBLj0il85dkyfuUz5/FvfvUy1ro1zK/cTqIeoVqvYq5VwaC3jmiwjVoYoFqZw2CQwS+VacHV4GbsBgLgrfefYp2meFBURlp8JVoSJccz9yifasYUSdnM5d57Stn9nz9d+V92Xlu8BtBqpj8eeEWrmUw8ACYtRpmkVEOuBnoitBdC3HXqJswvkixLfWxtbWPQ7yMed1GlmdisVeDRbCwpBrQ7olDoIvDG/EzHXMR4cAGtRhdveWgJf/ZDJ/HIdx1DNbxMM/Aiyt6QSorqIi2xwmsrrLJRPyX2DP5UnQDLycqvqYVSRvJdK9bHlB2IFitMp1RgpQV8/ssv4fT5nJak3CiaJ3p9fb80uiYOamFKxgYnE76Y3DhhR6Ty6KDCdM7Y+HIq/FZ9gne/9SSOLvEe8tqnjrzrbNRTqSYe52gQqMhL1+PnmoMtpTeP585H+L0vrvNoKkpei1kwoUZtVOr1QOWdLdqhjFUPy3eaP639HqV8jbeYz0dq7757G7j3zmUq4Q47TZa3pGmZCcuqYmiTX5/l0gIkdbj8O+UrmuxZqs1+p6jMkViTOTz2hQ186UsjDIdNM4dec/RTnjpOeS0UAGG9zHxzbA024IQaqpOPWK6ICutci2VdZPlI5tkCkpGPKK7iwuURvvDlM/gvv38aX3nyKWx0xojl2w7nUG+tMK3yfYCe5jBTxU/dBlKnjsRvolQ/TMV8HF+74OHf/dqz+Je//GX80XMZKq2j7EvmMUpyuJrK51Bd5wOUFcKA9U3jIBFVfbU8D1AtB9kYpXEH3/99x/E97zqJeHCGx1KQSHnIscEbZe6wPzUzUaZ85saa2GPCwpLyrgbphG15ysqmpdcTBT4KqUlamtsZ4uab57G0GGC+rWY6RhIN0etuoNfbRJpukzC32dh7VN1dlMMeTtyc4R1vO4gPffBOfPB9t+Ptbz2IaPQUFfNVknaPRJyQEDQ7Q6ukaiQDj+YoCZ4k/2qkbHyHOUmb5ChSTqdtfPYLL+DZl0hEJITvNCmb8Ai0MjTFXLNVtMHAOx86hpsW9GVnb5MydWiuwSoepT0iZ6Ssf1rpxytgvj7ShNdAUlvXrIvyQZw9P8Wvf2YD7cVj6EckpkqNRDzHvBwMIpJ1ws43mKLRrpKsqSh5jUWezF8+a+PmqDPV0G4fRFhpkTwrJNspusMhLq8DzzzXxeN/QOX81Fm8cOYlknRGci3DC1dQJglPvSV2EHWc3cjwua9cxK/++hP4v3/zaTz6+DpevDRBNGnDK7ehWq2VgCVHUzVj3hGtRuSdIcFLFMRUBTlJ+/BCC9HWOdx9SxUf+YGH0KxsUkR0eU+GpvyacWH87rq9O/mp7hSr/VQH9w5K/cfnr7fGWXyHocqU05z0fNKQM8SY5Dr1MtSaLXjBPFIN3LmHcY5kcvZsD1eu9nB1fR0b2xtIsimPARoNx+xmsnJgHieOH8SRgy1USOxZfBl5ukEVwkZL41Oj5moIzs6msdqtW6P+cciKXxqgksfwJqr8LhKS2piZawmtAkg7ZMZqKWBZ2xQ0N+MXfvE/49d+fwK3vsxzqHFdX6MQabqaksXGNpYi1FJ5Nlp/mqJCM1b+dPIRyZ9ES8UXxRex2k7xt//K2/GWO/j79JxRmiwtqlRgIrexW0FC8zrjNXgk9ooICg2a2ifwG49t4+d/8SmMpwv8rm1IcDpbUXg9oEIzbgbSvONozi+Jme8oG9nJkuiY/2Qas8PcIvGs4Uc/uoqPff/d8NIzaGjhzrSL1B/z+vmbbJ4EQ8Ik6xQzHEhcGujj9eRUkG5zihfJliu3PIzHvhjjUz/2KBYOnUSHVzfmb/KcP9DZ2cEoPKxDpexqybPCCfA+FxsBB6wDxUCilumrU040+0MLiJwEvp+yLpLsWB8mskLyDBsk6FYTmGuAdQmoV0HrjsYWL7VHvhzwtJu89CGNNu1w44erVOXqvPl8WC0mtG4ckfGU1paZtbFThqxqSDYrT9Dvr6HJY5aqI/zoDz2AH/rgKYz7X0K9ts1MWA4+I3W0WjJifO+6z86I954vzWA36+AewvVJGIs/JUi/eDTPyghodvpsTHkyRb+7jUHnBUSDZ9HdZOUMz1FhlfB9330Yn/zo6/BTf+Eh/OW/eB/+0k++AT/2qfvw8Y+cwvd+zwruui1GNXwOWfSHbARnqTZ6oIFIhSzyK9RSUbEpMjXi/y3M85y5X2Yul9l7/mfef6ch//sr3T+axKLPXjmbZe+iUMQm9oN5r05RKzQVQ6JYVWrGHRTvkh1kRavspiMsL4W4506gs/0CyppBQ3NecS680EWlFpIYaSnQQojHwx1lmrEOKJF42Un40wgBkz/V3PcxCXSEKBthTKaNsxLfkzCdNlMDx29dQWuxze9cnL8CfO0s8OwLDl686OLiBrBG3hzxOydss28+aNT0YEyiZ4eoVYKaX69FUoUloUiJqkOyJArLoF1xUWOH1lnr491vPYZH3n0b6+85NOssRyIXBYULCpXMW2Xukf6YsALGdfGdr4P/vWFJeVeDxq3iEaQjKh1WYqrRKjv9GhWG+n5jksfrVBdXqJzOwU1fgJe9iErpAuaCDbQqWzTML7LKXuAx5zCNz2IyPg83GzCPCeZqmhqnAUKawRPKHKo6KY3ciZF7faaBUSHfDBqgfCUZG1+4+awg7O80ZsR/7fzFZ7My7WVoebVDlefIgpkRM5/HhKpVSa6NKI+ow1MMB5uoVCbodV9EvbKNP/uhu/l8Jxh3T7OubGNproSFOvOjqo66Xf6dolVtM28RuWKyiAzYkcltYhYiUam7XdTqKeqNHOWyrIUEUTTCYBAxofA1X4xpnbkYRvMk/kWWaxnJ9BBLdJiGwhHMte7CfPtOqtrDzL+KNGJ9HvdIrD1Moj6JU50Cn5v8vkxaJGPcY64GOWMMu2fQ9BO8663A+997AitLXfLuOQRlqXYRsVxRckkVpKz6q46sUNwaEN17FGdJeRdDqsihyZjSxItNeNASfAU6okKpOi0qiDqWW/M40KyiVZ6SjGmyRdvIehvor13Gxjma78M+EirryWiAOhXVcrOFdrmMlCbl2gtUSqnmL7eMywKT0FTqictOwOdvvA5ryDcnZcW+FWbKVO+L2SR/OqQ8O786LZ1Pb3V+kfJeV8svkzKfi4iT3Qw/5HUaYi6STyXJXhZZPkS5QpIeXyYBdvG+995FVdlCmeSbbV5F78LzGK29QKu+i+pkilDz2zM+J3XGTJogmZVcExsmYX4xiTD1SL6jdarxAS21CWqVgKlG0p9Ds7GEubmDPNcqifsgao3DCKurJOYWVXOIYewjSsu4cL6LtUtdWnbaCMLD6tI8jqwsoRF4iPtD+CLPrHCXFOWgdncmSDWdzu3REuzjyCrw0//TO3D8aIbN9S+g0eiTrC+aOmaOl1Lm3SmUcnHfiimDoSVli//OoDkXlGO4Pk08VlSwAk+TJvJRC0m/iWzQwJUzPWxe7GGs6Wu0AJteCwfqh7HaOIHl6nEshscQZouINj10LuYYrnvwkkWahbdgefEUnGSV4ugAT6X9BMumI5i4A0x8Khlf/rpigOzVMNslYuZGECHqM9Ng/hRI8Y+fX6RcnJ/KaY+Tspqnpr+JmIsZBKTlkuYuy31RJC/UFLAYFapgDQIHNKE87yra7S5+8IP34pMfWMJ77nFwvAYsTCIs8TcLJMcwcxH3MuZf5e9rSNjZR04FQ967fuCiFwIjnx30NKc4TzFlymMKhHGK8TBGb2uIzatU3PxNThUfJzmSLCdBEi6VatlFtRbg0PIS2nWSrtwfnSsmTUY9lHk91VIdHkWBm1KxZ21WmDqJVSqZ6j+gKAjWcepu4INUyPeealKUvMA7cAGOu0WVvmnaRDHsWwzcSgKIl3WvCgtDpFx02nsJlpR3NWiSs5o7rFcBW1u5rJVZVBRTmmsZKy9F7OpNN2NxaRmhHyBloxmPRsj4V61D6qq71aMKcdGqL6A9twTfrWI0zDHoRmyUEfPX0lSZjUWl1jnNbihyA/CPBtuKGRBaFKBBHzZUNgAzE2BCgtfgm5OzIQ2Q+STzIIJDYjCbc9M0llKRr1oqT7MQSCFM/Mt8i4hivLipBmnYsKR6+DstLc7clElES5VIBVXEB07NoJBM7CJUJH/v8mTMo0RF6EsB8rQBf6ddX6i3mD8vgv8p3yKGxM51ka/1V+pKn8/oW5+bGVb6jEl/X1uYOQT8q0KxcOa+mS/4yRTjeEA12ychV/hVCaEHEmcXVy58FffeXsfP/syH8HM/8b349J+7Be98Yw0r9Q6ciCozOYtmuE19vAWvVAy2GcLns9WgWcaHqJkqflkxj/XkRIC8xyTtaqVKhVxHvVrDeDBENBwiT9gh8FFWAwc+iV/uiWF3HcNtkmeaoFH2UCmTbvjsMnYiU5edSIUCA1THU9VpWQMaQRmbufehcwllJ8L3v+8kPvyD97O+nkaermPhyAKiaIg6rUMNgKuim3pl6qluSvHQVNM0O8i83WOwU+J2M1ihNB1OpKPaJeU3mRaBxB2PldHPkVKBpJOYJEUi0iQHjzRO85YGKCtmRJWdm2D9JSkraDI91REVkBOwkfn8zJiJJGeHDUWuCk2PEslpoIRKw5PioFqamlCnbGxmahqpT3E0RKZThQLtIWa+aTBAOH8Q//UrF/HsaTbhyQrN6RQe5WueRmw/CSpsuSJldRrVsM7P2ZSmAfP0DMlqCl7q0XSmdaBm5qeLLAdlHhuzoxF1V+FEWV6pY5qtWcoOKp5ipU3rYXsNRw4An/7423gjziNlI5bJrBkcCl860an4G94kfqYJZepstGKumBL34rkIn/+vNNc1kFXSnGu5DGQY77DgnxjqkHbyMJ2JdKSe57c4JY6dkCkzWVhT+0TKhnJYFwp3Bv/xAz9kh5xOeC90b9lRsuwB73miMJdJz8zdvvP2RTz80Ak8/JZjuOPOKpoNTZUcmN0+JnmfnTwtI/Xy6khp9iOj1cTeymEdUZ1y2elrQFElyHLWQ6pizb5wWV88XpfHDtDJWd/yMQk1QZV1rO57JH3FAGdtTEnekzES1rHUp6AIysj9MvxaC1tdliUZYq7KeppQCY8TPER1/5MfvxfverCFSfw1iomhVluT7FlGdhiqLynbg+bQK+kZF35x3SHeM943tQkNhu41WFLe1VAFU/+vVFQ2kaaSGYU3f5VELq9Ms+9JAiYVv5HEuvb97BjtBKG0c5zOowZvlDATiVeV3pCyKroxE4t5zCJvn41WGwA4Vf6SPJOgjmyyjC99oYNhP6CCK5LHDkNLaLXYRCSXUM3HClajeXu8PqnBry8btQ47hCCrswwskxbCmFjQJHcdJ3IlsVXDeZSplp2EZB1v43vfcxNuPaEQjy9gvs3OLJFm0qBRsQhDI/vqTMzCC31OUlYQm0mJpPxShMc+X5ByRrNcO3C8lqRslnWo8zGPXmXQXdK/WX0wX+ygsDiUt+lUeU6FZk3GHZJ1h9fIPCsxrSoPx0608brXH8Vb3nor7rlnEcvLHuJRB/1tuSjYsbJjrPolErtifZOw+VSllHU6h8/frD6VCuVZZcE5VL3FM9ECHv0mQUJ1HLOzTGN1giHCWgX1dhOVubr8K+iPI3S6fWZZwmKrirkKJURXg9TAW94I/MD77sY73nwQTnaGpN/lUZqvrTuge1ZYdgV0T3Y6K/O+eDVrC3sRlpQtXhVq/Ma9oAqusKCs71KopuFrhRm/pxjCiA2/QjErSh8OAxw+dB++8PlzOHN2neqdpK5Vf2zaOZWVGrej/QiZZ6q5xmz81D/MSSYoKyTJUurczyrwTaegDkHbH4mQ1Xno/OoUqkxlxP3M7MjS33qJJJLgEx97E1pzPbjuZSwulGnK0zLgGaSUixeFUi6ITQ1X1sE1Uv59KmUtHhEpy62jcr1mpCyryJCfCn4dYMdWrcvJTHVKi2ac9jBOukiyPp9BhHJ5YgLO33PqKN71jtfj4QeO4siKBgCvYtTtmKD5tSatLhFtQpUb0/qS717PwJGryUWP5Dqico743FKXVgvV7zSssb9kZxouIHBWqMIrZqeQ7mCIccR6xDwqJPO5SoBssAU32cJkeAkH54GP/MBt+Ms/+QGcuqOJSy99ETWp5x1C3i+wpGzxqihIWUqWVCoXh1FDIiiN2mseqdSZFHZGcpUyojBNA5LiUVy+OMITT5CUjd8vJElqoQS/15JaT75KRRdjYyPRasWgGp7RQBPF5CUp52W+JiHRbDVT8+R+EZ/tKORiX7oA466CKvkY987TRC/hA+89hXarj0p5G1OSTylnB8IS7E9SlnbVmjnFz+C5jQuL5WAyCzZKERo15p114U17uGmlgvtffwwP3ncUdxx3cXh1ilE0YsdLPZuzFCRTj7/zjCslN660ZquOgOTqlXlfPd4tPm6dMWa9yLIS861Bu5loILJc5dPjtZYmmgrX43PuYGWOeUcDPPz6efzNv/pD+MD33IXuxlexvfYVHDnM55DRQrru+783YUnZ4lVhCEXT5Pha7gv5NYuBE32u1WUezdMEtUoZkzxCFGk+a4N/gYX5Qzh9+jn0Bx6yvIpyUEfIJOKWYQ2avKN4CFc+S4ckQRNZk5uKQOlSyiRe0UmwZfZ7K8iJDV+dwY5KVtzeeplqneZt6PXw0R95AHfdXka1vMHGv4VoMKZ61tAff7tPSbk/GvDa2NmRMD2mgJZJyMQ+EZVwiu76edSCjKqVZYs3MNo+wy50C6+7fQlve8+DeMOpO3Db8cNYqKe83135p9gHpyzjmM9fUdr6SF9O2nCYVg1JXxvuyt+cDHu81j6vY50d9gUkEcmYtN2uTXCwDdx1PMBf+4vvx5//6LsRTM9j4+LjWF6I0Z6PsX7lvNl26pqrYn/AkrLFq6IgZZKHFJfx50oV8wsNNEmpklzSUYp6tYpozIY3naBWa6LfH+LE8VvQ78V48ok1bFwdk0w9lMM5NkxN4fJY8zyMkiE8EoPm8s12zdYAllZiacmv/NxJ0DMDjMXmqIVC1jQx4+YgQ/ilHpLRRZw4CvzYJ9+BZpUkHp8nGQ9I1Mxb5WfO+5OUS/ADPieHVgpPndFKiceR8eUn/JuMh1ha1EDakJbGJu9KjPm50CyTjrqXceXFZ9Fu1nD0YAsPv/FWfLdcHG88ZlwcpXQdCnVcymn5TPjscj5Ddswiaz5ZBKUhEwk565gOMgwHqJOIDy8Db7gHeOSdK/i+d53ED3/oYRxojJEOz6DibqI9JyW+jTxZZxXhlbPs8iHvJ9jYFxavCmca0OJtkBgS5MFV8irJg/ygmRlOsgg3a7JBg0rZR4/E6NfY8N0SBpmD+QO34/TzPv7x//EsHv3sJhVbiNbiCQxTn8d4CBoe+tEazd4euaNvCMHsWJHW4GlnlLRJYqT5XNk2G90WZKxFBtemx/noIhtfwK3Hgfc/chIfet8pEsSLJJsXsdDMSWpU2knVUKrmXhv3C/Mw5K6OgYSYa3eXUgNZ6QT+30e38ff+4VMYYwGR1+Z3vjmPpvFdFzTg9m3EviiR4MxKteslZd5Vkb8JaEWCdzR4yo7Bc0lzvLfqLLa3tkwkwoqm1OVTdq4RJtmEZaqa0J6TjM8rV3KQsbPUrJQpmJyaSf/P7zzG58h8emNsdgfoDhNogkTGWyZ3U2UOVL0+Dh9q4PBqAwcXQyy3K3w+FTTDAJuXr2CuWmFJc0SjDu9LD5XqBF6QIGUmqe6VcaHtH1hStnhVXCPllKS8TmLT7t8iZQdOumBIuYw6TdgEo/gqGvMh1ntXUJ5rYMCGWWu+Dn/wxQp+6Z8/jief3oZfPYbeuI7UqyGcq6GfkIw8LQLokyxGJOUpCZkNNFPcXBI+6TDxIygwklYbyodsYhpQIXvoIXDW+VmMT3z0BD71sbdh1H2apH2Zx2yj3aIRvraBanWR5ZdPfP+RsmbQTDJ2SrxnImAtrFEwIk21y6lssyxGpRLy+5xJfmJ+z/NpRoRZIcmka/c9D45Hcmd+Wc67nzJlLi2eEIurR80si8GIdSDKSKI8LztdL+B1Kxwn1XGGIcsyoFUzRtmJ2ZkmrFe0XFJ1tnwKsc7ho1wOSfwxhhHvlUN7pVZHEjs8r57V/oF1X1i8Kgr3BVUKW46ZfaF5zDvfzPYGpOw1jThQHIJJAp9WuZS15lGnaYS77rqd5D7G5UtXsXZFU7MyNtgKGx9zYWOP0kJ9e6EC5VBqI0CcltjoNWujzDyZv2IYpHyfkiTysVHIoXsVgZvip3/qPrzunibq1S34zhZN9G0zb1ZRzyrlBn/PzE35v7H7wvVJ+CXtC9fGC2fH+JzmKVMBTjwqc1c+bA1CXq9ueW3dF9osSjNZSJFwmY/JZWcxTcmhtUMiNEt5SiyH5p8zFTuI8LUW5fgsvc9yuzGPi3mc5rkncL2Mz1ubmKbI4k3WAXa47EQq/gj1YGx2BKm4XX62zWvYgD/dQqhryrvscDtwU1pGOTthdkg8m+kseCAJXVE8WDgvwMQPkSomizq267z+vYr95UG3+BNCzClSklYTmcwUCxux3orsRDRM+l5Nh21LzZxHyDe4idNP/V947/cu4+f/5jtx/xuBUW+LpPMSWvUIyfAqDrTnUCMZawfl0TCj4koxStg45cdmho2yluJO0Axc3Hywhfl6wt9dwVI7wyPf1TLLb48dcdCsa5bAECFJVqprQkUXjVl+Sftvgj8en4PcdQNB7gp2kFC4zWIw1Wwxxuel56YBQCVtZJA6/MZlZ7iTYhJlzL9jz2Eq0XLge2+CRJ2tm7Av1qKjEY0BBS7qsQMj2TrbTJt87iTi0gbC6Taq2RhVKuIaO9SK3CIZO/C8xM6C3SIrkeqLegmVQysrTTAidQ7sKDNaKuqU9husUrZ4VRREy0ahRmzmCGtgjC2YSs8sLqGKEeWJhGcNXYOBpsFr2hR/s3RgQvP2Ek3REu6+5wRWDwa4eGEN55lCqrBo3EU8HpGoJ1RaFVTDBspBlQ07oBomIWxfRZUk4E666GycRhZ18fq7S/j4R96MT33inVSAF1H2OyT1DebTMY08pBJ3nTJNcJHsrPzfWCmrjBN+NqFSPnNuZ6CvpIE+xQGhSpuqw/l64v7W8doqZeOyIAkr4HsRY5hKl9bOtcRr5/OasFwKAqRnpr+z14rUllDGxnwWiRsi4d/UqGklBzlJW6swaZQYUi1m5xTPXq917X7aQJDyee4ECHLM5r6aEaNZPZoWyXtvIr25zKuY+6xULNxhDlo+fb23f4/CkrLFq0JU4CjOshraDiGLqOTjm5mVijkg94DmGhtSNo2zULlkF5q/ch2y0Wc9NJp13HL8Zpw8eQi1ChVxf5skS/LRvvNZRPU05k8iTBPFUqACS7ZNLF2X5rH2Ezx1ZwWf/NgD+PSPvht33V7D9saTxmUxzbeRxF3kaaxmjCBgwzej9irETofxTWZfGHIozRek/PjVl2dfyKe9p0nZPBfmw1R0mLNnJPK8lngi/tVz1HUW743Lh+dOqVYVB6MI+iMLSUn1gOXi31l8iWtJeRWvteuHr/EBExiIUttYWgUJKx91GcZnruBRzGeWjDpm0hPSxgp8t69gSdniVWF2qSBFsTWxoWixchGRqwiyIUoWXZC0SMizxqwGpaXYRcObYHt7gmaTFY3s3N3umHmyp+44hnvuPIITR+dwaKmEw4suGkFE7TRBME1Q82LM12OszCe462QZD7xhHh/+4TfiUx97O+66o4z+9pMYD57HQntKlZyaIDw+FZ02EHWo4nIyQk4yVSB1NWyzTPxbmBJ35lxckHKpZpSySFlWgK7z+vDakrKIVe4nPQd1kkWHqb+z7/U/5s6/erqz4FPa8EBJB0jJKkyQ7lexNF2fFv/4pYGxRna+eZmwde28Tk1t1D3Q+UW4RmHzGLlMzLJ904HPOgfda911nZ93Z6c8ynk/wc6+sHhVaOTdm2pwT/MHQjYmqiajlIpPFARGO1aYXUuM79Y0Jx4ns1YNjqToJugPBiYoUbu1bKZYdbsZAm8e7aUTVMUVbG2n2NgaYzDKEJPfRQeKTlYpu1g+UMWwfxmpVHM1N1sP+TTHs7SPLB4hDNjwafaq6Wa5plCRgPhPBKTAPYFmkGiN2X9j9kXu3ILf/mwHf/8fPYnRdAkjZ85c756eErdDysUdneWhv98gv/8fC4gsFV9Zg6DFPOGic1JpZkSpe7zz17znMTuMr/9reyefz1tuLkO1vBZzPfyRwo6aDtEMHqemY1dEP/3OkP9E51Sd+gZFu8FhSdniVSEy8xGxVehVjQ2qTHqhyhPhkWAcDeYhKUhZjYhEl0t18tOCTALkOYmNhOwqCt1kBJe/K1HB5ikJVFlnNG1LVfjBHIJKgy3ZIzGTRKkqaTWj07+KA8tN+F6CrY3zVJQjLLbqzMfDsKt92Ega+Y6Cd6mrXPlD5SvVCkEHgfZ7Y+fxrZDy73yui7/3D594mZQz5umJUPcoKc+slhllmlCp5m+RRHmay210rT4z9KejmUiQul+F20q/1jfF90V2ejcrV0HTxftryVhQpRET77/cFkzq6AqCVj46txYNKcqb1PEU2gVH0x6104pcHJkh8tl59geKrsjC4htix5h8uVHMzMlrTVDNVDpMDbdovEXTFaSeyz6JNg9IwFMqW5IlCdelQqpXp1hYlHrO0J6L0Kz3UQ422CDPU9ydhZO/BDc/h2ath373OQy6Z4xKbs95GPQH6Gx1oJjN1WoNvh+Q4Hhembs0j1WpNcc2SxKSDctpCiSCYlFoFxeDWSIcmdjyj2t1oDR+LF7nofLB6kpltusOsIMgaRjikoozv/F5Ep1Xvmv5W0UeyluxoBNkXlRYCpOQ16E4IcyYJKQOQysUi8E0llmDYsaFwv9IYE4pIjmRxHWeCTuOGSNeF/hbdgxmnq/phNRxFkkuBXW2ZmxAn+mumfc7ie9NfGPeP+0crk1mfd4DT4nWiCHQHSI1bg8l3gndPt0nM9bA+1YMJkoZK3SqYjazY+LfYgXnbGbPDp3zfNf+6T3/tw+he2hh8Q2hJpbLbWEGwtTEZcpro1URh4hKjV6kNBsIYrOU+iGpSUW7JapT7R/obCAIRghD0gKVsBRTlLkYJ1MkJPyYSmo8GWKUdniGIdyAJOCT6klOHs9RcbWKr4xk5CCJQnhuDUFYZ4MvY5Ro/iwJo0wCUZxolkuUU+Z3VZcKPC98pFKN2n079jJEfoZE5Mzyahl2CKUMR1aqqJSBRquEtY0OSvy97oDm03rKl6zuUvmbGQSK8TypkfCqPKLYHTtlnrEfIw6GiMIuiZn3IG3AT1okZ/nYMxL2GAkJ20wv4/GDZMCbEiGkgL/lRBO1Mq2J6Qi99S6C8rwhyOuFVLDGBIw1owUbUz2XYuDPdDyO4jWrg1CcbHUmE15DUa6EPG2mxzn8paNdrZl0jY5vkqarmUFAfqag+HJ1mA6c977wH/PxqSPQfcp5H/lXnVMR18R7RQrgZWVzT812ULR8lLfOl5oBwJ2L2UewpGzxqhApG7JlKkSLmpzUjZYw8xNDyoUSk84sNI+O1CvNWhABjIrE10Y58VVxrBbWFm6OYn4qlaPMXCYzQ4BHqASFlbujGrWQRQGS2HC19LYom0hAZ9Xxs99QadH8NYHs9dqUsyALKeSZUhZRuzKnE543HmJlsYbFeWCbKnz14BLCsqZufT1eoeNMnkWkPCWp0WKqoBR0UVa9VhdRdFbm+nR+/lQEpvvbqNeQZ9qBWlaAi6trZ9CoBbQkGhius2P4NpuocU/M0sv3iJ3UTtIgm/HxSuWbpGcBEqMSnzafj8YRZlPV1OXNUvEcZ2RcXI+e77WkusF7qPgjfG6ajSG3hJL8zYWbQhEHaXmYeyXXhuqFzqV6MdPQ+wuWlC1uWBTEoCpeJEPWJvGdyJ4dSzn0kefqMFK021UcOwpsrGs2xwhxtE2yEikVm4pq8DI36lIzKYpt8aU8fZrzAVVfmNYQRvMoj5dRGR2mQp7HxNUuKgqqJJcICYaEbba3UqJqrLghOldBlQ4cWjmAXC6XwEe5VoPjagDTYr/BkrLFjQspZKoupZmvVMpZhDzzgYKEmmcxfAq1EmK86Y0nsHoAGHbPYpp1jQLMNGBpzHQeTjPfbJ1F0i458gGPmXvh3vB5QEBzPEyqKCcNvqei57GJP0AmN4FxlxR7Dnq5TzJnBxHHKDPf1586hMVWDQdXlzDqdRFFY1SaDXMZFvsLlpQtbmBImRauBbkZNHhm/MLk4tkAVTQeFqRMK3s8Wseb778N73ybj2k6RbVMdcs8NOvEkLI41QxcabBK21MNdoIpDUjMQ+Nr9ycpAinnnOeY5Mi8EUl5bPzNMs0180P+Uz9zEOY54u4a3nRPHW9/6F4Me2uotWvo9rbRG5LItQ+e+hWLfQVLyhY3MAq/ZkHM11SySNmZMImYSXq+r2aQYjhcx0Lbwf33HcVSE0iGa0YnF8xYsKN8w8WqOM2x1WazCtQkgh6SoEXS14haxJ27MVLNtCjJvyrXhW/iPmiRTDjlcWkX73joJI4fqWPj6vM8aR/lso9avYlEUZt2zmuxf2BJ2eKGxcynLEJUVS98yfxkUrgu5FP2PSrWsmeWaYdhhjS+ittOtPCed1QQirAxJonnO0m/KWhSPG0GyJzc+ItzKuJMvuNg08SezsLLyLRriqvBS81H1txoxX9wqablEOH5SmtUyAt44A2LSKMX0aglGLNj8EMPYbUGh/Jd12Cxv2BJ2eLGhSHOayP4+r9Ieea60DdZpgUOE6rkLlptzRLo4pabW/iR7387bj2iQKJbCEmg/lTuiZi/1UwG+TH8nVkgWukYwIS8pARP3dRMeUv8YTFX2RQi2Jl5IPeJlt/0EZCQA6eDD/+5N+L2W30Meqdx4ngLaTrEaDRErz9AlrMH2Cm7xf6BJWWLGxaitCLIzY4Hgp8Uk7ZErAXdlet1BGGIsOIjinsIfG0x1UcjHOJnfuLdWKikcJNLSPuXUIo3EUxSOGmJBFtF6B2guj7EVrRMxbyIiTeP1KtjSNLuT4otSithg4QeIOkrtscUc1V2AN01tJoDfPrT9+L229gxpM+g0eij3+9AEzQqtQrLxA5CLg8V22JfwQYksriBIVKjojXTLRS+UjEWNH9a/mWt1nMxpCJNshgZKVRzduVk9ryA5ByiWq7j6OEVRMNtbK8nJNgc5YCqdhCb5eOtuRVcutShsp0gzV2UnJC/15xuah0qZ4cKerg9gpulWGwG8Cc99Dau4sRNwCc/9iZ85EfuRzR+Aq53ES4V9k6/weSzN9HMC8dMuysCGVnsF9jYFxY3MOTLrZqBuZLTNYtYzJozEbJWmknBJqk2ujBT3JI8QcbvXK8Fzz1Aflwkx67ivzz6FD7zG3+IP3wKJmCSX2kimS5gEJfhBi2kExKy58IPXfJojES7Ok/G8NgJKBKIkw2pvkdIxyOcPAr81E+8F295cBWnn/lNHDw4Jn9vmQFHQ8oa28vqmOaLLKfPMmt3Us2jttgvsKRsccNCMSkybfRJUnacDglZc4pJ0BOSXd6Awmc6LgnaBDEaIEqHJFSq0kkZvrvA38xhHLk4sHISW50p/sOvP45f+/ULePE8kJA8U/6+NncI48RBmmmFHP9NSez5mGdPUQlSNPwxepvA6+918Gc++HbcfnIOjVoP8+0BGvUulfIZnkcrH9kY1RLNvDuR8pxR9KWS8lKkN4v9AkvKFjcsNOsiKZWhoDhuqUNC1kwKilkqW5D0ptMKFa0WjisOxJCqODPk6Ey1wKPB35Ccwwo2t4eI8zLC6kEMohq+/MRFPPrYaTz73AAdCtnRCCTX4pwufx9SeTfqJczVp6iFwHe/+wTuvfck5uc9LC6U4LrbiKIL8Dz+WNPi5FZRK5SC164cWqYtFwZpWaUr5LPFfoElZYsbForVELuhmVPsUil7Wnknt7H2L8pbmExqJs5Cko2plPsIwikCn4SdOZgm2i3DxfrGFdTnqG7bK/DL8xjEHjoDkJw9pCTqx7/wRxgNc8RjKnCt6HN9KuQQc40mWk0Xb37gKIm+h+3OVdTrLhYPNbB28TSuXL2MY8e0hb98yVTEUu+aT63XUzZJ4/veaZrFKKXFPoElZYsbFrnjIHIDEm4Kr7QtZ0ZByiaIheIZay5wDeNkSFXdgx+IojPk8QSltAzP8VFbbAB+CXF/iCubmxSzAeYPrABeiO3uEEuLq0iiDBP+ZhZoxyE5l/m9G5bQ3T6LuZUWkIxx7sJZdgIpFg/MoVwNkSYkc40/Sh0rYI8ImecvKa6GFqTwaKOYDVlb7BdYUra4YSFSVgjIgpQHcM08Y5Egic74lLUPn2dmX0zdMXwvJy3mmKQThKUqKpUqxlEf/WGPHOyhtdAmpeZY39oy4rXVbiGKIqpdzfHwUKYq11LuSZxjys9ct4RK3cf5i1fRnPMxt7qMUXcbo2gM19MOLDFacwd2XBZS5iy0mSEiUh7yDXsQS8r7DpaULW5YFKvuNBVfSziuBVSHFn8Yn62mzMk1IKbWtLOd7/n/a3GM9V5hPotmojw1oFe8Nm9MDvL+FiFCX/HavCkGAM1B5pNX/lYfknDNuRTiU5D/mGUx5dGxKuvOjy32BSwpW1hYWOwizOSAhYWFhcUugCVlCwsLi10ES8oWFhYWuwiWlC0sLCx2ESwpW1hYWOwiWFK2sLCw2EWwpGxhYWGxi2BJ2cLCwmIXwZKyhYWFxS6CJWULCwuLXQRLyhYWFha7CJaULSwsLHYRLClbWFhY7CJYUrawsLDYRbCkbGFhYbGLYEnZwsLCYhfBkrKFhYXFLoIlZQsLC4tdBEvKFhYWFrsIlpQtLCwsdhEsKVtYWFjsIlhStrCwsNhFsKRsYWFhsYtgSdnCwsJiF8GSsoWFhcUugiVlCwsLi10ES8oWFhYWuwiWlC0sLCx2ESwpW1hYWOwiWFK2sLCw2EWwpGxhYWGxi2BJ2cLCwmIXwZKyhYWFxS6CJWULCwuLXQRLyhYWFha7CJaULSwsLHYRLClbWFhY7CJYUrawsLDYRbCkbGFhYbGLYEnZwsLCYhfBkrKFhYXFLoIlZQsLC4tdBEvKFhYWFrsIlpQtLCwsdhEsKVtYWFjsIlhStrCwsNhFsKRsYWFhsYtgSdnCwsJi1wD4/wDCFZhDXWSdwQAAAABJRU5ErkJggg==;" parent="s4JdbdMJo-KRI_eK0oYm-1" vertex="1">
          <mxGeometry x="1310" y="1300.09" width="97" height="94.83" as="geometry" />
        </mxCell>
        <mxCell id="FLGPEEDjmsuFQvejq8bg-30" value="Approximately 8-10 min per scenario" style="shape=note;strokeWidth=2;fontSize=14;size=20;whiteSpace=wrap;html=1;fillColor=#fff2cc;strokeColor=#d6b656;fontColor=#666600;" parent="s4JdbdMJo-KRI_eK0oYm-1" vertex="1">
          <mxGeometry x="910" y="1670" width="130" height="90" as="geometry" />
        </mxCell>
        <mxCell id="FLGPEEDjmsuFQvejq8bg-46" value="" style="edgeStyle=orthogonalEdgeStyle;rounded=0;orthogonalLoop=1;jettySize=auto;html=1;" parent="s4JdbdMJo-KRI_eK0oYm-1" source="FLGPEEDjmsuFQvejq8bg-45" target="FLGPEEDjmsuFQvejq8bg-7" edge="1">
          <mxGeometry relative="1" as="geometry" />
        </mxCell>
        <mxCell id="FLGPEEDjmsuFQvejq8bg-45" value="Power App" style="rounded=0;whiteSpace=wrap;html=1;" parent="s4JdbdMJo-KRI_eK0oYm-1" vertex="1">
          <mxGeometry x="10" y="600" width="129" height="85" as="geometry" />
        </mxCell>
        <mxCell id="FLGPEEDjmsuFQvejq8bg-53" style="edgeStyle=orthogonalEdgeStyle;rounded=0;orthogonalLoop=1;jettySize=auto;html=1;entryX=0;entryY=0.5;entryDx=0;entryDy=0;exitX=1;exitY=0.5;exitDx=0;exitDy=0;" parent="s4JdbdMJo-KRI_eK0oYm-1" target="FLGPEEDjmsuFQvejq8bg-19" edge="1">
          <mxGeometry relative="1" as="geometry">
            <mxPoint x="900" y="1623.08" as="sourcePoint" />
            <mxPoint x="1080" y="1622.58" as="targetPoint" />
          </mxGeometry>
        </mxCell>
        <mxCell id="FLGPEEDjmsuFQvejq8bg-57" value="&lt;font style=&quot;font-size: 14px;&quot;&gt;Each scenario&#39;s output&lt;/font&gt;" style="text;html=1;strokeColor=none;fillColor=none;align=center;verticalAlign=middle;whiteSpace=wrap;rounded=0;" parent="s4JdbdMJo-KRI_eK0oYm-1" vertex="1">
          <mxGeometry x="1083" y="1250" width="112" height="30" as="geometry" />
        </mxCell>
        <mxCell id="FLGPEEDjmsuFQvejq8bg-58" value="&lt;font style=&quot;font-size: 14px;&quot;&gt;Each scenario&#39;s pages within the dashboard&lt;/font&gt;" style="text;html=1;strokeColor=none;fillColor=none;align=center;verticalAlign=middle;whiteSpace=wrap;rounded=0;" parent="s4JdbdMJo-KRI_eK0oYm-1" vertex="1">
          <mxGeometry x="1290" y="1240" width="190" height="32" as="geometry" />
        </mxCell>
      </root>
    </mxGraphModel>
  </diagram>
  <diagram id="4JpQhJuF3v_jvoxKFQ0V" name="Page-2">
    <mxGraphModel dx="1709" dy="813" grid="1" gridSize="10" guides="1" tooltips="1" connect="1" arrows="1" fold="1" page="1" pageScale="1" pageWidth="850" pageHeight="1100" math="0" shadow="0">
      <root>
        <mxCell id="0" />
        <mxCell id="1" parent="0" />
        <mxCell id="QdKli1mcB1T7xTU5UweM-1" value="Have demand signal updated" style="rounded=0;whiteSpace=wrap;html=1;" vertex="1" parent="1">
          <mxGeometry x="130" y="140" width="120" height="60" as="geometry" />
        </mxCell>
        <mxCell id="QdKli1mcB1T7xTU5UweM-2" value="Raw ZVSF &amp;amp; Demand signal from YSD034" style="text;html=1;align=center;verticalAlign=middle;whiteSpace=wrap;rounded=0;" vertex="1" parent="1">
          <mxGeometry x="310" y="155" width="120" height="30" as="geometry" />
        </mxCell>
        <mxCell id="QdKli1mcB1T7xTU5UweM-3" value="&lt;h1 style=&quot;margin-top: 0px;&quot;&gt;Monday&lt;/h1&gt;&lt;p&gt;&lt;br&gt;&lt;/p&gt;" style="text;html=1;whiteSpace=wrap;overflow=hidden;rounded=0;" vertex="1" parent="1">
          <mxGeometry x="140" y="80" width="110" height="45" as="geometry" />
        </mxCell>
        <mxCell id="QdKli1mcB1T7xTU5UweM-4" value="7:30am" style="text;html=1;align=center;verticalAlign=middle;whiteSpace=wrap;rounded=0;" vertex="1" parent="1">
          <mxGeometry x="40" y="155" width="60" height="30" as="geometry" />
        </mxCell>
        <mxCell id="QdKli1mcB1T7xTU5UweM-5" value="Identify &quot;frozen&quot; period and items to plan" style="rounded=0;whiteSpace=wrap;html=1;" vertex="1" parent="1">
          <mxGeometry x="130" y="220" width="120" height="60" as="geometry" />
        </mxCell>
        <mxCell id="QdKli1mcB1T7xTU5UweM-6" value="7:45-8:00am" style="text;html=1;align=center;verticalAlign=middle;whiteSpace=wrap;rounded=0;" vertex="1" parent="1">
          <mxGeometry x="40" y="235" width="60" height="30" as="geometry" />
        </mxCell>
        <mxCell id="QdKli1mcB1T7xTU5UweM-7" value="Master data&lt;div&gt;YSD034 (MRP Type from 311)&lt;/div&gt;&lt;div&gt;&lt;br&gt;&lt;/div&gt;" style="text;html=1;align=center;verticalAlign=middle;whiteSpace=wrap;rounded=0;" vertex="1" parent="1">
          <mxGeometry x="305" y="240" width="120" height="30" as="geometry" />
        </mxCell>
        <mxCell id="QdKli1mcB1T7xTU5UweM-8" value="Create supply plan scenario that fulfills site constraints and targets" style="rounded=0;whiteSpace=wrap;html=1;" vertex="1" parent="1">
          <mxGeometry x="130" y="390" width="120" height="60" as="geometry" />
        </mxCell>
        <mxCell id="QdKli1mcB1T7xTU5UweM-9" value="8:45-10:30am" style="text;html=1;align=center;verticalAlign=middle;whiteSpace=wrap;rounded=0;" vertex="1" parent="1">
          <mxGeometry x="40" y="405" width="60" height="30" as="geometry" />
        </mxCell>
        <mxCell id="QdKli1mcB1T7xTU5UweM-10" value="&lt;div&gt;Semi-automated process&lt;/div&gt;" style="text;html=1;align=center;verticalAlign=middle;whiteSpace=wrap;rounded=0;" vertex="1" parent="1">
          <mxGeometry x="305" y="405" width="120" height="30" as="geometry" />
        </mxCell>
        <mxCell id="QdKli1mcB1T7xTU5UweM-11" value="Create current scenario" style="rounded=0;whiteSpace=wrap;html=1;" vertex="1" parent="1">
          <mxGeometry x="130" y="310" width="120" height="60" as="geometry" />
        </mxCell>
        <mxCell id="QdKli1mcB1T7xTU5UweM-12" value="&lt;div&gt;On hand stock&lt;/div&gt;&lt;div&gt;YPP105 (routings)&lt;/div&gt;&lt;div&gt;YPP942 (machine utilization)&lt;/div&gt;&lt;div&gt;Intransit/Dual source supply&lt;/div&gt;" style="text;html=1;align=center;verticalAlign=middle;whiteSpace=wrap;rounded=0;" vertex="1" parent="1">
          <mxGeometry x="260" y="325" width="210" height="30" as="geometry" />
        </mxCell>
        <mxCell id="QdKli1mcB1T7xTU5UweM-13" value="8:00-8:45am" style="text;html=1;align=center;verticalAlign=middle;whiteSpace=wrap;rounded=0;" vertex="1" parent="1">
          <mxGeometry x="40" y="325" width="60" height="30" as="geometry" />
        </mxCell>
        <mxCell id="QdKli1mcB1T7xTU5UweM-15" value="Erase supply inside PTF&amp;nbsp;" style="rounded=0;whiteSpace=wrap;html=1;" vertex="1" parent="1">
          <mxGeometry x="130" y="480" width="120" height="60" as="geometry" />
        </mxCell>
        <mxCell id="QdKli1mcB1T7xTU5UweM-16" value="10:30-10:45am" style="text;html=1;align=center;verticalAlign=middle;whiteSpace=wrap;rounded=0;" vertex="1" parent="1">
          <mxGeometry x="50" y="490" width="60" height="30" as="geometry" />
        </mxCell>
        <mxCell id="QdKli1mcB1T7xTU5UweM-17" value="&lt;div&gt;Automated process (YPP065)&lt;/div&gt;" style="text;html=1;align=center;verticalAlign=middle;whiteSpace=wrap;rounded=0;" vertex="1" parent="1">
          <mxGeometry x="300" y="490" width="120" height="30" as="geometry" />
        </mxCell>
        <mxCell id="QdKli1mcB1T7xTU5UweM-18" value="Update new supply plan" style="rounded=0;whiteSpace=wrap;html=1;" vertex="1" parent="1">
          <mxGeometry x="135" y="660" width="120" height="60" as="geometry" />
        </mxCell>
        <mxCell id="QdKli1mcB1T7xTU5UweM-19" value="11:30-12:00pm" style="text;html=1;align=center;verticalAlign=middle;whiteSpace=wrap;rounded=0;" vertex="1" parent="1">
          <mxGeometry x="60" y="680" width="60" height="30" as="geometry" />
        </mxCell>
        <mxCell id="QdKli1mcB1T7xTU5UweM-20" value="Analysis of the simulation" style="text;html=1;align=center;verticalAlign=middle;whiteSpace=wrap;rounded=0;" vertex="1" parent="1">
          <mxGeometry x="70" y="580" width="250" height="30" as="geometry" />
        </mxCell>
        <mxCell id="QdKli1mcB1T7xTU5UweM-21" value="&lt;div&gt;Automated process (YPP124)&lt;/div&gt;" style="text;html=1;align=center;verticalAlign=middle;whiteSpace=wrap;rounded=0;" vertex="1" parent="1">
          <mxGeometry x="310" y="670" width="120" height="30" as="geometry" />
        </mxCell>
        <mxCell id="QdKli1mcB1T7xTU5UweM-22" value="Reports, analysis and minor changes" style="rounded=0;whiteSpace=wrap;html=1;" vertex="1" parent="1">
          <mxGeometry x="135" y="860" width="120" height="60" as="geometry" />
        </mxCell>
        <mxCell id="QdKli1mcB1T7xTU5UweM-23" value="1:40-4:00pm" style="text;html=1;align=center;verticalAlign=middle;whiteSpace=wrap;rounded=0;" vertex="1" parent="1">
          <mxGeometry x="65" y="875" width="60" height="30" as="geometry" />
        </mxCell>
        <mxCell id="QdKli1mcB1T7xTU5UweM-24" value="Execute Mirroring to see effects on DC" style="rounded=0;whiteSpace=wrap;html=1;" vertex="1" parent="1">
          <mxGeometry x="135" y="760" width="120" height="60" as="geometry" />
        </mxCell>
        <mxCell id="QdKli1mcB1T7xTU5UweM-25" value="1:00-1:40pm" style="text;html=1;align=center;verticalAlign=middle;whiteSpace=wrap;rounded=0;" vertex="1" parent="1">
          <mxGeometry x="60" y="775" width="60" height="30" as="geometry" />
        </mxCell>
        <mxCell id="QdKli1mcB1T7xTU5UweM-26" value="&lt;div&gt;YPP913/YPP921/CM07/YPP942&lt;/div&gt;" style="text;html=1;align=center;verticalAlign=middle;whiteSpace=wrap;rounded=0;" vertex="1" parent="1">
          <mxGeometry x="305" y="875" width="120" height="30" as="geometry" />
        </mxCell>
        <mxCell id="QdKli1mcB1T7xTU5UweM-27" value="Create current scenario" style="rounded=0;whiteSpace=wrap;html=1;" vertex="1" parent="1">
          <mxGeometry x="670" y="140" width="120" height="60" as="geometry" />
        </mxCell>
        <mxCell id="QdKli1mcB1T7xTU5UweM-29" value="&lt;h1 style=&quot;margin-top: 0px;&quot;&gt;Tuesday&lt;/h1&gt;" style="text;html=1;whiteSpace=wrap;overflow=hidden;rounded=0;" vertex="1" parent="1">
          <mxGeometry x="680" y="80" width="110" height="45" as="geometry" />
        </mxCell>
        <mxCell id="QdKli1mcB1T7xTU5UweM-30" value="8:00-9:00am" style="text;html=1;align=center;verticalAlign=middle;whiteSpace=wrap;rounded=0;" vertex="1" parent="1">
          <mxGeometry x="580" y="155" width="60" height="30" as="geometry" />
        </mxCell>
        <mxCell id="QdKli1mcB1T7xTU5UweM-48" value="" style="edgeStyle=orthogonalEdgeStyle;rounded=0;orthogonalLoop=1;jettySize=auto;html=1;" edge="1" parent="1" source="QdKli1mcB1T7xTU5UweM-31" target="QdKli1mcB1T7xTU5UweM-45">
          <mxGeometry relative="1" as="geometry" />
        </mxCell>
        <mxCell id="QdKli1mcB1T7xTU5UweM-31" value="Apply changes to supply if necessary" style="rounded=0;whiteSpace=wrap;html=1;" vertex="1" parent="1">
          <mxGeometry x="670" y="220" width="120" height="60" as="geometry" />
        </mxCell>
        <mxCell id="QdKli1mcB1T7xTU5UweM-32" value="9:00am-12:00pm" style="text;html=1;align=center;verticalAlign=middle;whiteSpace=wrap;rounded=0;" vertex="1" parent="1">
          <mxGeometry x="580" y="235" width="60" height="30" as="geometry" />
        </mxCell>
        <mxCell id="QdKli1mcB1T7xTU5UweM-34" value="SIP Team sends SKU exceptions to modify supply" style="rounded=0;whiteSpace=wrap;html=1;" vertex="1" parent="1">
          <mxGeometry x="670" y="325" width="120" height="60" as="geometry" />
        </mxCell>
        <mxCell id="QdKli1mcB1T7xTU5UweM-36" value="1:00-2:00pm" style="text;html=1;align=center;verticalAlign=middle;whiteSpace=wrap;rounded=0;" vertex="1" parent="1">
          <mxGeometry x="580" y="340" width="60" height="30" as="geometry" />
        </mxCell>
        <mxCell id="QdKli1mcB1T7xTU5UweM-37" value="Supply leveling, changes to align to constraints and targets" style="rounded=0;whiteSpace=wrap;html=1;" vertex="1" parent="1">
          <mxGeometry x="670" y="415" width="120" height="60" as="geometry" />
        </mxCell>
        <mxCell id="QdKli1mcB1T7xTU5UweM-38" value="&lt;div&gt;MD04 (Site) modifications&lt;/div&gt;&lt;div&gt;YSD067 for single SKU mirroring&lt;/div&gt;&lt;div&gt;MD04 (DC) effects&lt;/div&gt;" style="text;html=1;align=center;verticalAlign=middle;whiteSpace=wrap;rounded=0;" vertex="1" parent="1">
          <mxGeometry x="960" y="230" width="210" height="30" as="geometry" />
        </mxCell>
        <mxCell id="QdKli1mcB1T7xTU5UweM-39" value="&lt;div&gt;MD04 (Site) modifications&lt;/div&gt;&lt;div&gt;YSD067 for list of SKU´s mirroring&lt;/div&gt;&lt;div&gt;MD04 (DC) effects&lt;/div&gt;" style="text;html=1;align=center;verticalAlign=middle;whiteSpace=wrap;rounded=0;" vertex="1" parent="1">
          <mxGeometry x="810" y="340" width="210" height="30" as="geometry" />
        </mxCell>
        <mxCell id="QdKli1mcB1T7xTU5UweM-40" value="2:00-4:30/5:00pm" style="text;html=1;align=center;verticalAlign=middle;whiteSpace=wrap;rounded=0;" vertex="1" parent="1">
          <mxGeometry x="580" y="430" width="60" height="30" as="geometry" />
        </mxCell>
        <mxCell id="QdKli1mcB1T7xTU5UweM-42" value="Execute Mirroring to see effects on DC" style="rounded=0;whiteSpace=wrap;html=1;" vertex="1" parent="1">
          <mxGeometry x="670" y="505" width="120" height="60" as="geometry" />
        </mxCell>
        <mxCell id="QdKli1mcB1T7xTU5UweM-49" style="edgeStyle=orthogonalEdgeStyle;rounded=0;orthogonalLoop=1;jettySize=auto;html=1;entryX=0.5;entryY=1;entryDx=0;entryDy=0;exitX=0.5;exitY=1;exitDx=0;exitDy=0;" edge="1" parent="1" source="QdKli1mcB1T7xTU5UweM-45" target="QdKli1mcB1T7xTU5UweM-31">
          <mxGeometry relative="1" as="geometry" />
        </mxCell>
        <mxCell id="QdKli1mcB1T7xTU5UweM-45" value="Execute Mirroring to see effects on DC" style="rounded=0;whiteSpace=wrap;html=1;" vertex="1" parent="1">
          <mxGeometry x="820" y="220" width="120" height="60" as="geometry" />
        </mxCell>
        <mxCell id="QdKli1mcB1T7xTU5UweM-47" value="4:30/5:00pm" style="text;html=1;align=center;verticalAlign=middle;whiteSpace=wrap;rounded=0;" vertex="1" parent="1">
          <mxGeometry x="580" y="520" width="60" height="30" as="geometry" />
        </mxCell>
      </root>
    </mxGraphModel>
  </diagram>
</mxfile>
